<?xml version="1.0" encoding="UTF-8" standalone="no"?>
<!DOCTYPE svg PUBLIC "-//W3C//DTD SVG 1.1//EN"
 "http://www.w3.org/Graphics/SVG/1.1/DTD/svg11.dtd">
<!-- Generated by graphviz version 2.43.0 (0)
 -->
<!-- Title: List Pages: 1 -->
<svg width="1504pt" height="302pt"
 viewBox="0.00 0.00 1504.00 301.50" xmlns="http://www.w3.org/2000/svg" xmlns:xlink="http://www.w3.org/1999/xlink">
<g id="graph0" class="graph" transform="scale(1 1) rotate(0) translate(4 297.5)">
<title>List</title>
<polygon fill="#696969" stroke="transparent" points="-4,4 -4,-297.5 1500,-297.5 1500,4 -4,4"/>
<text text-anchor="middle" x="748" y="-7.8" font-family="Times,serif" font-size="14.00">list_dump from function main, List/src/main.cpp:27</text>
<!-- 0 -->
<g id="node1" class="node">
<title>0</title>
<path fill="#ff0000" stroke="black" d="M15.5,-128C15.5,-128 67.5,-128 67.5,-128 73.5,-128 79.5,-134 79.5,-140 79.5,-140 79.5,-208 79.5,-208 79.5,-214 73.5,-220 67.5,-220 67.5,-220 15.5,-220 15.5,-220 9.5,-220 3.5,-214 3.5,-208 3.5,-208 3.5,-140 3.5,-140 3.5,-134 9.5,-128 15.5,-128"/>
<text text-anchor="middle" x="41.5" y="-204.8" font-family="Times,serif" font-size="14.00">idx: 0</text>
<polyline fill="none" stroke="black" points="3.5,-197 79.5,-197 "/>
<text text-anchor="middle" x="41.5" y="-181.8" font-family="Times,serif" font-size="14.00">data: 0</text>
<polyline fill="none" stroke="black" points="3.5,-174 79.5,-174 "/>
<text text-anchor="middle" x="41.5" y="-158.8" font-family="Times,serif" font-size="14.00">next: 1</text>
<polyline fill="none" stroke="black" points="3.5,-151 79.5,-151 "/>
<text text-anchor="middle" x="41.5" y="-135.8" font-family="Times,serif" font-size="14.00">prev: 10</text>
</g>
<!-- 0&#45;&gt;0 -->
<g id="edge1" class="edge">
<title>0&#45;&gt;0</title>
<path fill="none" stroke="#696969" d="M19.86,-220.09C21.73,-230.7 28.94,-238.5 41.5,-238.5 53.86,-238.5 61.05,-230.95 63.05,-220.59"/>
<polygon fill="#696969" stroke="#696969" points="63.14,-220.09 63.14,-220.09 63.14,-220.09 63.14,-220.09"/>
</g>
<!-- 1 -->
<g id="node2" class="node">
<title>1</title>
<path fill="#ccff99" stroke="black" d="M131,-128C131,-128 191,-128 191,-128 197,-128 203,-134 203,-140 203,-140 203,-208 203,-208 203,-214 197,-220 191,-220 191,-220 131,-220 131,-220 125,-220 119,-214 119,-208 119,-208 119,-140 119,-140 119,-134 125,-128 131,-128"/>
<text text-anchor="middle" x="161" y="-204.8" font-family="Times,serif" font-size="14.00">idx: 1</text>
<polyline fill="none" stroke="black" points="119,-197 203,-197 "/>
<text text-anchor="middle" x="161" y="-181.8" font-family="Times,serif" font-size="14.00">data: 100</text>
<polyline fill="none" stroke="black" points="119,-174 203,-174 "/>
<text text-anchor="middle" x="161" y="-158.8" font-family="Times,serif" font-size="14.00">next: 2</text>
<polyline fill="none" stroke="black" points="119,-151 203,-151 "/>
<text text-anchor="middle" x="161" y="-135.8" font-family="Times,serif" font-size="14.00">prev: 0</text>
</g>
<!-- 0&#45;&gt;1 -->
<g id="edge2" class="edge">
<title>0&#45;&gt;1</title>
<path fill="none" stroke="#696969" d="M79.68,-167.67C92.09,-167.17 105.98,-167.11 118.69,-167.52"/>
<polygon fill="#696969" stroke="#696969" points="118.99,-167.53 118.99,-167.53 118.99,-167.53 118.99,-167.53"/>
</g>
<!-- 0&#45;&gt;1 -->
<g id="edge15" class="edge">
<title>0&#45;&gt;1</title>
<path fill="none" stroke="black" d="M79.68,-180.33C88.96,-180.71 99.07,-180.83 108.9,-180.7"/>
<polygon fill="black" stroke="black" points="109.07,-184.2 118.99,-180.47 108.91,-177.2 109.07,-184.2"/>
</g>
<!-- 2 -->
<g id="node3" class="node">
<title>2</title>
<path fill="#ccff99" stroke="black" d="M251,-128C251,-128 294,-128 294,-128 300,-128 306,-134 306,-140 306,-140 306,-208 306,-208 306,-214 300,-220 294,-220 294,-220 251,-220 251,-220 245,-220 239,-214 239,-208 239,-208 239,-140 239,-140 239,-134 245,-128 251,-128"/>
<text text-anchor="middle" x="272.5" y="-204.8" font-family="Times,serif" font-size="14.00">idx: 2</text>
<polyline fill="none" stroke="black" points="239,-197 306,-197 "/>
<text text-anchor="middle" x="272.5" y="-181.8" font-family="Times,serif" font-size="14.00">data: 1</text>
<polyline fill="none" stroke="black" points="239,-174 306,-174 "/>
<text text-anchor="middle" x="272.5" y="-158.8" font-family="Times,serif" font-size="14.00">next: 3</text>
<polyline fill="none" stroke="black" points="239,-151 306,-151 "/>
<text text-anchor="middle" x="272.5" y="-135.8" font-family="Times,serif" font-size="14.00">prev: 1</text>
</g>
<!-- 1&#45;&gt;2 -->
<g id="edge3" class="edge">
<title>1&#45;&gt;2</title>
<path fill="none" stroke="#696969" d="M203.09,-167.44C214.77,-167.11 227.33,-167.21 238.47,-167.75"/>
<polygon fill="#696969" stroke="#696969" points="238.73,-167.76 238.73,-167.76 238.73,-167.76 238.73,-167.76"/>
</g>
<!-- 1&#45;&gt;2 -->
<g id="edge16" class="edge">
<title>1&#45;&gt;2</title>
<path fill="none" stroke="black" d="M203.09,-180.56C211.46,-180.8 220.28,-180.81 228.71,-180.6"/>
<polygon fill="black" stroke="black" points="228.87,-184.1 238.73,-180.24 228.61,-177.11 228.87,-184.1"/>
</g>
<!-- 3 -->
<g id="node4" class="node">
<title>3</title>
<path fill="#ccff99" stroke="black" d="M354,-128C354,-128 397,-128 397,-128 403,-128 409,-134 409,-140 409,-140 409,-208 409,-208 409,-214 403,-220 397,-220 397,-220 354,-220 354,-220 348,-220 342,-214 342,-208 342,-208 342,-140 342,-140 342,-134 348,-128 354,-128"/>
<text text-anchor="middle" x="375.5" y="-204.8" font-family="Times,serif" font-size="14.00">idx: 3</text>
<polyline fill="none" stroke="black" points="342,-197 409,-197 "/>
<text text-anchor="middle" x="375.5" y="-181.8" font-family="Times,serif" font-size="14.00">data: 2</text>
<polyline fill="none" stroke="black" points="342,-174 409,-174 "/>
<text text-anchor="middle" x="375.5" y="-158.8" font-family="Times,serif" font-size="14.00">next: 4</text>
<polyline fill="none" stroke="black" points="342,-151 409,-151 "/>
<text text-anchor="middle" x="375.5" y="-135.8" font-family="Times,serif" font-size="14.00">prev: 2</text>
</g>
<!-- 2&#45;&gt;3 -->
<g id="edge4" class="edge">
<title>2&#45;&gt;3</title>
<path fill="none" stroke="#696969" d="M306.01,-167.65C317.34,-167.13 330.06,-167.12 341.43,-167.62"/>
<polygon fill="#696969" stroke="#696969" points="341.7,-167.63 341.7,-167.63 341.7,-167.63 341.7,-167.63"/>
</g>
<!-- 2&#45;&gt;3 -->
<g id="edge17" class="edge">
<title>2&#45;&gt;3</title>
<path fill="none" stroke="black" d="M306.01,-180.35C314.13,-180.73 322.96,-180.84 331.5,-180.68"/>
<polygon fill="black" stroke="black" points="331.81,-184.18 341.7,-180.37 331.6,-177.18 331.81,-184.18"/>
</g>
<!-- 4 -->
<g id="node5" class="node">
<title>4</title>
<path fill="#ccff99" stroke="black" d="M457,-128C457,-128 517,-128 517,-128 523,-128 529,-134 529,-140 529,-140 529,-208 529,-208 529,-214 523,-220 517,-220 517,-220 457,-220 457,-220 451,-220 445,-214 445,-208 445,-208 445,-140 445,-140 445,-134 451,-128 457,-128"/>
<text text-anchor="middle" x="487" y="-204.8" font-family="Times,serif" font-size="14.00">idx: 4</text>
<polyline fill="none" stroke="black" points="445,-197 529,-197 "/>
<text text-anchor="middle" x="487" y="-181.8" font-family="Times,serif" font-size="14.00">data: 300</text>
<polyline fill="none" stroke="black" points="445,-174 529,-174 "/>
<text text-anchor="middle" x="487" y="-158.8" font-family="Times,serif" font-size="14.00">next: 5</text>
<polyline fill="none" stroke="black" points="445,-151 529,-151 "/>
<text text-anchor="middle" x="487" y="-135.8" font-family="Times,serif" font-size="14.00">prev: 3</text>
</g>
<!-- 3&#45;&gt;4 -->
<g id="edge5" class="edge">
<title>3&#45;&gt;4</title>
<path fill="none" stroke="#696969" d="M409.06,-167.77C420.19,-167.22 432.8,-167.11 444.54,-167.43"/>
<polygon fill="#696969" stroke="#696969" points="444.82,-167.44 444.82,-167.44 444.82,-167.44 444.82,-167.44"/>
</g>
<!-- 3&#45;&gt;4 -->
<g id="edge18" class="edge">
<title>3&#45;&gt;4</title>
<path fill="none" stroke="black" d="M409.06,-180.23C417.12,-180.63 425.96,-180.8 434.68,-180.74"/>
<polygon fill="black" stroke="black" points="434.88,-184.24 444.82,-180.56 434.76,-177.24 434.88,-184.24"/>
</g>
<!-- 5 -->
<g id="node6" class="node">
<title>5</title>
<path fill="#ccff99" stroke="black" d="M577,-128C577,-128 620,-128 620,-128 626,-128 632,-134 632,-140 632,-140 632,-208 632,-208 632,-214 626,-220 620,-220 620,-220 577,-220 577,-220 571,-220 565,-214 565,-208 565,-208 565,-140 565,-140 565,-134 571,-128 577,-128"/>
<text text-anchor="middle" x="598.5" y="-204.8" font-family="Times,serif" font-size="14.00">idx: 5</text>
<polyline fill="none" stroke="black" points="565,-197 632,-197 "/>
<text text-anchor="middle" x="598.5" y="-181.8" font-family="Times,serif" font-size="14.00">data: 4</text>
<polyline fill="none" stroke="black" points="565,-174 632,-174 "/>
<text text-anchor="middle" x="598.5" y="-158.8" font-family="Times,serif" font-size="14.00">next: 6</text>
<polyline fill="none" stroke="black" points="565,-151 632,-151 "/>
<text text-anchor="middle" x="598.5" y="-135.8" font-family="Times,serif" font-size="14.00">prev: 4</text>
</g>
<!-- 4&#45;&gt;5 -->
<g id="edge6" class="edge">
<title>4&#45;&gt;5</title>
<path fill="none" stroke="#696969" d="M529.09,-167.44C540.77,-167.11 553.33,-167.21 564.47,-167.75"/>
<polygon fill="#696969" stroke="#696969" points="564.73,-167.76 564.73,-167.76 564.73,-167.76 564.73,-167.76"/>
</g>
<!-- 4&#45;&gt;5 -->
<g id="edge19" class="edge">
<title>4&#45;&gt;5</title>
<path fill="none" stroke="black" d="M529.09,-180.56C537.46,-180.8 546.28,-180.81 554.71,-180.6"/>
<polygon fill="black" stroke="black" points="554.87,-184.1 564.73,-180.24 554.61,-177.11 554.87,-184.1"/>
</g>
<!-- 6 -->
<g id="node7" class="node">
<title>6</title>
<path fill="#ccff99" stroke="black" d="M680,-128C680,-128 740,-128 740,-128 746,-128 752,-134 752,-140 752,-140 752,-208 752,-208 752,-214 746,-220 740,-220 740,-220 680,-220 680,-220 674,-220 668,-214 668,-208 668,-208 668,-140 668,-140 668,-134 674,-128 680,-128"/>
<text text-anchor="middle" x="710" y="-204.8" font-family="Times,serif" font-size="14.00">idx: 6</text>
<polyline fill="none" stroke="black" points="668,-197 752,-197 "/>
<text text-anchor="middle" x="710" y="-181.8" font-family="Times,serif" font-size="14.00">data: 200</text>
<polyline fill="none" stroke="black" points="668,-174 752,-174 "/>
<text text-anchor="middle" x="710" y="-158.8" font-family="Times,serif" font-size="14.00">next: 7</text>
<polyline fill="none" stroke="black" points="668,-151 752,-151 "/>
<text text-anchor="middle" x="710" y="-135.8" font-family="Times,serif" font-size="14.00">prev: 5</text>
</g>
<!-- 5&#45;&gt;6 -->
<g id="edge7" class="edge">
<title>5&#45;&gt;6</title>
<path fill="none" stroke="#696969" d="M632.06,-167.77C643.19,-167.22 655.8,-167.11 667.54,-167.43"/>
<polygon fill="#696969" stroke="#696969" points="667.82,-167.44 667.82,-167.44 667.82,-167.44 667.82,-167.44"/>
</g>
<!-- 5&#45;&gt;6 -->
<g id="edge20" class="edge">
<title>5&#45;&gt;6</title>
<path fill="none" stroke="black" d="M632.06,-180.23C640.12,-180.63 648.96,-180.8 657.68,-180.74"/>
<polygon fill="black" stroke="black" points="657.88,-184.24 667.82,-180.56 657.76,-177.24 657.88,-184.24"/>
</g>
<!-- 7 -->
<g id="node8" class="node">
<title>7</title>
<path fill="#ccff99" stroke="black" d="M800,-128C800,-128 843,-128 843,-128 849,-128 855,-134 855,-140 855,-140 855,-208 855,-208 855,-214 849,-220 843,-220 843,-220 800,-220 800,-220 794,-220 788,-214 788,-208 788,-208 788,-140 788,-140 788,-134 794,-128 800,-128"/>
<text text-anchor="middle" x="821.5" y="-204.8" font-family="Times,serif" font-size="14.00">idx: 7</text>
<polyline fill="none" stroke="black" points="788,-197 855,-197 "/>
<text text-anchor="middle" x="821.5" y="-181.8" font-family="Times,serif" font-size="14.00">data: 5</text>
<polyline fill="none" stroke="black" points="788,-174 855,-174 "/>
<text text-anchor="middle" x="821.5" y="-158.8" font-family="Times,serif" font-size="14.00">next: 8</text>
<polyline fill="none" stroke="black" points="788,-151 855,-151 "/>
<text text-anchor="middle" x="821.5" y="-135.8" font-family="Times,serif" font-size="14.00">prev: 6</text>
</g>
<!-- 6&#45;&gt;7 -->
<g id="edge8" class="edge">
<title>6&#45;&gt;7</title>
<path fill="none" stroke="#696969" d="M752.09,-167.44C763.77,-167.11 776.33,-167.21 787.47,-167.75"/>
<polygon fill="#696969" stroke="#696969" points="787.73,-167.76 787.73,-167.76 787.73,-167.76 787.73,-167.76"/>
</g>
<!-- 6&#45;&gt;7 -->
<g id="edge21" class="edge">
<title>6&#45;&gt;7</title>
<path fill="none" stroke="black" d="M752.09,-180.56C760.46,-180.8 769.28,-180.81 777.71,-180.6"/>
<polygon fill="black" stroke="black" points="777.87,-184.1 787.73,-180.24 777.61,-177.11 777.87,-184.1"/>
</g>
<!-- 8 -->
<g id="node9" class="node">
<title>8</title>
<path fill="#ccff99" stroke="black" d="M903,-128C903,-128 946,-128 946,-128 952,-128 958,-134 958,-140 958,-140 958,-208 958,-208 958,-214 952,-220 946,-220 946,-220 903,-220 903,-220 897,-220 891,-214 891,-208 891,-208 891,-140 891,-140 891,-134 897,-128 903,-128"/>
<text text-anchor="middle" x="924.5" y="-204.8" font-family="Times,serif" font-size="14.00">idx: 8</text>
<polyline fill="none" stroke="black" points="891,-197 958,-197 "/>
<text text-anchor="middle" x="924.5" y="-181.8" font-family="Times,serif" font-size="14.00">data: 6</text>
<polyline fill="none" stroke="black" points="891,-174 958,-174 "/>
<text text-anchor="middle" x="924.5" y="-158.8" font-family="Times,serif" font-size="14.00">next: 9</text>
<polyline fill="none" stroke="black" points="891,-151 958,-151 "/>
<text text-anchor="middle" x="924.5" y="-135.8" font-family="Times,serif" font-size="14.00">prev: 7</text>
</g>
<!-- 7&#45;&gt;8 -->
<g id="edge9" class="edge">
<title>7&#45;&gt;8</title>
<path fill="none" stroke="#696969" d="M855.01,-167.65C866.34,-167.13 879.06,-167.12 890.43,-167.62"/>
<polygon fill="#696969" stroke="#696969" points="890.7,-167.63 890.7,-167.63 890.7,-167.63 890.7,-167.63"/>
</g>
<!-- 7&#45;&gt;8 -->
<g id="edge22" class="edge">
<title>7&#45;&gt;8</title>
<path fill="none" stroke="black" d="M855.01,-180.35C863.13,-180.73 871.96,-180.84 880.5,-180.68"/>
<polygon fill="black" stroke="black" points="880.81,-184.18 890.7,-180.37 880.6,-177.18 880.81,-184.18"/>
</g>
<!-- 9 -->
<g id="node10" class="node">
<title>9</title>
<path fill="#ccff99" stroke="black" d="M1006,-128C1006,-128 1057,-128 1057,-128 1063,-128 1069,-134 1069,-140 1069,-140 1069,-208 1069,-208 1069,-214 1063,-220 1057,-220 1057,-220 1006,-220 1006,-220 1000,-220 994,-214 994,-208 994,-208 994,-140 994,-140 994,-134 1000,-128 1006,-128"/>
<text text-anchor="middle" x="1031.5" y="-204.8" font-family="Times,serif" font-size="14.00">idx: 9</text>
<polyline fill="none" stroke="black" points="994,-197 1069,-197 "/>
<text text-anchor="middle" x="1031.5" y="-181.8" font-family="Times,serif" font-size="14.00">data: 7</text>
<polyline fill="none" stroke="black" points="994,-174 1069,-174 "/>
<text text-anchor="middle" x="1031.5" y="-158.8" font-family="Times,serif" font-size="14.00">next: 10</text>
<polyline fill="none" stroke="black" points="994,-151 1069,-151 "/>
<text text-anchor="middle" x="1031.5" y="-135.8" font-family="Times,serif" font-size="14.00">prev: 8</text>
</g>
<!-- 8&#45;&gt;9 -->
<g id="edge10" class="edge">
<title>8&#45;&gt;9</title>
<path fill="none" stroke="#696969" d="M958.15,-167.7C969.38,-167.17 982.03,-167.11 993.57,-167.52"/>
<polygon fill="#696969" stroke="#696969" points="993.85,-167.53 993.85,-167.53 993.85,-167.53 993.85,-167.53"/>
</g>
<!-- 8&#45;&gt;9 -->
<g id="edge23" class="edge">
<title>8&#45;&gt;9</title>
<path fill="none" stroke="black" d="M958.15,-180.3C966.28,-180.69 975.16,-180.82 983.83,-180.71"/>
<polygon fill="black" stroke="black" points="983.93,-184.21 993.85,-180.47 983.76,-177.21 983.93,-184.21"/>
</g>
<!-- 10 -->
<g id="node11" class="node">
<title>10</title>
<path fill="#ccff99" stroke="black" d="M1117,-128C1117,-128 1177,-128 1177,-128 1183,-128 1189,-134 1189,-140 1189,-140 1189,-208 1189,-208 1189,-214 1183,-220 1177,-220 1177,-220 1117,-220 1117,-220 1111,-220 1105,-214 1105,-208 1105,-208 1105,-140 1105,-140 1105,-134 1111,-128 1117,-128"/>
<text text-anchor="middle" x="1147" y="-204.8" font-family="Times,serif" font-size="14.00">idx: 10</text>
<polyline fill="none" stroke="black" points="1105,-197 1189,-197 "/>
<text text-anchor="middle" x="1147" y="-181.8" font-family="Times,serif" font-size="14.00">data: 400</text>
<polyline fill="none" stroke="black" points="1105,-174 1189,-174 "/>
<text text-anchor="middle" x="1147" y="-158.8" font-family="Times,serif" font-size="14.00">next: 0</text>
<polyline fill="none" stroke="black" points="1105,-151 1189,-151 "/>
<text text-anchor="middle" x="1147" y="-135.8" font-family="Times,serif" font-size="14.00">prev: 9</text>
</g>
<!-- 9&#45;&gt;10 -->
<g id="edge11" class="edge">
<title>9&#45;&gt;10</title>
<path fill="none" stroke="#696969" d="M1069.04,-167.65C1080.35,-167.18 1092.9,-167.13 1104.53,-167.47"/>
<polygon fill="#696969" stroke="#696969" points="1104.8,-167.48 1104.8,-167.48 1104.8,-167.48 1104.8,-167.48"/>
</g>
<!-- 9&#45;&gt;10 -->
<g id="edge24" class="edge">
<title>9&#45;&gt;10</title>
<path fill="none" stroke="black" d="M1069.04,-180.35C1077.23,-180.69 1086.08,-180.81 1094.75,-180.72"/>
<polygon fill="black" stroke="black" points="1094.88,-184.22 1104.8,-180.52 1094.73,-177.22 1094.88,-184.22"/>
</g>
<!-- 10&#45;&gt;0 -->
<g id="edge25" class="edge">
<title>10&#45;&gt;0</title>
<path fill="none" stroke="black" d="M1104.87,-137.94C1062.82,-104.87 994.11,-61 925.5,-61 271.5,-61 271.5,-61 271.5,-61 202.15,-61 132.06,-103.19 88.02,-136.01"/>
<polygon fill="black" stroke="black" points="85.68,-133.39 79.83,-142.22 89.91,-138.96 85.68,-133.39"/>
</g>
<!-- head -->
<g id="node12" class="node">
<title>head</title>
<path fill="#ccff99" stroke="black" d="M1237,-156C1237,-156 1282,-156 1282,-156 1288,-156 1294,-162 1294,-168 1294,-168 1294,-180 1294,-180 1294,-186 1288,-192 1282,-192 1282,-192 1237,-192 1237,-192 1231,-192 1225,-186 1225,-180 1225,-180 1225,-168 1225,-168 1225,-162 1231,-156 1237,-156"/>
<text text-anchor="middle" x="1259.5" y="-170.3" font-family="Times,serif" font-size="14.00">head: 1</text>
</g>
<!-- 10&#45;&gt;head -->
<g id="edge12" class="edge">
<title>10&#45;&gt;head</title>
<path fill="none" stroke="#696969" d="M1189.15,-174C1200.84,-174 1213.43,-174 1224.63,-174"/>
<polygon fill="#696969" stroke="#696969" points="1224.9,-174 1224.9,-174 1224.9,-174 1224.9,-174"/>
</g>
<!-- head&#45;&gt;1 -->
<g id="edge26" class="edge">
<title>head&#45;&gt;1</title>
<path fill="none" stroke="black" d="M1241.13,-155.77C1228.05,-143.24 1209,-127.41 1189,-119 1124.37,-91.8 1102.62,-99 1032.5,-99 374.5,-99 374.5,-99 374.5,-99 313.63,-99 295.46,-96.23 239,-119 229.63,-122.78 220.32,-127.92 211.58,-133.54"/>
<polygon fill="black" stroke="black" points="209.38,-130.8 203.05,-139.3 213.29,-136.61 209.38,-130.8"/>
</g>
<!-- tail -->
<g id="node13" class="node">
<title>tail</title>
<path fill="#ccff99" stroke="black" d="M1342,-156C1342,-156 1385,-156 1385,-156 1391,-156 1397,-162 1397,-168 1397,-168 1397,-180 1397,-180 1397,-186 1391,-192 1385,-192 1385,-192 1342,-192 1342,-192 1336,-192 1330,-186 1330,-180 1330,-180 1330,-168 1330,-168 1330,-162 1336,-156 1342,-156"/>
<text text-anchor="middle" x="1363.5" y="-170.3" font-family="Times,serif" font-size="14.00">tail: 10</text>
</g>
<!-- head&#45;&gt;tail -->
<g id="edge13" class="edge">
<title>head&#45;&gt;tail</title>
<path fill="none" stroke="#696969" d="M1294.18,-174C1305.58,-174 1318.29,-174 1329.63,-174"/>
<polygon fill="#696969" stroke="#696969" points="1329.89,-174 1329.89,-174 1329.89,-174 1329.89,-174"/>
</g>
<!-- tail&#45;&gt;10 -->
<g id="edge27" class="edge">
<title>tail&#45;&gt;10</title>
<path fill="none" stroke="black" d="M1329.86,-190.35C1318.76,-195.09 1306.1,-199.62 1294,-202 1263.91,-207.91 1255.2,-207.32 1225,-202 1216.35,-200.48 1207.39,-198.06 1198.78,-195.27"/>
<polygon fill="black" stroke="black" points="1199.83,-191.93 1189.23,-191.98 1197.55,-198.54 1199.83,-191.93"/>
</g>
<!-- free -->
<g id="node14" class="node">
<title>free</title>
<path fill="#00bfff" stroke="black" d="M1445,-156C1445,-156 1484,-156 1484,-156 1490,-156 1496,-162 1496,-168 1496,-168 1496,-180 1496,-180 1496,-186 1490,-192 1484,-192 1484,-192 1445,-192 1445,-192 1439,-192 1433,-186 1433,-180 1433,-180 1433,-168 1433,-168 1433,-162 1439,-156 1445,-156"/>
<text text-anchor="middle" x="1464.5" y="-170.3" font-family="Times,serif" font-size="14.00">free: 0</text>
</g>
<!-- tail&#45;&gt;free -->
<g id="edge14" class="edge">
<title>tail&#45;&gt;free</title>
<path fill="none" stroke="#696969" d="M1397.19,-174C1408.59,-174 1421.34,-174 1432.59,-174"/>
<polygon fill="#696969" stroke="#696969" points="1432.86,-174 1432.86,-174 1432.86,-174 1432.86,-174"/>
</g>
<!-- free&#45;&gt;0 -->
<g id="edge28" class="edge">
<title>free&#45;&gt;0</title>
<path fill="none" stroke="black" d="M1451.43,-155.79C1423.21,-115.62 1348.57,-23 1260.5,-23 271.5,-23 271.5,-23 271.5,-23 200.44,-23 176.89,-29.8 119,-71 101.14,-83.71 85.71,-101.86 73.48,-119.4"/>
<polygon fill="black" stroke="black" points="70.41,-117.69 67.73,-127.94 76.22,-121.59 70.41,-117.69"/>
</g>
<!-- All -->
<g id="node15" class="node">
<title>All</title>
<path fill="#8b00ff" stroke="black" d="M12,-257C12,-257 71,-257 71,-257 77,-257 83,-263 83,-269 83,-269 83,-281 83,-281 83,-287 77,-293 71,-293 71,-293 12,-293 12,-293 6,-293 0,-287 0,-281 0,-281 0,-269 0,-269 0,-263 6,-257 12,-257"/>
<text text-anchor="middle" x="41.5" y="-271.3" font-family="Times,serif" font-size="14.00">size = 11</text>
</g>
</g>
</svg>
