<?xml version="1.0" encoding="UTF-8" standalone="no"?>
<!DOCTYPE svg PUBLIC "-//W3C//DTD SVG 1.1//EN"
 "http://www.w3.org/Graphics/SVG/1.1/DTD/svg11.dtd">
<!-- Generated by graphviz version 6.0.2 (20221011.1828)
 -->
<!-- Title: List Pages: 1 -->
<svg width="1479pt" height="257pt"
 viewBox="0.00 0.00 1479.00 256.69" xmlns="http://www.w3.org/2000/svg" xmlns:xlink="http://www.w3.org/1999/xlink">
<g id="graph0" class="graph" transform="scale(1 1) rotate(0) translate(4 252.69)">
<title>List</title>
<polygon fill="#b8860b" stroke="none" points="-4,4 -4,-252.69 1475,-252.69 1475,4 -4,4"/>
<text text-anchor="middle" x="735.5" y="-7.8" font-family="Times New Roman,serif" font-size="14.00">list_dump from function main, List/main.cpp:36</text>
<!-- 0 -->
<g id="node1" class="node">
<title>0</title>
<path fill="#8b00ff" stroke="black" d="M49.5,-73.19C49.5,-73.19 87.5,-73.19 87.5,-73.19 93.5,-73.19 99.5,-79.19 99.5,-85.19 99.5,-85.19 99.5,-153.19 99.5,-153.19 99.5,-159.19 93.5,-165.19 87.5,-165.19 87.5,-165.19 49.5,-165.19 49.5,-165.19 43.5,-165.19 37.5,-159.19 37.5,-153.19 37.5,-153.19 37.5,-85.19 37.5,-85.19 37.5,-79.19 43.5,-73.19 49.5,-73.19"/>
<text text-anchor="middle" x="68.5" y="-149.99" font-family="Times New Roman,serif" font-size="14.00">idx: 0</text>
<polyline fill="none" stroke="black" points="37.5,-142.19 99.5,-142.19"/>
<text text-anchor="middle" x="68.5" y="-126.99" font-family="Times New Roman,serif" font-size="14.00">data: 0</text>
<polyline fill="none" stroke="black" points="37.5,-119.19 99.5,-119.19"/>
<text text-anchor="middle" x="68.5" y="-103.99" font-family="Times New Roman,serif" font-size="14.00">next: 1</text>
<polyline fill="none" stroke="black" points="37.5,-96.19 99.5,-96.19"/>
<text text-anchor="middle" x="68.5" y="-80.99" font-family="Times New Roman,serif" font-size="14.00">prev: 10</text>
</g>
<!-- 0&#45;&gt;0 -->
<g id="edge1" class="edge">
<title>0&#45;&gt;0</title>
<path fill="none" stroke="#b8860b" d="M43.2,-165.28C45.38,-175.89 53.81,-183.69 68.5,-183.69 82.96,-183.69 91.36,-176.14 93.7,-165.78"/>
<polygon fill="#b8860b" stroke="#b8860b" points="93.8,-165.28 93.8,-165.28 93.8,-165.28 93.8,-165.28"/>
</g>
<!-- 1 -->
<g id="node2" class="node">
<title>1</title>
<path fill="#ccff99" stroke="black" d="M185,-73.19C185,-73.19 228,-73.19 228,-73.19 234,-73.19 240,-79.19 240,-85.19 240,-85.19 240,-153.19 240,-153.19 240,-159.19 234,-165.19 228,-165.19 228,-165.19 185,-165.19 185,-165.19 179,-165.19 173,-159.19 173,-153.19 173,-153.19 173,-85.19 173,-85.19 173,-79.19 179,-73.19 185,-73.19"/>
<text text-anchor="middle" x="206.5" y="-149.99" font-family="Times New Roman,serif" font-size="14.00">idx: 1</text>
<polyline fill="none" stroke="black" points="173,-142.19 240,-142.19"/>
<text text-anchor="middle" x="206.5" y="-126.99" font-family="Times New Roman,serif" font-size="14.00">data: 100</text>
<polyline fill="none" stroke="black" points="173,-119.19 240,-119.19"/>
<text text-anchor="middle" x="206.5" y="-103.99" font-family="Times New Roman,serif" font-size="14.00">next: 2</text>
<polyline fill="none" stroke="black" points="173,-96.19 240,-96.19"/>
<text text-anchor="middle" x="206.5" y="-80.99" font-family="Times New Roman,serif" font-size="14.00">prev: 0</text>
</g>
<!-- 0&#45;&gt;1 -->
<g id="edge2" class="edge">
<title>0&#45;&gt;1</title>
<path fill="none" stroke="#b8860b" d="M99.68,-113.47C121.2,-112.16 150.12,-112.1 172.29,-113.29"/>
<polygon fill="#b8860b" stroke="#b8860b" points="172.55,-113.31 172.55,-113.31 172.55,-113.31 172.55,-113.31"/>
</g>
<!-- 0&#45;&gt;1 -->
<g id="edge16" class="edge">
<title>0&#45;&gt;1</title>
<path fill="none" stroke="black" d="M99.68,-124.91C118.16,-126.04 142.1,-126.24 162.53,-125.51"/>
<polygon fill="black" stroke="black" points="162.71,-129.01 172.55,-125.07 162.4,-122.02 162.71,-129.01"/>
</g>
<!-- 2 -->
<g id="node3" class="node">
<title>2</title>
<path fill="#ccff99" stroke="black" d="M288,-73.19C288,-73.19 319,-73.19 319,-73.19 325,-73.19 331,-79.19 331,-85.19 331,-85.19 331,-153.19 331,-153.19 331,-159.19 325,-165.19 319,-165.19 319,-165.19 288,-165.19 288,-165.19 282,-165.19 276,-159.19 276,-153.19 276,-153.19 276,-85.19 276,-85.19 276,-79.19 282,-73.19 288,-73.19"/>
<text text-anchor="middle" x="303.5" y="-149.99" font-family="Times New Roman,serif" font-size="14.00">idx: 2</text>
<polyline fill="none" stroke="black" points="276,-142.19 331,-142.19"/>
<text text-anchor="middle" x="303.5" y="-126.99" font-family="Times New Roman,serif" font-size="14.00">data: 1</text>
<polyline fill="none" stroke="black" points="276,-119.19 331,-119.19"/>
<text text-anchor="middle" x="303.5" y="-103.99" font-family="Times New Roman,serif" font-size="14.00">next: 3</text>
<polyline fill="none" stroke="black" points="276,-96.19 331,-96.19"/>
<text text-anchor="middle" x="303.5" y="-80.99" font-family="Times New Roman,serif" font-size="14.00">prev: 1</text>
</g>
<!-- 1&#45;&gt;2 -->
<g id="edge3" class="edge">
<title>1&#45;&gt;2</title>
<path fill="none" stroke="#b8860b" d="M240.19,-112.74C251.7,-112.26 264.49,-112.36 275.47,-113.03"/>
<polygon fill="#b8860b" stroke="#b8860b" points="275.73,-113.05 275.73,-113.05 275.73,-113.05 275.73,-113.05"/>
</g>
<!-- 1&#45;&gt;2 -->
<g id="edge17" class="edge">
<title>1&#45;&gt;2</title>
<path fill="none" stroke="black" d="M240.19,-125.64C248.35,-125.98 257.14,-126.03 265.49,-125.79"/>
<polygon fill="black" stroke="black" points="265.9,-129.28 275.73,-125.33 265.58,-122.28 265.9,-129.28"/>
</g>
<!-- 3 -->
<g id="node4" class="node">
<title>3</title>
<path fill="#ccff99" stroke="black" d="M379,-73.19C379,-73.19 410,-73.19 410,-73.19 416,-73.19 422,-79.19 422,-85.19 422,-85.19 422,-153.19 422,-153.19 422,-159.19 416,-165.19 410,-165.19 410,-165.19 379,-165.19 379,-165.19 373,-165.19 367,-159.19 367,-153.19 367,-153.19 367,-85.19 367,-85.19 367,-79.19 373,-73.19 379,-73.19"/>
<text text-anchor="middle" x="394.5" y="-149.99" font-family="Times New Roman,serif" font-size="14.00">idx: 3</text>
<polyline fill="none" stroke="black" points="367,-142.19 422,-142.19"/>
<text text-anchor="middle" x="394.5" y="-126.99" font-family="Times New Roman,serif" font-size="14.00">data: 2</text>
<polyline fill="none" stroke="black" points="367,-119.19 422,-119.19"/>
<text text-anchor="middle" x="394.5" y="-103.99" font-family="Times New Roman,serif" font-size="14.00">next: 4</text>
<polyline fill="none" stroke="black" points="367,-96.19 422,-96.19"/>
<text text-anchor="middle" x="394.5" y="-80.99" font-family="Times New Roman,serif" font-size="14.00">prev: 2</text>
</g>
<!-- 2&#45;&gt;3 -->
<g id="edge4" class="edge">
<title>2&#45;&gt;3</title>
<path fill="none" stroke="#b8860b" d="M331.2,-112.94C342.38,-112.28 355.35,-112.27 366.55,-112.93"/>
<polygon fill="#b8860b" stroke="#b8860b" points="366.82,-112.94 366.82,-112.94 366.82,-112.94 366.82,-112.94"/>
</g>
<!-- 2&#45;&gt;3 -->
<g id="edge18" class="edge">
<title>2&#45;&gt;3</title>
<path fill="none" stroke="black" d="M331.2,-125.43C339.21,-125.91 348.14,-126.05 356.68,-125.85"/>
<polygon fill="black" stroke="black" points="356.97,-129.34 366.82,-125.43 356.68,-122.35 356.97,-129.34"/>
</g>
<!-- 4 -->
<g id="node5" class="node">
<title>4</title>
<path fill="#ccff99" stroke="black" d="M470,-73.19C470,-73.19 513,-73.19 513,-73.19 519,-73.19 525,-79.19 525,-85.19 525,-85.19 525,-153.19 525,-153.19 525,-159.19 519,-165.19 513,-165.19 513,-165.19 470,-165.19 470,-165.19 464,-165.19 458,-159.19 458,-153.19 458,-153.19 458,-85.19 458,-85.19 458,-79.19 464,-73.19 470,-73.19"/>
<text text-anchor="middle" x="491.5" y="-149.99" font-family="Times New Roman,serif" font-size="14.00">idx: 4</text>
<polyline fill="none" stroke="black" points="458,-142.19 525,-142.19"/>
<text text-anchor="middle" x="491.5" y="-126.99" font-family="Times New Roman,serif" font-size="14.00">data: 300</text>
<polyline fill="none" stroke="black" points="458,-119.19 525,-119.19"/>
<text text-anchor="middle" x="491.5" y="-103.99" font-family="Times New Roman,serif" font-size="14.00">next: 5</text>
<polyline fill="none" stroke="black" points="458,-96.19 525,-96.19"/>
<text text-anchor="middle" x="491.5" y="-80.99" font-family="Times New Roman,serif" font-size="14.00">prev: 3</text>
</g>
<!-- 3&#45;&gt;4 -->
<g id="edge5" class="edge">
<title>3&#45;&gt;4</title>
<path fill="none" stroke="#b8860b" d="M422.22,-113.05C433.21,-112.36 446.07,-112.25 457.63,-112.73"/>
<polygon fill="#b8860b" stroke="#b8860b" points="457.91,-112.74 457.91,-112.74 457.91,-112.74 457.91,-112.74"/>
</g>
<!-- 3&#45;&gt;4 -->
<g id="edge19" class="edge">
<title>3&#45;&gt;4</title>
<path fill="none" stroke="black" d="M422.22,-125.33C430.18,-125.83 439.12,-126.02 447.84,-125.91"/>
<polygon fill="black" stroke="black" points="448.01,-129.4 457.91,-125.63 447.82,-122.41 448.01,-129.4"/>
</g>
<!-- 5 -->
<g id="node6" class="node">
<title>5</title>
<path fill="#ccff99" stroke="black" d="M573,-73.19C573,-73.19 604,-73.19 604,-73.19 610,-73.19 616,-79.19 616,-85.19 616,-85.19 616,-153.19 616,-153.19 616,-159.19 610,-165.19 604,-165.19 604,-165.19 573,-165.19 573,-165.19 567,-165.19 561,-159.19 561,-153.19 561,-153.19 561,-85.19 561,-85.19 561,-79.19 567,-73.19 573,-73.19"/>
<text text-anchor="middle" x="588.5" y="-149.99" font-family="Times New Roman,serif" font-size="14.00">idx: 5</text>
<polyline fill="none" stroke="black" points="561,-142.19 616,-142.19"/>
<text text-anchor="middle" x="588.5" y="-126.99" font-family="Times New Roman,serif" font-size="14.00">data: 3</text>
<polyline fill="none" stroke="black" points="561,-119.19 616,-119.19"/>
<text text-anchor="middle" x="588.5" y="-103.99" font-family="Times New Roman,serif" font-size="14.00">next: 6</text>
<polyline fill="none" stroke="black" points="561,-96.19 616,-96.19"/>
<text text-anchor="middle" x="588.5" y="-80.99" font-family="Times New Roman,serif" font-size="14.00">prev: 4</text>
</g>
<!-- 4&#45;&gt;5 -->
<g id="edge6" class="edge">
<title>4&#45;&gt;5</title>
<path fill="none" stroke="#b8860b" d="M525.19,-112.74C536.7,-112.26 549.49,-112.36 560.47,-113.03"/>
<polygon fill="#b8860b" stroke="#b8860b" points="560.73,-113.05 560.73,-113.05 560.73,-113.05 560.73,-113.05"/>
</g>
<!-- 4&#45;&gt;5 -->
<g id="edge20" class="edge">
<title>4&#45;&gt;5</title>
<path fill="none" stroke="black" d="M525.19,-125.64C533.35,-125.98 542.14,-126.03 550.49,-125.79"/>
<polygon fill="black" stroke="black" points="550.9,-129.28 560.73,-125.33 550.58,-122.28 550.9,-129.28"/>
</g>
<!-- 6 -->
<g id="node7" class="node">
<title>6</title>
<path fill="#ccff99" stroke="black" d="M664,-73.19C664,-73.19 707,-73.19 707,-73.19 713,-73.19 719,-79.19 719,-85.19 719,-85.19 719,-153.19 719,-153.19 719,-159.19 713,-165.19 707,-165.19 707,-165.19 664,-165.19 664,-165.19 658,-165.19 652,-159.19 652,-153.19 652,-153.19 652,-85.19 652,-85.19 652,-79.19 658,-73.19 664,-73.19"/>
<text text-anchor="middle" x="685.5" y="-149.99" font-family="Times New Roman,serif" font-size="14.00">idx: 6</text>
<polyline fill="none" stroke="black" points="652,-142.19 719,-142.19"/>
<text text-anchor="middle" x="685.5" y="-126.99" font-family="Times New Roman,serif" font-size="14.00">data: 200</text>
<polyline fill="none" stroke="black" points="652,-119.19 719,-119.19"/>
<text text-anchor="middle" x="685.5" y="-103.99" font-family="Times New Roman,serif" font-size="14.00">next: 7</text>
<polyline fill="none" stroke="black" points="652,-96.19 719,-96.19"/>
<text text-anchor="middle" x="685.5" y="-80.99" font-family="Times New Roman,serif" font-size="14.00">prev: 5</text>
</g>
<!-- 5&#45;&gt;6 -->
<g id="edge7" class="edge">
<title>5&#45;&gt;6</title>
<path fill="none" stroke="#b8860b" d="M616.22,-113.05C627.21,-112.36 640.07,-112.25 651.63,-112.73"/>
<polygon fill="#b8860b" stroke="#b8860b" points="651.91,-112.74 651.91,-112.74 651.91,-112.74 651.91,-112.74"/>
</g>
<!-- 5&#45;&gt;6 -->
<g id="edge21" class="edge">
<title>5&#45;&gt;6</title>
<path fill="none" stroke="black" d="M616.22,-125.33C624.18,-125.83 633.12,-126.02 641.84,-125.91"/>
<polygon fill="black" stroke="black" points="642.01,-129.4 651.91,-125.63 641.82,-122.41 642.01,-129.4"/>
</g>
<!-- 7 -->
<g id="node8" class="node">
<title>7</title>
<path fill="#ccff99" stroke="black" d="M767,-73.19C767,-73.19 798,-73.19 798,-73.19 804,-73.19 810,-79.19 810,-85.19 810,-85.19 810,-153.19 810,-153.19 810,-159.19 804,-165.19 798,-165.19 798,-165.19 767,-165.19 767,-165.19 761,-165.19 755,-159.19 755,-153.19 755,-153.19 755,-85.19 755,-85.19 755,-79.19 761,-73.19 767,-73.19"/>
<text text-anchor="middle" x="782.5" y="-149.99" font-family="Times New Roman,serif" font-size="14.00">idx: 7</text>
<polyline fill="none" stroke="black" points="755,-142.19 810,-142.19"/>
<text text-anchor="middle" x="782.5" y="-126.99" font-family="Times New Roman,serif" font-size="14.00">data: 4</text>
<polyline fill="none" stroke="black" points="755,-119.19 810,-119.19"/>
<text text-anchor="middle" x="782.5" y="-103.99" font-family="Times New Roman,serif" font-size="14.00">next: 8</text>
<polyline fill="none" stroke="black" points="755,-96.19 810,-96.19"/>
<text text-anchor="middle" x="782.5" y="-80.99" font-family="Times New Roman,serif" font-size="14.00">prev: 6</text>
</g>
<!-- 6&#45;&gt;7 -->
<g id="edge8" class="edge">
<title>6&#45;&gt;7</title>
<path fill="none" stroke="#b8860b" d="M719.19,-112.74C730.7,-112.26 743.49,-112.36 754.47,-113.03"/>
<polygon fill="#b8860b" stroke="#b8860b" points="754.73,-113.05 754.73,-113.05 754.73,-113.05 754.73,-113.05"/>
</g>
<!-- 6&#45;&gt;7 -->
<g id="edge22" class="edge">
<title>6&#45;&gt;7</title>
<path fill="none" stroke="black" d="M719.19,-125.64C727.35,-125.98 736.14,-126.03 744.49,-125.79"/>
<polygon fill="black" stroke="black" points="744.9,-129.28 754.73,-125.33 744.58,-122.28 744.9,-129.28"/>
</g>
<!-- 8 -->
<g id="node9" class="node">
<title>8</title>
<path fill="#ccff99" stroke="black" d="M858,-73.19C858,-73.19 889,-73.19 889,-73.19 895,-73.19 901,-79.19 901,-85.19 901,-85.19 901,-153.19 901,-153.19 901,-159.19 895,-165.19 889,-165.19 889,-165.19 858,-165.19 858,-165.19 852,-165.19 846,-159.19 846,-153.19 846,-153.19 846,-85.19 846,-85.19 846,-79.19 852,-73.19 858,-73.19"/>
<text text-anchor="middle" x="873.5" y="-149.99" font-family="Times New Roman,serif" font-size="14.00">idx: 8</text>
<polyline fill="none" stroke="black" points="846,-142.19 901,-142.19"/>
<text text-anchor="middle" x="873.5" y="-126.99" font-family="Times New Roman,serif" font-size="14.00">data: 5</text>
<polyline fill="none" stroke="black" points="846,-119.19 901,-119.19"/>
<text text-anchor="middle" x="873.5" y="-103.99" font-family="Times New Roman,serif" font-size="14.00">next: 9</text>
<polyline fill="none" stroke="black" points="846,-96.19 901,-96.19"/>
<text text-anchor="middle" x="873.5" y="-80.99" font-family="Times New Roman,serif" font-size="14.00">prev: 7</text>
</g>
<!-- 7&#45;&gt;8 -->
<g id="edge9" class="edge">
<title>7&#45;&gt;8</title>
<path fill="none" stroke="#b8860b" d="M810.2,-112.94C821.38,-112.28 834.35,-112.27 845.55,-112.93"/>
<polygon fill="#b8860b" stroke="#b8860b" points="845.82,-112.94 845.82,-112.94 845.82,-112.94 845.82,-112.94"/>
</g>
<!-- 7&#45;&gt;8 -->
<g id="edge23" class="edge">
<title>7&#45;&gt;8</title>
<path fill="none" stroke="black" d="M810.2,-125.43C818.21,-125.91 827.14,-126.05 835.68,-125.85"/>
<polygon fill="black" stroke="black" points="835.97,-129.34 845.82,-125.43 835.68,-122.35 835.97,-129.34"/>
</g>
<!-- 9 -->
<g id="node10" class="node">
<title>9</title>
<path fill="#ccff99" stroke="black" d="M949,-73.19C949,-73.19 985,-73.19 985,-73.19 991,-73.19 997,-79.19 997,-85.19 997,-85.19 997,-153.19 997,-153.19 997,-159.19 991,-165.19 985,-165.19 985,-165.19 949,-165.19 949,-165.19 943,-165.19 937,-159.19 937,-153.19 937,-153.19 937,-85.19 937,-85.19 937,-79.19 943,-73.19 949,-73.19"/>
<text text-anchor="middle" x="967" y="-149.99" font-family="Times New Roman,serif" font-size="14.00">idx: 9</text>
<polyline fill="none" stroke="black" points="937,-142.19 997,-142.19"/>
<text text-anchor="middle" x="967" y="-126.99" font-family="Times New Roman,serif" font-size="14.00">data: 6</text>
<polyline fill="none" stroke="black" points="937,-119.19 997,-119.19"/>
<text text-anchor="middle" x="967" y="-103.99" font-family="Times New Roman,serif" font-size="14.00">next: 10</text>
<polyline fill="none" stroke="black" points="937,-96.19 997,-96.19"/>
<text text-anchor="middle" x="967" y="-80.99" font-family="Times New Roman,serif" font-size="14.00">prev: 8</text>
</g>
<!-- 8&#45;&gt;9 -->
<g id="edge10" class="edge">
<title>8&#45;&gt;9</title>
<path fill="none" stroke="#b8860b" d="M901.46,-112.97C912.44,-112.31 925.17,-112.26 936.41,-112.83"/>
<polygon fill="#b8860b" stroke="#b8860b" points="936.68,-112.84 936.68,-112.84 936.68,-112.84 936.68,-112.84"/>
</g>
<!-- 8&#45;&gt;9 -->
<g id="edge24" class="edge">
<title>8&#45;&gt;9</title>
<path fill="none" stroke="black" d="M901.46,-125.41C909.33,-125.88 918.1,-126.04 926.57,-125.88"/>
<polygon fill="black" stroke="black" points="926.8,-129.38 936.68,-125.54 926.57,-122.38 926.8,-129.38"/>
</g>
<!-- 10 -->
<g id="node11" class="node">
<title>10</title>
<path fill="#ccff99" stroke="black" d="M1045,-73.19C1045,-73.19 1088,-73.19 1088,-73.19 1094,-73.19 1100,-79.19 1100,-85.19 1100,-85.19 1100,-153.19 1100,-153.19 1100,-159.19 1094,-165.19 1088,-165.19 1088,-165.19 1045,-165.19 1045,-165.19 1039,-165.19 1033,-159.19 1033,-153.19 1033,-153.19 1033,-85.19 1033,-85.19 1033,-79.19 1039,-73.19 1045,-73.19"/>
<text text-anchor="middle" x="1066.5" y="-149.99" font-family="Times New Roman,serif" font-size="14.00">idx: 10</text>
<polyline fill="none" stroke="black" points="1033,-142.19 1100,-142.19"/>
<text text-anchor="middle" x="1066.5" y="-126.99" font-family="Times New Roman,serif" font-size="14.00">data: 400</text>
<polyline fill="none" stroke="black" points="1033,-119.19 1100,-119.19"/>
<text text-anchor="middle" x="1066.5" y="-103.99" font-family="Times New Roman,serif" font-size="14.00">next: 0</text>
<polyline fill="none" stroke="black" points="1033,-96.19 1100,-96.19"/>
<text text-anchor="middle" x="1066.5" y="-80.99" font-family="Times New Roman,serif" font-size="14.00">prev: 9</text>
</g>
<!-- 9&#45;&gt;10 -->
<g id="edge11" class="edge">
<title>9&#45;&gt;10</title>
<path fill="none" stroke="#b8860b" d="M997.25,-112.94C1008.38,-112.34 1021.14,-112.28 1032.59,-112.77"/>
<polygon fill="#b8860b" stroke="#b8860b" points="1032.86,-112.78 1032.86,-112.78 1032.86,-112.78 1032.86,-112.78"/>
</g>
<!-- 9&#45;&gt;10 -->
<g id="edge25" class="edge">
<title>9&#45;&gt;10</title>
<path fill="none" stroke="black" d="M997.25,-125.43C1005.23,-125.87 1014.04,-126.02 1022.6,-125.9"/>
<polygon fill="black" stroke="black" points="1022.96,-129.39 1032.86,-125.6 1022.76,-122.39 1022.96,-129.39"/>
</g>
<!-- 10&#45;&gt;0 -->
<g id="edge26" class="edge">
<title>10&#45;&gt;0</title>
<path fill="none" stroke="black" d="M1032.72,-86.48C1022.11,-77.61 1009.77,-68.88 997,-63.19 946.68,-40.74 929.6,-44.19 874.5,-44.19 302.5,-44.19 302.5,-44.19 302.5,-44.19 244.33,-44.19 228.2,-44.85 173,-63.19 150.57,-70.64 127.28,-82.79 108.48,-93.88"/>
<polygon fill="black" stroke="black" points="106.67,-90.88 99.91,-99.04 110.29,-96.88 106.67,-90.88"/>
</g>
<!-- 11 -->
<g id="node12" class="node">
<title>11</title>
<path fill="#40e0d0" stroke="black" d="M1148,-73.19C1148,-73.19 1183,-73.19 1183,-73.19 1189,-73.19 1195,-79.19 1195,-85.19 1195,-85.19 1195,-153.19 1195,-153.19 1195,-159.19 1189,-165.19 1183,-165.19 1183,-165.19 1148,-165.19 1148,-165.19 1142,-165.19 1136,-159.19 1136,-153.19 1136,-153.19 1136,-85.19 1136,-85.19 1136,-79.19 1142,-73.19 1148,-73.19"/>
<text text-anchor="middle" x="1165.5" y="-149.99" font-family="Times New Roman,serif" font-size="14.00">idx: 11</text>
<polyline fill="none" stroke="black" points="1136,-142.19 1195,-142.19"/>
<text text-anchor="middle" x="1165.5" y="-126.99" font-family="Times New Roman,serif" font-size="14.00">data: 0</text>
<polyline fill="none" stroke="black" points="1136,-119.19 1195,-119.19"/>
<text text-anchor="middle" x="1165.5" y="-103.99" font-family="Times New Roman,serif" font-size="14.00">next: 0</text>
<polyline fill="none" stroke="black" points="1136,-96.19 1195,-96.19"/>
<text text-anchor="middle" x="1165.5" y="-80.99" font-family="Times New Roman,serif" font-size="14.00">prev: &#45;1</text>
</g>
<!-- 10&#45;&gt;11 -->
<g id="edge12" class="edge">
<title>10&#45;&gt;11</title>
<path fill="none" stroke="#b8860b" d="M1100.07,-119.19C1111.54,-119.19 1124.34,-119.19 1135.5,-119.19"/>
<polygon fill="#b8860b" stroke="#b8860b" points="1135.76,-119.19 1135.76,-119.19 1135.76,-119.19 1135.76,-119.19"/>
</g>
<!-- 11&#45;&gt;0 -->
<g id="edge27" class="edge">
<title>11&#45;&gt;0</title>
<path fill="none" stroke="black" d="M1140.75,-165.34C1130.32,-181.27 1116.63,-197.72 1100,-208.19 1049.54,-239.95 1027.63,-232.19 968,-232.19 302.5,-232.19 302.5,-232.19 302.5,-232.19 227.74,-232.19 151.8,-184.51 107.75,-151.1"/>
<polygon fill="black" stroke="black" points="109.69,-148.18 99.64,-144.83 105.41,-153.71 109.69,-148.18"/>
</g>
<!-- head -->
<g id="node13" class="node">
<title>head</title>
<path fill="#ccff99" stroke="black" d="M1243,-101.19C1243,-101.19 1275,-101.19 1275,-101.19 1281,-101.19 1287,-107.19 1287,-113.19 1287,-113.19 1287,-125.19 1287,-125.19 1287,-131.19 1281,-137.19 1275,-137.19 1275,-137.19 1243,-137.19 1243,-137.19 1237,-137.19 1231,-131.19 1231,-125.19 1231,-125.19 1231,-113.19 1231,-113.19 1231,-107.19 1237,-101.19 1243,-101.19"/>
<text text-anchor="middle" x="1259" y="-115.49" font-family="Times New Roman,serif" font-size="14.00">head: 1</text>
</g>
<!-- 11&#45;&gt;head -->
<g id="edge13" class="edge">
<title>11&#45;&gt;head</title>
<path fill="none" stroke="#b8860b" d="M1195.45,-119.19C1206.67,-119.19 1219.46,-119.19 1230.53,-119.19"/>
<polygon fill="#b8860b" stroke="#b8860b" points="1230.79,-119.19 1230.79,-119.19 1230.79,-119.19 1230.79,-119.19"/>
</g>
<!-- head&#45;&gt;1 -->
<g id="edge28" class="edge">
<title>head&#45;&gt;1</title>
<path fill="none" stroke="black" d="M1243.93,-100.99C1232.41,-87.69 1214.83,-70.73 1195,-63.19 1170.49,-53.87 1157.21,-47.77 1136,-63.19 1094.05,-93.68 1139.54,-140.63 1100,-174.19 1054.76,-212.59 1027.34,-194.19 968,-194.19 393.5,-194.19 393.5,-194.19 393.5,-194.19 340.53,-194.19 324.31,-195.91 276,-174.19 266.3,-169.83 256.81,-163.76 248.12,-157.25"/>
<polygon fill="black" stroke="black" points="250.08,-154.34 240.06,-150.9 245.75,-159.84 250.08,-154.34"/>
</g>
<!-- tail -->
<g id="node14" class="node">
<title>tail</title>
<path fill="#ccff99" stroke="black" d="M1335,-101.19C1335,-101.19 1365,-101.19 1365,-101.19 1371,-101.19 1377,-107.19 1377,-113.19 1377,-113.19 1377,-125.19 1377,-125.19 1377,-131.19 1371,-137.19 1365,-137.19 1365,-137.19 1335,-137.19 1335,-137.19 1329,-137.19 1323,-131.19 1323,-125.19 1323,-125.19 1323,-113.19 1323,-113.19 1323,-107.19 1329,-101.19 1335,-101.19"/>
<text text-anchor="middle" x="1350" y="-115.49" font-family="Times New Roman,serif" font-size="14.00">tail: 10</text>
</g>
<!-- head&#45;&gt;tail -->
<g id="edge14" class="edge">
<title>head&#45;&gt;tail</title>
<path fill="none" stroke="#b8860b" d="M1287.19,-119.19C1298.45,-119.19 1311.46,-119.19 1322.63,-119.19"/>
<polygon fill="#b8860b" stroke="#b8860b" points="1322.89,-119.19 1322.89,-119.19 1322.89,-119.19 1322.89,-119.19"/>
</g>
<!-- tail&#45;&gt;10 -->
<g id="edge29" class="edge">
<title>tail&#45;&gt;10</title>
<path fill="none" stroke="black" d="M1326.71,-101.17C1298.18,-79.39 1246.3,-43.95 1195,-30.19 1169.67,-23.4 1159.53,-18.61 1136,-30.19 1120.64,-37.75 1107.76,-50.59 1097.47,-64.2"/>
<polygon fill="black" stroke="black" points="1094.34,-62.55 1091.39,-72.73 1100.05,-66.61 1094.34,-62.55"/>
</g>
<!-- free -->
<g id="node15" class="node">
<title>free</title>
<path fill="#40e0d0" stroke="black" d="M1425,-101.19C1425,-101.19 1459,-101.19 1459,-101.19 1465,-101.19 1471,-107.19 1471,-113.19 1471,-113.19 1471,-125.19 1471,-125.19 1471,-131.19 1465,-137.19 1459,-137.19 1459,-137.19 1425,-137.19 1425,-137.19 1419,-137.19 1413,-131.19 1413,-125.19 1413,-125.19 1413,-113.19 1413,-113.19 1413,-107.19 1419,-101.19 1425,-101.19"/>
<text text-anchor="middle" x="1442" y="-115.49" font-family="Times New Roman,serif" font-size="14.00">free: 11</text>
</g>
<!-- tail&#45;&gt;free -->
<g id="edge15" class="edge">
<title>tail&#45;&gt;free</title>
<path fill="none" stroke="#b8860b" d="M1377.03,-119.19C1388.16,-119.19 1401.18,-119.19 1412.56,-119.19"/>
<polygon fill="#b8860b" stroke="#b8860b" points="1412.82,-119.19 1412.82,-119.19 1412.82,-119.19 1412.82,-119.19"/>
</g>
<!-- free&#45;&gt;11 -->
<g id="edge30" class="edge">
<title>free&#45;&gt;11</title>
<path fill="none" stroke="black" d="M1412.79,-133.95C1401.91,-138.87 1389.17,-143.73 1377,-146.19 1313.4,-159.06 1294.62,-158.97 1231,-146.19 1222.18,-144.42 1213.06,-141.41 1204.56,-138.03"/>
<polygon fill="black" stroke="black" points="1205.84,-134.77 1195.26,-134.1 1203.11,-141.22 1205.84,-134.77"/>
</g>
<!-- All -->
<g id="node16" class="node">
<title>All</title>
<path fill="#ff0000" stroke="black" d="M12,-202.19C12,-202.19 125,-202.19 125,-202.19 131,-202.19 137,-208.19 137,-214.19 137,-214.19 137,-236.19 137,-236.19 137,-242.19 131,-248.19 125,-248.19 125,-248.19 12,-248.19 12,-248.19 6,-248.19 0,-242.19 0,-236.19 0,-236.19 0,-214.19 0,-214.19 0,-208.19 6,-202.19 12,-202.19"/>
<text text-anchor="middle" x="68.5" y="-232.99" font-family="Times New Roman,serif" font-size="14.00">size = 12</text>
<polyline fill="none" stroke="black" points="0,-225.19 137,-225.19"/>
<text text-anchor="middle" x="68.5" y="-209.99" font-family="Times New Roman,serif" font-size="14.00">data_ptr = 011BE220</text>
</g>
</g>
</svg>
