<?xml version="1.0" encoding="UTF-8" standalone="no"?>
<!DOCTYPE svg PUBLIC "-//W3C//DTD SVG 1.1//EN"
 "http://www.w3.org/Graphics/SVG/1.1/DTD/svg11.dtd">
<!-- Generated by graphviz version 6.0.2 (20221011.1828)
 -->
<!-- Title: List Pages: 1 -->
<svg width="1481pt" height="257pt"
 viewBox="0.00 0.00 1481.00 256.69" xmlns="http://www.w3.org/2000/svg" xmlns:xlink="http://www.w3.org/1999/xlink">
<g id="graph0" class="graph" transform="scale(1 1) rotate(0) translate(4 252.69)">
<title>List</title>
<polygon fill="#b8860b" stroke="none" points="-4,4 -4,-252.69 1477,-252.69 1477,4 -4,4"/>
<text text-anchor="middle" x="736.5" y="-7.8" font-family="Times New Roman,serif" font-size="14.00">list_dump from function main, List/main.cpp:24</text>
<!-- 0 -->
<g id="node1" class="node">
<title>0</title>
<path fill="#8b00ff" stroke="black" d="M50.5,-73.19C50.5,-73.19 88.5,-73.19 88.5,-73.19 94.5,-73.19 100.5,-79.19 100.5,-85.19 100.5,-85.19 100.5,-153.19 100.5,-153.19 100.5,-159.19 94.5,-165.19 88.5,-165.19 88.5,-165.19 50.5,-165.19 50.5,-165.19 44.5,-165.19 38.5,-159.19 38.5,-153.19 38.5,-153.19 38.5,-85.19 38.5,-85.19 38.5,-79.19 44.5,-73.19 50.5,-73.19"/>
<text text-anchor="middle" x="69.5" y="-149.99" font-family="Times New Roman,serif" font-size="14.00">idx: 0</text>
<polyline fill="none" stroke="black" points="38.5,-142.19 100.5,-142.19"/>
<text text-anchor="middle" x="69.5" y="-126.99" font-family="Times New Roman,serif" font-size="14.00">data: 0</text>
<polyline fill="none" stroke="black" points="38.5,-119.19 100.5,-119.19"/>
<text text-anchor="middle" x="69.5" y="-103.99" font-family="Times New Roman,serif" font-size="14.00">next: 1</text>
<polyline fill="none" stroke="black" points="38.5,-96.19 100.5,-96.19"/>
<text text-anchor="middle" x="69.5" y="-80.99" font-family="Times New Roman,serif" font-size="14.00">prev: 10</text>
</g>
<!-- 0&#45;&gt;0 -->
<g id="edge1" class="edge">
<title>0&#45;&gt;0</title>
<path fill="none" stroke="#b8860b" d="M44.01,-165.28C46.21,-175.89 54.7,-183.69 69.5,-183.69 84.06,-183.69 92.52,-176.14 94.88,-165.78"/>
<polygon fill="#b8860b" stroke="#b8860b" points="94.99,-165.28 94.99,-165.28 94.99,-165.28 94.99,-165.28"/>
</g>
<!-- 1 -->
<g id="node2" class="node">
<title>1</title>
<path fill="#ccff99" stroke="black" d="M187,-73.19C187,-73.19 230,-73.19 230,-73.19 236,-73.19 242,-79.19 242,-85.19 242,-85.19 242,-153.19 242,-153.19 242,-159.19 236,-165.19 230,-165.19 230,-165.19 187,-165.19 187,-165.19 181,-165.19 175,-159.19 175,-153.19 175,-153.19 175,-85.19 175,-85.19 175,-79.19 181,-73.19 187,-73.19"/>
<text text-anchor="middle" x="208.5" y="-149.99" font-family="Times New Roman,serif" font-size="14.00">idx: 1</text>
<polyline fill="none" stroke="black" points="175,-142.19 242,-142.19"/>
<text text-anchor="middle" x="208.5" y="-126.99" font-family="Times New Roman,serif" font-size="14.00">data: 100</text>
<polyline fill="none" stroke="black" points="175,-119.19 242,-119.19"/>
<text text-anchor="middle" x="208.5" y="-103.99" font-family="Times New Roman,serif" font-size="14.00">next: 2</text>
<polyline fill="none" stroke="black" points="175,-96.19 242,-96.19"/>
<text text-anchor="middle" x="208.5" y="-80.99" font-family="Times New Roman,serif" font-size="14.00">prev: 0</text>
</g>
<!-- 0&#45;&gt;1 -->
<g id="edge2" class="edge">
<title>0&#45;&gt;1</title>
<path fill="none" stroke="#b8860b" d="M100.57,-113.49C122.38,-112.15 151.87,-112.09 174.37,-113.31"/>
<polygon fill="#b8860b" stroke="#b8860b" points="174.63,-113.33 174.63,-113.33 174.63,-113.33 174.63,-113.33"/>
</g>
<!-- 0&#45;&gt;1 -->
<g id="edge16" class="edge">
<title>0&#45;&gt;1</title>
<path fill="none" stroke="black" d="M100.57,-124.89C119.3,-126.04 143.7,-126.24 164.46,-125.51"/>
<polygon fill="black" stroke="black" points="164.8,-128.99 174.63,-125.05 164.48,-122 164.8,-128.99"/>
</g>
<!-- 2 -->
<g id="node3" class="node">
<title>2</title>
<path fill="#ccff99" stroke="black" d="M290,-73.19C290,-73.19 321,-73.19 321,-73.19 327,-73.19 333,-79.19 333,-85.19 333,-85.19 333,-153.19 333,-153.19 333,-159.19 327,-165.19 321,-165.19 321,-165.19 290,-165.19 290,-165.19 284,-165.19 278,-159.19 278,-153.19 278,-153.19 278,-85.19 278,-85.19 278,-79.19 284,-73.19 290,-73.19"/>
<text text-anchor="middle" x="305.5" y="-149.99" font-family="Times New Roman,serif" font-size="14.00">idx: 2</text>
<polyline fill="none" stroke="black" points="278,-142.19 333,-142.19"/>
<text text-anchor="middle" x="305.5" y="-126.99" font-family="Times New Roman,serif" font-size="14.00">data: 1</text>
<polyline fill="none" stroke="black" points="278,-119.19 333,-119.19"/>
<text text-anchor="middle" x="305.5" y="-103.99" font-family="Times New Roman,serif" font-size="14.00">next: 3</text>
<polyline fill="none" stroke="black" points="278,-96.19 333,-96.19"/>
<text text-anchor="middle" x="305.5" y="-80.99" font-family="Times New Roman,serif" font-size="14.00">prev: 1</text>
</g>
<!-- 1&#45;&gt;2 -->
<g id="edge3" class="edge">
<title>1&#45;&gt;2</title>
<path fill="none" stroke="#b8860b" d="M242.19,-112.74C253.7,-112.26 266.49,-112.36 277.47,-113.03"/>
<polygon fill="#b8860b" stroke="#b8860b" points="277.73,-113.05 277.73,-113.05 277.73,-113.05 277.73,-113.05"/>
</g>
<!-- 1&#45;&gt;2 -->
<g id="edge17" class="edge">
<title>1&#45;&gt;2</title>
<path fill="none" stroke="black" d="M242.19,-125.64C250.35,-125.98 259.14,-126.03 267.49,-125.79"/>
<polygon fill="black" stroke="black" points="267.9,-129.28 277.73,-125.33 267.58,-122.28 267.9,-129.28"/>
</g>
<!-- 3 -->
<g id="node4" class="node">
<title>3</title>
<path fill="#ccff99" stroke="black" d="M381,-73.19C381,-73.19 412,-73.19 412,-73.19 418,-73.19 424,-79.19 424,-85.19 424,-85.19 424,-153.19 424,-153.19 424,-159.19 418,-165.19 412,-165.19 412,-165.19 381,-165.19 381,-165.19 375,-165.19 369,-159.19 369,-153.19 369,-153.19 369,-85.19 369,-85.19 369,-79.19 375,-73.19 381,-73.19"/>
<text text-anchor="middle" x="396.5" y="-149.99" font-family="Times New Roman,serif" font-size="14.00">idx: 3</text>
<polyline fill="none" stroke="black" points="369,-142.19 424,-142.19"/>
<text text-anchor="middle" x="396.5" y="-126.99" font-family="Times New Roman,serif" font-size="14.00">data: 2</text>
<polyline fill="none" stroke="black" points="369,-119.19 424,-119.19"/>
<text text-anchor="middle" x="396.5" y="-103.99" font-family="Times New Roman,serif" font-size="14.00">next: 4</text>
<polyline fill="none" stroke="black" points="369,-96.19 424,-96.19"/>
<text text-anchor="middle" x="396.5" y="-80.99" font-family="Times New Roman,serif" font-size="14.00">prev: 2</text>
</g>
<!-- 2&#45;&gt;3 -->
<g id="edge4" class="edge">
<title>2&#45;&gt;3</title>
<path fill="none" stroke="#b8860b" d="M333.2,-112.94C344.38,-112.28 357.35,-112.27 368.55,-112.93"/>
<polygon fill="#b8860b" stroke="#b8860b" points="368.82,-112.94 368.82,-112.94 368.82,-112.94 368.82,-112.94"/>
</g>
<!-- 2&#45;&gt;3 -->
<g id="edge18" class="edge">
<title>2&#45;&gt;3</title>
<path fill="none" stroke="black" d="M333.2,-125.43C341.21,-125.91 350.14,-126.05 358.68,-125.85"/>
<polygon fill="black" stroke="black" points="358.97,-129.34 368.82,-125.43 358.68,-122.35 358.97,-129.34"/>
</g>
<!-- 4 -->
<g id="node5" class="node">
<title>4</title>
<path fill="#ccff99" stroke="black" d="M472,-73.19C472,-73.19 515,-73.19 515,-73.19 521,-73.19 527,-79.19 527,-85.19 527,-85.19 527,-153.19 527,-153.19 527,-159.19 521,-165.19 515,-165.19 515,-165.19 472,-165.19 472,-165.19 466,-165.19 460,-159.19 460,-153.19 460,-153.19 460,-85.19 460,-85.19 460,-79.19 466,-73.19 472,-73.19"/>
<text text-anchor="middle" x="493.5" y="-149.99" font-family="Times New Roman,serif" font-size="14.00">idx: 4</text>
<polyline fill="none" stroke="black" points="460,-142.19 527,-142.19"/>
<text text-anchor="middle" x="493.5" y="-126.99" font-family="Times New Roman,serif" font-size="14.00">data: 300</text>
<polyline fill="none" stroke="black" points="460,-119.19 527,-119.19"/>
<text text-anchor="middle" x="493.5" y="-103.99" font-family="Times New Roman,serif" font-size="14.00">next: 5</text>
<polyline fill="none" stroke="black" points="460,-96.19 527,-96.19"/>
<text text-anchor="middle" x="493.5" y="-80.99" font-family="Times New Roman,serif" font-size="14.00">prev: 3</text>
</g>
<!-- 3&#45;&gt;4 -->
<g id="edge5" class="edge">
<title>3&#45;&gt;4</title>
<path fill="none" stroke="#b8860b" d="M424.22,-113.05C435.21,-112.36 448.07,-112.25 459.63,-112.73"/>
<polygon fill="#b8860b" stroke="#b8860b" points="459.91,-112.74 459.91,-112.74 459.91,-112.74 459.91,-112.74"/>
</g>
<!-- 3&#45;&gt;4 -->
<g id="edge19" class="edge">
<title>3&#45;&gt;4</title>
<path fill="none" stroke="black" d="M424.22,-125.33C432.18,-125.83 441.12,-126.02 449.84,-125.91"/>
<polygon fill="black" stroke="black" points="450.01,-129.4 459.91,-125.63 449.82,-122.41 450.01,-129.4"/>
</g>
<!-- 5 -->
<g id="node6" class="node">
<title>5</title>
<path fill="#ccff99" stroke="black" d="M575,-73.19C575,-73.19 606,-73.19 606,-73.19 612,-73.19 618,-79.19 618,-85.19 618,-85.19 618,-153.19 618,-153.19 618,-159.19 612,-165.19 606,-165.19 606,-165.19 575,-165.19 575,-165.19 569,-165.19 563,-159.19 563,-153.19 563,-153.19 563,-85.19 563,-85.19 563,-79.19 569,-73.19 575,-73.19"/>
<text text-anchor="middle" x="590.5" y="-149.99" font-family="Times New Roman,serif" font-size="14.00">idx: 5</text>
<polyline fill="none" stroke="black" points="563,-142.19 618,-142.19"/>
<text text-anchor="middle" x="590.5" y="-126.99" font-family="Times New Roman,serif" font-size="14.00">data: 3</text>
<polyline fill="none" stroke="black" points="563,-119.19 618,-119.19"/>
<text text-anchor="middle" x="590.5" y="-103.99" font-family="Times New Roman,serif" font-size="14.00">next: 6</text>
<polyline fill="none" stroke="black" points="563,-96.19 618,-96.19"/>
<text text-anchor="middle" x="590.5" y="-80.99" font-family="Times New Roman,serif" font-size="14.00">prev: 4</text>
</g>
<!-- 4&#45;&gt;5 -->
<g id="edge6" class="edge">
<title>4&#45;&gt;5</title>
<path fill="none" stroke="#b8860b" d="M527.19,-112.74C538.7,-112.26 551.49,-112.36 562.47,-113.03"/>
<polygon fill="#b8860b" stroke="#b8860b" points="562.73,-113.05 562.73,-113.05 562.73,-113.05 562.73,-113.05"/>
</g>
<!-- 4&#45;&gt;5 -->
<g id="edge20" class="edge">
<title>4&#45;&gt;5</title>
<path fill="none" stroke="black" d="M527.19,-125.64C535.35,-125.98 544.14,-126.03 552.49,-125.79"/>
<polygon fill="black" stroke="black" points="552.9,-129.28 562.73,-125.33 552.58,-122.28 552.9,-129.28"/>
</g>
<!-- 6 -->
<g id="node7" class="node">
<title>6</title>
<path fill="#ccff99" stroke="black" d="M666,-73.19C666,-73.19 709,-73.19 709,-73.19 715,-73.19 721,-79.19 721,-85.19 721,-85.19 721,-153.19 721,-153.19 721,-159.19 715,-165.19 709,-165.19 709,-165.19 666,-165.19 666,-165.19 660,-165.19 654,-159.19 654,-153.19 654,-153.19 654,-85.19 654,-85.19 654,-79.19 660,-73.19 666,-73.19"/>
<text text-anchor="middle" x="687.5" y="-149.99" font-family="Times New Roman,serif" font-size="14.00">idx: 6</text>
<polyline fill="none" stroke="black" points="654,-142.19 721,-142.19"/>
<text text-anchor="middle" x="687.5" y="-126.99" font-family="Times New Roman,serif" font-size="14.00">data: 200</text>
<polyline fill="none" stroke="black" points="654,-119.19 721,-119.19"/>
<text text-anchor="middle" x="687.5" y="-103.99" font-family="Times New Roman,serif" font-size="14.00">next: 7</text>
<polyline fill="none" stroke="black" points="654,-96.19 721,-96.19"/>
<text text-anchor="middle" x="687.5" y="-80.99" font-family="Times New Roman,serif" font-size="14.00">prev: 5</text>
</g>
<!-- 5&#45;&gt;6 -->
<g id="edge7" class="edge">
<title>5&#45;&gt;6</title>
<path fill="none" stroke="#b8860b" d="M618.22,-113.05C629.21,-112.36 642.07,-112.25 653.63,-112.73"/>
<polygon fill="#b8860b" stroke="#b8860b" points="653.91,-112.74 653.91,-112.74 653.91,-112.74 653.91,-112.74"/>
</g>
<!-- 5&#45;&gt;6 -->
<g id="edge21" class="edge">
<title>5&#45;&gt;6</title>
<path fill="none" stroke="black" d="M618.22,-125.33C626.18,-125.83 635.12,-126.02 643.84,-125.91"/>
<polygon fill="black" stroke="black" points="644.01,-129.4 653.91,-125.63 643.82,-122.41 644.01,-129.4"/>
</g>
<!-- 7 -->
<g id="node8" class="node">
<title>7</title>
<path fill="#ccff99" stroke="black" d="M769,-73.19C769,-73.19 800,-73.19 800,-73.19 806,-73.19 812,-79.19 812,-85.19 812,-85.19 812,-153.19 812,-153.19 812,-159.19 806,-165.19 800,-165.19 800,-165.19 769,-165.19 769,-165.19 763,-165.19 757,-159.19 757,-153.19 757,-153.19 757,-85.19 757,-85.19 757,-79.19 763,-73.19 769,-73.19"/>
<text text-anchor="middle" x="784.5" y="-149.99" font-family="Times New Roman,serif" font-size="14.00">idx: 7</text>
<polyline fill="none" stroke="black" points="757,-142.19 812,-142.19"/>
<text text-anchor="middle" x="784.5" y="-126.99" font-family="Times New Roman,serif" font-size="14.00">data: 4</text>
<polyline fill="none" stroke="black" points="757,-119.19 812,-119.19"/>
<text text-anchor="middle" x="784.5" y="-103.99" font-family="Times New Roman,serif" font-size="14.00">next: 8</text>
<polyline fill="none" stroke="black" points="757,-96.19 812,-96.19"/>
<text text-anchor="middle" x="784.5" y="-80.99" font-family="Times New Roman,serif" font-size="14.00">prev: 6</text>
</g>
<!-- 6&#45;&gt;7 -->
<g id="edge8" class="edge">
<title>6&#45;&gt;7</title>
<path fill="none" stroke="#b8860b" d="M721.19,-112.74C732.7,-112.26 745.49,-112.36 756.47,-113.03"/>
<polygon fill="#b8860b" stroke="#b8860b" points="756.73,-113.05 756.73,-113.05 756.73,-113.05 756.73,-113.05"/>
</g>
<!-- 6&#45;&gt;7 -->
<g id="edge22" class="edge">
<title>6&#45;&gt;7</title>
<path fill="none" stroke="black" d="M721.19,-125.64C729.35,-125.98 738.14,-126.03 746.49,-125.79"/>
<polygon fill="black" stroke="black" points="746.9,-129.28 756.73,-125.33 746.58,-122.28 746.9,-129.28"/>
</g>
<!-- 8 -->
<g id="node9" class="node">
<title>8</title>
<path fill="#ccff99" stroke="black" d="M860,-73.19C860,-73.19 891,-73.19 891,-73.19 897,-73.19 903,-79.19 903,-85.19 903,-85.19 903,-153.19 903,-153.19 903,-159.19 897,-165.19 891,-165.19 891,-165.19 860,-165.19 860,-165.19 854,-165.19 848,-159.19 848,-153.19 848,-153.19 848,-85.19 848,-85.19 848,-79.19 854,-73.19 860,-73.19"/>
<text text-anchor="middle" x="875.5" y="-149.99" font-family="Times New Roman,serif" font-size="14.00">idx: 8</text>
<polyline fill="none" stroke="black" points="848,-142.19 903,-142.19"/>
<text text-anchor="middle" x="875.5" y="-126.99" font-family="Times New Roman,serif" font-size="14.00">data: 5</text>
<polyline fill="none" stroke="black" points="848,-119.19 903,-119.19"/>
<text text-anchor="middle" x="875.5" y="-103.99" font-family="Times New Roman,serif" font-size="14.00">next: 9</text>
<polyline fill="none" stroke="black" points="848,-96.19 903,-96.19"/>
<text text-anchor="middle" x="875.5" y="-80.99" font-family="Times New Roman,serif" font-size="14.00">prev: 7</text>
</g>
<!-- 7&#45;&gt;8 -->
<g id="edge9" class="edge">
<title>7&#45;&gt;8</title>
<path fill="none" stroke="#b8860b" d="M812.2,-112.94C823.38,-112.28 836.35,-112.27 847.55,-112.93"/>
<polygon fill="#b8860b" stroke="#b8860b" points="847.82,-112.94 847.82,-112.94 847.82,-112.94 847.82,-112.94"/>
</g>
<!-- 7&#45;&gt;8 -->
<g id="edge23" class="edge">
<title>7&#45;&gt;8</title>
<path fill="none" stroke="black" d="M812.2,-125.43C820.21,-125.91 829.14,-126.05 837.68,-125.85"/>
<polygon fill="black" stroke="black" points="837.97,-129.34 847.82,-125.43 837.68,-122.35 837.97,-129.34"/>
</g>
<!-- 9 -->
<g id="node10" class="node">
<title>9</title>
<path fill="#ccff99" stroke="black" d="M951,-73.19C951,-73.19 987,-73.19 987,-73.19 993,-73.19 999,-79.19 999,-85.19 999,-85.19 999,-153.19 999,-153.19 999,-159.19 993,-165.19 987,-165.19 987,-165.19 951,-165.19 951,-165.19 945,-165.19 939,-159.19 939,-153.19 939,-153.19 939,-85.19 939,-85.19 939,-79.19 945,-73.19 951,-73.19"/>
<text text-anchor="middle" x="969" y="-149.99" font-family="Times New Roman,serif" font-size="14.00">idx: 9</text>
<polyline fill="none" stroke="black" points="939,-142.19 999,-142.19"/>
<text text-anchor="middle" x="969" y="-126.99" font-family="Times New Roman,serif" font-size="14.00">data: 6</text>
<polyline fill="none" stroke="black" points="939,-119.19 999,-119.19"/>
<text text-anchor="middle" x="969" y="-103.99" font-family="Times New Roman,serif" font-size="14.00">next: 10</text>
<polyline fill="none" stroke="black" points="939,-96.19 999,-96.19"/>
<text text-anchor="middle" x="969" y="-80.99" font-family="Times New Roman,serif" font-size="14.00">prev: 8</text>
</g>
<!-- 8&#45;&gt;9 -->
<g id="edge10" class="edge">
<title>8&#45;&gt;9</title>
<path fill="none" stroke="#b8860b" d="M903.46,-112.97C914.44,-112.31 927.17,-112.26 938.41,-112.83"/>
<polygon fill="#b8860b" stroke="#b8860b" points="938.68,-112.84 938.68,-112.84 938.68,-112.84 938.68,-112.84"/>
</g>
<!-- 8&#45;&gt;9 -->
<g id="edge24" class="edge">
<title>8&#45;&gt;9</title>
<path fill="none" stroke="black" d="M903.46,-125.41C911.33,-125.88 920.1,-126.04 928.57,-125.88"/>
<polygon fill="black" stroke="black" points="928.8,-129.38 938.68,-125.54 928.57,-122.38 928.8,-129.38"/>
</g>
<!-- 10 -->
<g id="node11" class="node">
<title>10</title>
<path fill="#ccff99" stroke="black" d="M1047,-73.19C1047,-73.19 1090,-73.19 1090,-73.19 1096,-73.19 1102,-79.19 1102,-85.19 1102,-85.19 1102,-153.19 1102,-153.19 1102,-159.19 1096,-165.19 1090,-165.19 1090,-165.19 1047,-165.19 1047,-165.19 1041,-165.19 1035,-159.19 1035,-153.19 1035,-153.19 1035,-85.19 1035,-85.19 1035,-79.19 1041,-73.19 1047,-73.19"/>
<text text-anchor="middle" x="1068.5" y="-149.99" font-family="Times New Roman,serif" font-size="14.00">idx: 10</text>
<polyline fill="none" stroke="black" points="1035,-142.19 1102,-142.19"/>
<text text-anchor="middle" x="1068.5" y="-126.99" font-family="Times New Roman,serif" font-size="14.00">data: 400</text>
<polyline fill="none" stroke="black" points="1035,-119.19 1102,-119.19"/>
<text text-anchor="middle" x="1068.5" y="-103.99" font-family="Times New Roman,serif" font-size="14.00">next: 0</text>
<polyline fill="none" stroke="black" points="1035,-96.19 1102,-96.19"/>
<text text-anchor="middle" x="1068.5" y="-80.99" font-family="Times New Roman,serif" font-size="14.00">prev: 9</text>
</g>
<!-- 9&#45;&gt;10 -->
<g id="edge11" class="edge">
<title>9&#45;&gt;10</title>
<path fill="none" stroke="#b8860b" d="M999.25,-112.94C1010.38,-112.34 1023.14,-112.28 1034.59,-112.77"/>
<polygon fill="#b8860b" stroke="#b8860b" points="1034.86,-112.78 1034.86,-112.78 1034.86,-112.78 1034.86,-112.78"/>
</g>
<!-- 9&#45;&gt;10 -->
<g id="edge25" class="edge">
<title>9&#45;&gt;10</title>
<path fill="none" stroke="black" d="M999.25,-125.43C1007.23,-125.87 1016.04,-126.02 1024.6,-125.9"/>
<polygon fill="black" stroke="black" points="1024.96,-129.39 1034.86,-125.6 1024.76,-122.39 1024.96,-129.39"/>
</g>
<!-- 10&#45;&gt;0 -->
<g id="edge26" class="edge">
<title>10&#45;&gt;0</title>
<path fill="none" stroke="black" d="M1034.72,-86.48C1024.11,-77.61 1011.77,-68.88 999,-63.19 948.68,-40.74 931.6,-44.19 876.5,-44.19 304.5,-44.19 304.5,-44.19 304.5,-44.19 246.33,-44.19 230.24,-44.96 175,-63.19 152.22,-70.71 128.52,-82.99 109.47,-94.13"/>
<polygon fill="black" stroke="black" points="107.57,-91.19 100.78,-99.32 111.16,-97.2 107.57,-91.19"/>
</g>
<!-- 11 -->
<g id="node12" class="node">
<title>11</title>
<path fill="#40e0d0" stroke="black" d="M1150,-73.19C1150,-73.19 1185,-73.19 1185,-73.19 1191,-73.19 1197,-79.19 1197,-85.19 1197,-85.19 1197,-153.19 1197,-153.19 1197,-159.19 1191,-165.19 1185,-165.19 1185,-165.19 1150,-165.19 1150,-165.19 1144,-165.19 1138,-159.19 1138,-153.19 1138,-153.19 1138,-85.19 1138,-85.19 1138,-79.19 1144,-73.19 1150,-73.19"/>
<text text-anchor="middle" x="1167.5" y="-149.99" font-family="Times New Roman,serif" font-size="14.00">idx: 11</text>
<polyline fill="none" stroke="black" points="1138,-142.19 1197,-142.19"/>
<text text-anchor="middle" x="1167.5" y="-126.99" font-family="Times New Roman,serif" font-size="14.00">data: 0</text>
<polyline fill="none" stroke="black" points="1138,-119.19 1197,-119.19"/>
<text text-anchor="middle" x="1167.5" y="-103.99" font-family="Times New Roman,serif" font-size="14.00">next: 0</text>
<polyline fill="none" stroke="black" points="1138,-96.19 1197,-96.19"/>
<text text-anchor="middle" x="1167.5" y="-80.99" font-family="Times New Roman,serif" font-size="14.00">prev: &#45;1</text>
</g>
<!-- 10&#45;&gt;11 -->
<g id="edge12" class="edge">
<title>10&#45;&gt;11</title>
<path fill="none" stroke="#b8860b" d="M1102.07,-119.19C1113.54,-119.19 1126.34,-119.19 1137.5,-119.19"/>
<polygon fill="#b8860b" stroke="#b8860b" points="1137.76,-119.19 1137.76,-119.19 1137.76,-119.19 1137.76,-119.19"/>
</g>
<!-- 11&#45;&gt;0 -->
<g id="edge27" class="edge">
<title>11&#45;&gt;0</title>
<path fill="none" stroke="black" d="M1142.75,-165.34C1132.32,-181.27 1118.63,-197.72 1102,-208.19 1051.54,-239.95 1029.63,-232.19 970,-232.19 304.5,-232.19 304.5,-232.19 304.5,-232.19 229.48,-232.19 153.19,-184.51 108.93,-151.1"/>
<polygon fill="black" stroke="black" points="110.85,-148.15 100.79,-144.83 106.58,-153.7 110.85,-148.15"/>
</g>
<!-- head -->
<g id="node13" class="node">
<title>head</title>
<path fill="#ccff99" stroke="black" d="M1245,-101.19C1245,-101.19 1277,-101.19 1277,-101.19 1283,-101.19 1289,-107.19 1289,-113.19 1289,-113.19 1289,-125.19 1289,-125.19 1289,-131.19 1283,-137.19 1277,-137.19 1277,-137.19 1245,-137.19 1245,-137.19 1239,-137.19 1233,-131.19 1233,-125.19 1233,-125.19 1233,-113.19 1233,-113.19 1233,-107.19 1239,-101.19 1245,-101.19"/>
<text text-anchor="middle" x="1261" y="-115.49" font-family="Times New Roman,serif" font-size="14.00">head: 1</text>
</g>
<!-- 11&#45;&gt;head -->
<g id="edge13" class="edge">
<title>11&#45;&gt;head</title>
<path fill="none" stroke="#b8860b" d="M1197.45,-119.19C1208.67,-119.19 1221.46,-119.19 1232.53,-119.19"/>
<polygon fill="#b8860b" stroke="#b8860b" points="1232.79,-119.19 1232.79,-119.19 1232.79,-119.19 1232.79,-119.19"/>
</g>
<!-- head&#45;&gt;1 -->
<g id="edge28" class="edge">
<title>head&#45;&gt;1</title>
<path fill="none" stroke="black" d="M1245.93,-100.99C1234.41,-87.69 1216.83,-70.73 1197,-63.19 1172.49,-53.87 1159.21,-47.77 1138,-63.19 1096.05,-93.68 1141.54,-140.63 1102,-174.19 1056.76,-212.59 1029.34,-194.19 970,-194.19 395.5,-194.19 395.5,-194.19 395.5,-194.19 342.53,-194.19 326.31,-195.91 278,-174.19 268.3,-169.83 258.81,-163.76 250.12,-157.25"/>
<polygon fill="black" stroke="black" points="252.08,-154.34 242.06,-150.9 247.75,-159.84 252.08,-154.34"/>
</g>
<!-- tail -->
<g id="node14" class="node">
<title>tail</title>
<path fill="#ccff99" stroke="black" d="M1337,-101.19C1337,-101.19 1367,-101.19 1367,-101.19 1373,-101.19 1379,-107.19 1379,-113.19 1379,-113.19 1379,-125.19 1379,-125.19 1379,-131.19 1373,-137.19 1367,-137.19 1367,-137.19 1337,-137.19 1337,-137.19 1331,-137.19 1325,-131.19 1325,-125.19 1325,-125.19 1325,-113.19 1325,-113.19 1325,-107.19 1331,-101.19 1337,-101.19"/>
<text text-anchor="middle" x="1352" y="-115.49" font-family="Times New Roman,serif" font-size="14.00">tail: 10</text>
</g>
<!-- head&#45;&gt;tail -->
<g id="edge14" class="edge">
<title>head&#45;&gt;tail</title>
<path fill="none" stroke="#b8860b" d="M1289.19,-119.19C1300.45,-119.19 1313.46,-119.19 1324.63,-119.19"/>
<polygon fill="#b8860b" stroke="#b8860b" points="1324.89,-119.19 1324.89,-119.19 1324.89,-119.19 1324.89,-119.19"/>
</g>
<!-- tail&#45;&gt;10 -->
<g id="edge29" class="edge">
<title>tail&#45;&gt;10</title>
<path fill="none" stroke="black" d="M1328.71,-101.17C1300.18,-79.39 1248.3,-43.95 1197,-30.19 1171.67,-23.4 1161.53,-18.61 1138,-30.19 1122.64,-37.75 1109.76,-50.59 1099.47,-64.2"/>
<polygon fill="black" stroke="black" points="1096.34,-62.55 1093.39,-72.73 1102.05,-66.61 1096.34,-62.55"/>
</g>
<!-- free -->
<g id="node15" class="node">
<title>free</title>
<path fill="#40e0d0" stroke="black" d="M1427,-101.19C1427,-101.19 1461,-101.19 1461,-101.19 1467,-101.19 1473,-107.19 1473,-113.19 1473,-113.19 1473,-125.19 1473,-125.19 1473,-131.19 1467,-137.19 1461,-137.19 1461,-137.19 1427,-137.19 1427,-137.19 1421,-137.19 1415,-131.19 1415,-125.19 1415,-125.19 1415,-113.19 1415,-113.19 1415,-107.19 1421,-101.19 1427,-101.19"/>
<text text-anchor="middle" x="1444" y="-115.49" font-family="Times New Roman,serif" font-size="14.00">free: 11</text>
</g>
<!-- tail&#45;&gt;free -->
<g id="edge15" class="edge">
<title>tail&#45;&gt;free</title>
<path fill="none" stroke="#b8860b" d="M1379.03,-119.19C1390.16,-119.19 1403.18,-119.19 1414.56,-119.19"/>
<polygon fill="#b8860b" stroke="#b8860b" points="1414.82,-119.19 1414.82,-119.19 1414.82,-119.19 1414.82,-119.19"/>
</g>
<!-- free&#45;&gt;11 -->
<g id="edge30" class="edge">
<title>free&#45;&gt;11</title>
<path fill="none" stroke="black" d="M1414.79,-133.95C1403.91,-138.87 1391.17,-143.73 1379,-146.19 1315.4,-159.06 1296.62,-158.97 1233,-146.19 1224.18,-144.42 1215.06,-141.41 1206.56,-138.03"/>
<polygon fill="black" stroke="black" points="1207.84,-134.77 1197.26,-134.1 1205.11,-141.22 1207.84,-134.77"/>
</g>
<!-- All -->
<g id="node16" class="node">
<title>All</title>
<path fill="#ff0000" stroke="black" d="M12,-202.19C12,-202.19 127,-202.19 127,-202.19 133,-202.19 139,-208.19 139,-214.19 139,-214.19 139,-236.19 139,-236.19 139,-242.19 133,-248.19 127,-248.19 127,-248.19 12,-248.19 12,-248.19 6,-248.19 0,-242.19 0,-236.19 0,-236.19 0,-214.19 0,-214.19 0,-208.19 6,-202.19 12,-202.19"/>
<text text-anchor="middle" x="69.5" y="-232.99" font-family="Times New Roman,serif" font-size="14.00">size = 12</text>
<polyline fill="none" stroke="black" points="0,-225.19 139,-225.19"/>
<text text-anchor="middle" x="69.5" y="-209.99" font-family="Times New Roman,serif" font-size="14.00">data_ptr = 00FFD218</text>
</g>
</g>
</svg>
