<?xml version="1.0" encoding="UTF-8" standalone="no"?>
<!DOCTYPE svg PUBLIC "-//W3C//DTD SVG 1.1//EN"
 "http://www.w3.org/Graphics/SVG/1.1/DTD/svg11.dtd">
<!-- Generated by graphviz version 6.0.2 (20221011.1828)
 -->
<!-- Title: List Pages: 1 -->
<svg width="2255pt" height="295pt"
 viewBox="0.00 0.00 2255.00 295.00" xmlns="http://www.w3.org/2000/svg" xmlns:xlink="http://www.w3.org/1999/xlink">
<g id="graph0" class="graph" transform="scale(1 1) rotate(0) translate(4 291)">
<title>List</title>
<polygon fill="#b8860b" stroke="none" points="-4,4 -4,-291 2251,-291 2251,4 -4,4"/>
<text text-anchor="middle" x="1123.5" y="-7.8" font-family="Times New Roman,serif" font-size="14.00">list_dump from function main, List/main.cpp:28</text>
<!-- 0 -->
<g id="node1" class="node">
<title>0</title>
<path fill="#8b00ff" stroke="black" d="M50,-90C50,-90 86,-90 86,-90 92,-90 98,-96 98,-102 98,-102 98,-170 98,-170 98,-176 92,-182 86,-182 86,-182 50,-182 50,-182 44,-182 38,-176 38,-170 38,-170 38,-102 38,-102 38,-96 44,-90 50,-90"/>
<text text-anchor="middle" x="68" y="-166.8" font-family="Times New Roman,serif" font-size="14.00">idx: 0</text>
<polyline fill="none" stroke="black" points="38,-159 98,-159"/>
<text text-anchor="middle" x="68" y="-143.8" font-family="Times New Roman,serif" font-size="14.00">data: 0</text>
<polyline fill="none" stroke="black" points="38,-136 98,-136"/>
<text text-anchor="middle" x="68" y="-120.8" font-family="Times New Roman,serif" font-size="14.00">next: 10</text>
<polyline fill="none" stroke="black" points="38,-113 98,-113"/>
<text text-anchor="middle" x="68" y="-97.8" font-family="Times New Roman,serif" font-size="14.00">prev: 1</text>
</g>
<!-- 0&#45;&gt;0 -->
<g id="edge1" class="edge">
<title>0&#45;&gt;0</title>
<path fill="none" stroke="#b8860b" d="M42.79,-182.09C44.96,-192.7 53.36,-200.5 68,-200.5 82.41,-200.5 90.78,-192.95 93.11,-182.59"/>
<polygon fill="#b8860b" stroke="#b8860b" points="93.21,-182.09 93.21,-182.09 93.21,-182.09 93.21,-182.09"/>
</g>
<!-- 1 -->
<g id="node2" class="node">
<title>1</title>
<path fill="#ccff99" stroke="black" d="M184,-90C184,-90 227,-90 227,-90 233,-90 239,-96 239,-102 239,-102 239,-170 239,-170 239,-176 233,-182 227,-182 227,-182 184,-182 184,-182 178,-182 172,-176 172,-170 172,-170 172,-102 172,-102 172,-96 178,-90 184,-90"/>
<text text-anchor="middle" x="205.5" y="-166.8" font-family="Times New Roman,serif" font-size="14.00">idx: 1</text>
<polyline fill="none" stroke="black" points="172,-159 239,-159"/>
<text text-anchor="middle" x="205.5" y="-143.8" font-family="Times New Roman,serif" font-size="14.00">data: 100</text>
<polyline fill="none" stroke="black" points="172,-136 239,-136"/>
<text text-anchor="middle" x="205.5" y="-120.8" font-family="Times New Roman,serif" font-size="14.00">next: 0</text>
<polyline fill="none" stroke="black" points="172,-113 239,-113"/>
<text text-anchor="middle" x="205.5" y="-97.8" font-family="Times New Roman,serif" font-size="14.00">prev: 9</text>
</g>
<!-- 0&#45;&gt;1 -->
<g id="edge2" class="edge">
<title>0&#45;&gt;1</title>
<path fill="none" stroke="#b8860b" d="M98.07,-130.34C119.6,-128.97 148.98,-128.89 171.41,-130.11"/>
<polygon fill="#b8860b" stroke="#b8860b" points="171.67,-130.12 171.67,-130.12 171.67,-130.12 171.67,-130.12"/>
</g>
<!-- 10 -->
<g id="node11" class="node">
<title>10</title>
<path fill="#ccff99" stroke="black" d="M1046,-90C1046,-90 1089,-90 1089,-90 1095,-90 1101,-96 1101,-102 1101,-102 1101,-170 1101,-170 1101,-176 1095,-182 1089,-182 1089,-182 1046,-182 1046,-182 1040,-182 1034,-176 1034,-170 1034,-170 1034,-102 1034,-102 1034,-96 1040,-90 1046,-90"/>
<text text-anchor="middle" x="1067.5" y="-166.8" font-family="Times New Roman,serif" font-size="14.00">idx: 10</text>
<polyline fill="none" stroke="black" points="1034,-159 1101,-159"/>
<text text-anchor="middle" x="1067.5" y="-143.8" font-family="Times New Roman,serif" font-size="14.00">data: 400</text>
<polyline fill="none" stroke="black" points="1034,-136 1101,-136"/>
<text text-anchor="middle" x="1067.5" y="-120.8" font-family="Times New Roman,serif" font-size="14.00">next: 2</text>
<polyline fill="none" stroke="black" points="1034,-113 1101,-113"/>
<text text-anchor="middle" x="1067.5" y="-97.8" font-family="Times New Roman,serif" font-size="14.00">prev: 0</text>
</g>
<!-- 0&#45;&gt;10 -->
<g id="edge24" class="edge">
<title>0&#45;&gt;10</title>
<path fill="none" stroke="black" d="M98.14,-160.52C140.7,-193.75 223.69,-249 305,-249 305,-249 305,-249 880.5,-249 937.05,-249 991.06,-210.37 1026.17,-178.28"/>
<polygon fill="black" stroke="black" points="1028.89,-180.52 1033.8,-171.13 1024.11,-175.42 1028.89,-180.52"/>
</g>
<!-- 1&#45;&gt;0 -->
<g id="edge34" class="edge">
<title>1&#45;&gt;0</title>
<path fill="none" stroke="black" d="M171.67,-141.88C152.54,-142.93 128.29,-143.03 108.17,-142.18"/>
<polygon fill="black" stroke="black" points="108.24,-138.68 98.07,-141.66 107.87,-145.67 108.24,-138.68"/>
</g>
<!-- 2 -->
<g id="node3" class="node">
<title>2</title>
<path fill="#ccff99" stroke="black" d="M287,-90C287,-90 325,-90 325,-90 331,-90 337,-96 337,-102 337,-102 337,-170 337,-170 337,-176 331,-182 325,-182 325,-182 287,-182 287,-182 281,-182 275,-176 275,-170 275,-170 275,-102 275,-102 275,-96 281,-90 287,-90"/>
<text text-anchor="middle" x="306" y="-166.8" font-family="Times New Roman,serif" font-size="14.00">idx: 2</text>
<polyline fill="none" stroke="black" points="275,-159 337,-159"/>
<text text-anchor="middle" x="306" y="-143.8" font-family="Times New Roman,serif" font-size="14.00">data: 1</text>
<polyline fill="none" stroke="black" points="275,-136 337,-136"/>
<text text-anchor="middle" x="306" y="-120.8" font-family="Times New Roman,serif" font-size="14.00">next: 3</text>
<polyline fill="none" stroke="black" points="275,-113 337,-113"/>
<text text-anchor="middle" x="306" y="-97.8" font-family="Times New Roman,serif" font-size="14.00">prev: 10</text>
</g>
<!-- 1&#45;&gt;2 -->
<g id="edge3" class="edge">
<title>1&#45;&gt;2</title>
<path fill="none" stroke="#b8860b" d="M239.03,-136C250.48,-136 263.3,-136 274.58,-136"/>
<polygon fill="#b8860b" stroke="#b8860b" points="274.84,-136 274.84,-136 274.84,-136 274.84,-136"/>
</g>
<!-- 3 -->
<g id="node4" class="node">
<title>3</title>
<path fill="#ccff99" stroke="black" d="M385,-90C385,-90 416,-90 416,-90 422,-90 428,-96 428,-102 428,-102 428,-170 428,-170 428,-176 422,-182 416,-182 416,-182 385,-182 385,-182 379,-182 373,-176 373,-170 373,-170 373,-102 373,-102 373,-96 379,-90 385,-90"/>
<text text-anchor="middle" x="400.5" y="-166.8" font-family="Times New Roman,serif" font-size="14.00">idx: 3</text>
<polyline fill="none" stroke="black" points="373,-159 428,-159"/>
<text text-anchor="middle" x="400.5" y="-143.8" font-family="Times New Roman,serif" font-size="14.00">data: 2</text>
<polyline fill="none" stroke="black" points="373,-136 428,-136"/>
<text text-anchor="middle" x="400.5" y="-120.8" font-family="Times New Roman,serif" font-size="14.00">next: 4</text>
<polyline fill="none" stroke="black" points="373,-113 428,-113"/>
<text text-anchor="middle" x="400.5" y="-97.8" font-family="Times New Roman,serif" font-size="14.00">prev: 2</text>
</g>
<!-- 2&#45;&gt;3 -->
<g id="edge4" class="edge">
<title>2&#45;&gt;3</title>
<path fill="none" stroke="#b8860b" d="M337.03,-129.63C348.44,-129.07 361.36,-129.13 372.48,-129.8"/>
<polygon fill="#b8860b" stroke="#b8860b" points="372.74,-129.81 372.74,-129.81 372.74,-129.81 372.74,-129.81"/>
</g>
<!-- 2&#45;&gt;3 -->
<g id="edge26" class="edge">
<title>2&#45;&gt;3</title>
<path fill="none" stroke="black" d="M337.03,-142.37C345.21,-142.77 354.16,-142.85 362.66,-142.62"/>
<polygon fill="black" stroke="black" points="362.9,-146.12 372.74,-142.19 362.6,-139.12 362.9,-146.12"/>
</g>
<!-- 4 -->
<g id="node5" class="node">
<title>4</title>
<path fill="#ccff99" stroke="black" d="M476,-90C476,-90 519,-90 519,-90 525,-90 531,-96 531,-102 531,-102 531,-170 531,-170 531,-176 525,-182 519,-182 519,-182 476,-182 476,-182 470,-182 464,-176 464,-170 464,-170 464,-102 464,-102 464,-96 470,-90 476,-90"/>
<text text-anchor="middle" x="497.5" y="-166.8" font-family="Times New Roman,serif" font-size="14.00">idx: 4</text>
<polyline fill="none" stroke="black" points="464,-159 531,-159"/>
<text text-anchor="middle" x="497.5" y="-143.8" font-family="Times New Roman,serif" font-size="14.00">data: 300</text>
<polyline fill="none" stroke="black" points="464,-136 531,-136"/>
<text text-anchor="middle" x="497.5" y="-120.8" font-family="Times New Roman,serif" font-size="14.00">next: 5</text>
<polyline fill="none" stroke="black" points="464,-113 531,-113"/>
<text text-anchor="middle" x="497.5" y="-97.8" font-family="Times New Roman,serif" font-size="14.00">prev: 3</text>
</g>
<!-- 3&#45;&gt;4 -->
<g id="edge5" class="edge">
<title>3&#45;&gt;4</title>
<path fill="none" stroke="#b8860b" d="M428.22,-129.86C439.21,-129.17 452.07,-129.07 463.63,-129.54"/>
<polygon fill="#b8860b" stroke="#b8860b" points="463.91,-129.55 463.91,-129.55 463.91,-129.55 463.91,-129.55"/>
</g>
<!-- 3&#45;&gt;4 -->
<g id="edge27" class="edge">
<title>3&#45;&gt;4</title>
<path fill="none" stroke="black" d="M428.22,-142.14C436.18,-142.64 445.12,-142.83 453.84,-142.72"/>
<polygon fill="black" stroke="black" points="454.01,-146.22 463.91,-142.45 453.82,-139.22 454.01,-146.22"/>
</g>
<!-- 5 -->
<g id="node6" class="node">
<title>5</title>
<path fill="#ccff99" stroke="black" d="M579,-90C579,-90 610,-90 610,-90 616,-90 622,-96 622,-102 622,-102 622,-170 622,-170 622,-176 616,-182 610,-182 610,-182 579,-182 579,-182 573,-182 567,-176 567,-170 567,-170 567,-102 567,-102 567,-96 573,-90 579,-90"/>
<text text-anchor="middle" x="594.5" y="-166.8" font-family="Times New Roman,serif" font-size="14.00">idx: 5</text>
<polyline fill="none" stroke="black" points="567,-159 622,-159"/>
<text text-anchor="middle" x="594.5" y="-143.8" font-family="Times New Roman,serif" font-size="14.00">data: 3</text>
<polyline fill="none" stroke="black" points="567,-136 622,-136"/>
<text text-anchor="middle" x="594.5" y="-120.8" font-family="Times New Roman,serif" font-size="14.00">next: 6</text>
<polyline fill="none" stroke="black" points="567,-113 622,-113"/>
<text text-anchor="middle" x="594.5" y="-97.8" font-family="Times New Roman,serif" font-size="14.00">prev: 4</text>
</g>
<!-- 4&#45;&gt;5 -->
<g id="edge6" class="edge">
<title>4&#45;&gt;5</title>
<path fill="none" stroke="#b8860b" d="M531.19,-129.55C542.7,-129.07 555.49,-129.17 566.47,-129.84"/>
<polygon fill="#b8860b" stroke="#b8860b" points="566.73,-129.86 566.73,-129.86 566.73,-129.86 566.73,-129.86"/>
</g>
<!-- 4&#45;&gt;5 -->
<g id="edge28" class="edge">
<title>4&#45;&gt;5</title>
<path fill="none" stroke="black" d="M531.19,-142.45C539.35,-142.79 548.14,-142.84 556.49,-142.6"/>
<polygon fill="black" stroke="black" points="556.9,-146.09 566.73,-142.14 556.58,-139.09 556.9,-146.09"/>
</g>
<!-- 6 -->
<g id="node7" class="node">
<title>6</title>
<path fill="#ccff99" stroke="black" d="M670,-90C670,-90 713,-90 713,-90 719,-90 725,-96 725,-102 725,-102 725,-170 725,-170 725,-176 719,-182 713,-182 713,-182 670,-182 670,-182 664,-182 658,-176 658,-170 658,-170 658,-102 658,-102 658,-96 664,-90 670,-90"/>
<text text-anchor="middle" x="691.5" y="-166.8" font-family="Times New Roman,serif" font-size="14.00">idx: 6</text>
<polyline fill="none" stroke="black" points="658,-159 725,-159"/>
<text text-anchor="middle" x="691.5" y="-143.8" font-family="Times New Roman,serif" font-size="14.00">data: 200</text>
<polyline fill="none" stroke="black" points="658,-136 725,-136"/>
<text text-anchor="middle" x="691.5" y="-120.8" font-family="Times New Roman,serif" font-size="14.00">next: 7</text>
<polyline fill="none" stroke="black" points="658,-113 725,-113"/>
<text text-anchor="middle" x="691.5" y="-97.8" font-family="Times New Roman,serif" font-size="14.00">prev: 5</text>
</g>
<!-- 5&#45;&gt;6 -->
<g id="edge7" class="edge">
<title>5&#45;&gt;6</title>
<path fill="none" stroke="#b8860b" d="M622.22,-129.86C633.21,-129.17 646.07,-129.07 657.63,-129.54"/>
<polygon fill="#b8860b" stroke="#b8860b" points="657.91,-129.55 657.91,-129.55 657.91,-129.55 657.91,-129.55"/>
</g>
<!-- 5&#45;&gt;6 -->
<g id="edge29" class="edge">
<title>5&#45;&gt;6</title>
<path fill="none" stroke="black" d="M622.22,-142.14C630.18,-142.64 639.12,-142.83 647.84,-142.72"/>
<polygon fill="black" stroke="black" points="648.01,-146.22 657.91,-142.45 647.82,-139.22 648.01,-146.22"/>
</g>
<!-- 7 -->
<g id="node8" class="node">
<title>7</title>
<path fill="#ccff99" stroke="black" d="M773,-90C773,-90 804,-90 804,-90 810,-90 816,-96 816,-102 816,-102 816,-170 816,-170 816,-176 810,-182 804,-182 804,-182 773,-182 773,-182 767,-182 761,-176 761,-170 761,-170 761,-102 761,-102 761,-96 767,-90 773,-90"/>
<text text-anchor="middle" x="788.5" y="-166.8" font-family="Times New Roman,serif" font-size="14.00">idx: 7</text>
<polyline fill="none" stroke="black" points="761,-159 816,-159"/>
<text text-anchor="middle" x="788.5" y="-143.8" font-family="Times New Roman,serif" font-size="14.00">data: 4</text>
<polyline fill="none" stroke="black" points="761,-136 816,-136"/>
<text text-anchor="middle" x="788.5" y="-120.8" font-family="Times New Roman,serif" font-size="14.00">next: 8</text>
<polyline fill="none" stroke="black" points="761,-113 816,-113"/>
<text text-anchor="middle" x="788.5" y="-97.8" font-family="Times New Roman,serif" font-size="14.00">prev: 6</text>
</g>
<!-- 6&#45;&gt;7 -->
<g id="edge8" class="edge">
<title>6&#45;&gt;7</title>
<path fill="none" stroke="#b8860b" d="M725.19,-129.55C736.7,-129.07 749.49,-129.17 760.47,-129.84"/>
<polygon fill="#b8860b" stroke="#b8860b" points="760.73,-129.86 760.73,-129.86 760.73,-129.86 760.73,-129.86"/>
</g>
<!-- 6&#45;&gt;7 -->
<g id="edge30" class="edge">
<title>6&#45;&gt;7</title>
<path fill="none" stroke="black" d="M725.19,-142.45C733.35,-142.79 742.14,-142.84 750.49,-142.6"/>
<polygon fill="black" stroke="black" points="750.9,-146.09 760.73,-142.14 750.58,-139.09 750.9,-146.09"/>
</g>
<!-- 8 -->
<g id="node9" class="node">
<title>8</title>
<path fill="#ccff99" stroke="black" d="M864,-90C864,-90 895,-90 895,-90 901,-90 907,-96 907,-102 907,-102 907,-170 907,-170 907,-176 901,-182 895,-182 895,-182 864,-182 864,-182 858,-182 852,-176 852,-170 852,-170 852,-102 852,-102 852,-96 858,-90 864,-90"/>
<text text-anchor="middle" x="879.5" y="-166.8" font-family="Times New Roman,serif" font-size="14.00">idx: 8</text>
<polyline fill="none" stroke="black" points="852,-159 907,-159"/>
<text text-anchor="middle" x="879.5" y="-143.8" font-family="Times New Roman,serif" font-size="14.00">data: 5</text>
<polyline fill="none" stroke="black" points="852,-136 907,-136"/>
<text text-anchor="middle" x="879.5" y="-120.8" font-family="Times New Roman,serif" font-size="14.00">next: 9</text>
<polyline fill="none" stroke="black" points="852,-113 907,-113"/>
<text text-anchor="middle" x="879.5" y="-97.8" font-family="Times New Roman,serif" font-size="14.00">prev: 7</text>
</g>
<!-- 7&#45;&gt;8 -->
<g id="edge9" class="edge">
<title>7&#45;&gt;8</title>
<path fill="none" stroke="#b8860b" d="M816.2,-129.75C827.38,-129.09 840.35,-129.08 851.55,-129.74"/>
<polygon fill="#b8860b" stroke="#b8860b" points="851.82,-129.76 851.82,-129.76 851.82,-129.76 851.82,-129.76"/>
</g>
<!-- 7&#45;&gt;8 -->
<g id="edge31" class="edge">
<title>7&#45;&gt;8</title>
<path fill="none" stroke="black" d="M816.2,-142.25C824.21,-142.72 833.14,-142.86 841.68,-142.66"/>
<polygon fill="black" stroke="black" points="841.97,-146.15 851.82,-142.24 841.68,-139.16 841.97,-146.15"/>
</g>
<!-- 9 -->
<g id="node10" class="node">
<title>9</title>
<path fill="#ccff99" stroke="black" d="M955,-90C955,-90 986,-90 986,-90 992,-90 998,-96 998,-102 998,-102 998,-170 998,-170 998,-176 992,-182 986,-182 986,-182 955,-182 955,-182 949,-182 943,-176 943,-170 943,-170 943,-102 943,-102 943,-96 949,-90 955,-90"/>
<text text-anchor="middle" x="970.5" y="-166.8" font-family="Times New Roman,serif" font-size="14.00">idx: 9</text>
<polyline fill="none" stroke="black" points="943,-159 998,-159"/>
<text text-anchor="middle" x="970.5" y="-143.8" font-family="Times New Roman,serif" font-size="14.00">data: 6</text>
<polyline fill="none" stroke="black" points="943,-136 998,-136"/>
<text text-anchor="middle" x="970.5" y="-120.8" font-family="Times New Roman,serif" font-size="14.00">next: 1</text>
<polyline fill="none" stroke="black" points="943,-113 998,-113"/>
<text text-anchor="middle" x="970.5" y="-97.8" font-family="Times New Roman,serif" font-size="14.00">prev: 8</text>
</g>
<!-- 8&#45;&gt;9 -->
<g id="edge10" class="edge">
<title>8&#45;&gt;9</title>
<path fill="none" stroke="#b8860b" d="M907.2,-129.75C918.38,-129.09 931.35,-129.08 942.55,-129.74"/>
<polygon fill="#b8860b" stroke="#b8860b" points="942.82,-129.76 942.82,-129.76 942.82,-129.76 942.82,-129.76"/>
</g>
<!-- 8&#45;&gt;9 -->
<g id="edge32" class="edge">
<title>8&#45;&gt;9</title>
<path fill="none" stroke="black" d="M907.2,-142.25C915.21,-142.72 924.14,-142.86 932.68,-142.66"/>
<polygon fill="black" stroke="black" points="932.97,-146.15 942.82,-142.24 932.68,-139.16 932.97,-146.15"/>
</g>
<!-- 9&#45;&gt;1 -->
<g id="edge33" class="edge">
<title>9&#45;&gt;1</title>
<path fill="none" stroke="black" d="M943,-165.16C932.68,-174.83 920.18,-184.71 907,-191 859.19,-213.81 842.47,-211 789.5,-211 399.5,-211 399.5,-211 399.5,-211 343.46,-211 326.22,-213.74 275,-191 265.28,-186.68 255.78,-180.64 247.09,-174.13"/>
<polygon fill="black" stroke="black" points="249.05,-171.22 239.03,-167.78 244.72,-176.72 249.05,-171.22"/>
</g>
<!-- 9&#45;&gt;10 -->
<g id="edge11" class="edge">
<title>9&#45;&gt;10</title>
<path fill="none" stroke="#b8860b" d="M998.22,-136C1009.21,-136 1022.07,-136 1033.63,-136"/>
<polygon fill="#b8860b" stroke="#b8860b" points="1033.91,-136 1033.91,-136 1033.91,-136 1033.91,-136"/>
</g>
<!-- 10&#45;&gt;2 -->
<g id="edge25" class="edge">
<title>10&#45;&gt;2</title>
<path fill="none" stroke="black" d="M1033.7,-103.35C1023.09,-94.47 1010.75,-85.74 998,-80 949.76,-58.29 933.4,-61 880.5,-61 496.5,-61 496.5,-61 496.5,-61 440.97,-61 423.52,-56.94 373,-80 363.06,-84.54 353.44,-91.02 344.76,-97.97"/>
<polygon fill="black" stroke="black" points="342.46,-95.33 337.07,-104.44 346.97,-100.68 342.46,-95.33"/>
</g>
<!-- 11 -->
<g id="node12" class="node">
<title>11</title>
<path fill="#40e0d0" stroke="black" d="M1149,-90C1149,-90 1185,-90 1185,-90 1191,-90 1197,-96 1197,-102 1197,-102 1197,-170 1197,-170 1197,-176 1191,-182 1185,-182 1185,-182 1149,-182 1149,-182 1143,-182 1137,-176 1137,-170 1137,-170 1137,-102 1137,-102 1137,-96 1143,-90 1149,-90"/>
<text text-anchor="middle" x="1167" y="-166.8" font-family="Times New Roman,serif" font-size="14.00">idx: 11</text>
<polyline fill="none" stroke="black" points="1137,-159 1197,-159"/>
<text text-anchor="middle" x="1167" y="-143.8" font-family="Times New Roman,serif" font-size="14.00">data: 0</text>
<polyline fill="none" stroke="black" points="1137,-136 1197,-136"/>
<text text-anchor="middle" x="1167" y="-120.8" font-family="Times New Roman,serif" font-size="14.00">next: 12</text>
<polyline fill="none" stroke="black" points="1137,-113 1197,-113"/>
<text text-anchor="middle" x="1167" y="-97.8" font-family="Times New Roman,serif" font-size="14.00">prev: &#45;1</text>
</g>
<!-- 10&#45;&gt;11 -->
<g id="edge12" class="edge">
<title>10&#45;&gt;11</title>
<path fill="none" stroke="#b8860b" d="M1101.24,-136C1112.65,-136 1125.39,-136 1136.53,-136"/>
<polygon fill="#b8860b" stroke="#b8860b" points="1136.79,-136 1136.79,-136 1136.79,-136 1136.79,-136"/>
</g>
<!-- 12 -->
<g id="node13" class="node">
<title>12</title>
<path fill="#40e0d0" stroke="black" d="M1245,-90C1245,-90 1281,-90 1281,-90 1287,-90 1293,-96 1293,-102 1293,-102 1293,-170 1293,-170 1293,-176 1287,-182 1281,-182 1281,-182 1245,-182 1245,-182 1239,-182 1233,-176 1233,-170 1233,-170 1233,-102 1233,-102 1233,-96 1239,-90 1245,-90"/>
<text text-anchor="middle" x="1263" y="-166.8" font-family="Times New Roman,serif" font-size="14.00">idx: 12</text>
<polyline fill="none" stroke="black" points="1233,-159 1293,-159"/>
<text text-anchor="middle" x="1263" y="-143.8" font-family="Times New Roman,serif" font-size="14.00">data: 0</text>
<polyline fill="none" stroke="black" points="1233,-136 1293,-136"/>
<text text-anchor="middle" x="1263" y="-120.8" font-family="Times New Roman,serif" font-size="14.00">next: 13</text>
<polyline fill="none" stroke="black" points="1233,-113 1293,-113"/>
<text text-anchor="middle" x="1263" y="-97.8" font-family="Times New Roman,serif" font-size="14.00">prev: &#45;1</text>
</g>
<!-- 11&#45;&gt;12 -->
<g id="edge13" class="edge">
<title>11&#45;&gt;12</title>
<path fill="none" stroke="#b8860b" d="M1197.23,-129.7C1208.46,-129.1 1221.27,-129.1 1232.53,-129.69"/>
<polygon fill="#b8860b" stroke="#b8860b" points="1232.79,-129.7 1232.79,-129.7 1232.79,-129.7 1232.79,-129.7"/>
</g>
<!-- 11&#45;&gt;12 -->
<g id="edge35" class="edge">
<title>11&#45;&gt;12</title>
<path fill="none" stroke="black" d="M1197.23,-142.3C1205.27,-142.73 1214.13,-142.85 1222.65,-142.67"/>
<polygon fill="black" stroke="black" points="1222.93,-146.16 1232.79,-142.3 1222.67,-139.17 1222.93,-146.16"/>
</g>
<!-- 13 -->
<g id="node14" class="node">
<title>13</title>
<path fill="#40e0d0" stroke="black" d="M1341,-90C1341,-90 1377,-90 1377,-90 1383,-90 1389,-96 1389,-102 1389,-102 1389,-170 1389,-170 1389,-176 1383,-182 1377,-182 1377,-182 1341,-182 1341,-182 1335,-182 1329,-176 1329,-170 1329,-170 1329,-102 1329,-102 1329,-96 1335,-90 1341,-90"/>
<text text-anchor="middle" x="1359" y="-166.8" font-family="Times New Roman,serif" font-size="14.00">idx: 13</text>
<polyline fill="none" stroke="black" points="1329,-159 1389,-159"/>
<text text-anchor="middle" x="1359" y="-143.8" font-family="Times New Roman,serif" font-size="14.00">data: 0</text>
<polyline fill="none" stroke="black" points="1329,-136 1389,-136"/>
<text text-anchor="middle" x="1359" y="-120.8" font-family="Times New Roman,serif" font-size="14.00">next: 14</text>
<polyline fill="none" stroke="black" points="1329,-113 1389,-113"/>
<text text-anchor="middle" x="1359" y="-97.8" font-family="Times New Roman,serif" font-size="14.00">prev: &#45;1</text>
</g>
<!-- 12&#45;&gt;13 -->
<g id="edge14" class="edge">
<title>12&#45;&gt;13</title>
<path fill="none" stroke="#b8860b" d="M1293.23,-129.7C1304.46,-129.1 1317.27,-129.1 1328.53,-129.69"/>
<polygon fill="#b8860b" stroke="#b8860b" points="1328.79,-129.7 1328.79,-129.7 1328.79,-129.7 1328.79,-129.7"/>
</g>
<!-- 12&#45;&gt;13 -->
<g id="edge36" class="edge">
<title>12&#45;&gt;13</title>
<path fill="none" stroke="black" d="M1293.23,-142.3C1301.27,-142.73 1310.13,-142.85 1318.65,-142.67"/>
<polygon fill="black" stroke="black" points="1318.93,-146.16 1328.79,-142.3 1318.67,-139.17 1318.93,-146.16"/>
</g>
<!-- 14 -->
<g id="node15" class="node">
<title>14</title>
<path fill="#40e0d0" stroke="black" d="M1437,-90C1437,-90 1473,-90 1473,-90 1479,-90 1485,-96 1485,-102 1485,-102 1485,-170 1485,-170 1485,-176 1479,-182 1473,-182 1473,-182 1437,-182 1437,-182 1431,-182 1425,-176 1425,-170 1425,-170 1425,-102 1425,-102 1425,-96 1431,-90 1437,-90"/>
<text text-anchor="middle" x="1455" y="-166.8" font-family="Times New Roman,serif" font-size="14.00">idx: 14</text>
<polyline fill="none" stroke="black" points="1425,-159 1485,-159"/>
<text text-anchor="middle" x="1455" y="-143.8" font-family="Times New Roman,serif" font-size="14.00">data: 0</text>
<polyline fill="none" stroke="black" points="1425,-136 1485,-136"/>
<text text-anchor="middle" x="1455" y="-120.8" font-family="Times New Roman,serif" font-size="14.00">next: 15</text>
<polyline fill="none" stroke="black" points="1425,-113 1485,-113"/>
<text text-anchor="middle" x="1455" y="-97.8" font-family="Times New Roman,serif" font-size="14.00">prev: &#45;1</text>
</g>
<!-- 13&#45;&gt;14 -->
<g id="edge15" class="edge">
<title>13&#45;&gt;14</title>
<path fill="none" stroke="#b8860b" d="M1389.23,-129.7C1400.46,-129.1 1413.27,-129.1 1424.53,-129.69"/>
<polygon fill="#b8860b" stroke="#b8860b" points="1424.79,-129.7 1424.79,-129.7 1424.79,-129.7 1424.79,-129.7"/>
</g>
<!-- 13&#45;&gt;14 -->
<g id="edge37" class="edge">
<title>13&#45;&gt;14</title>
<path fill="none" stroke="black" d="M1389.23,-142.3C1397.27,-142.73 1406.13,-142.85 1414.65,-142.67"/>
<polygon fill="black" stroke="black" points="1414.93,-146.16 1424.79,-142.3 1414.67,-139.17 1414.93,-146.16"/>
</g>
<!-- 15 -->
<g id="node16" class="node">
<title>15</title>
<path fill="#40e0d0" stroke="black" d="M1533,-90C1533,-90 1569,-90 1569,-90 1575,-90 1581,-96 1581,-102 1581,-102 1581,-170 1581,-170 1581,-176 1575,-182 1569,-182 1569,-182 1533,-182 1533,-182 1527,-182 1521,-176 1521,-170 1521,-170 1521,-102 1521,-102 1521,-96 1527,-90 1533,-90"/>
<text text-anchor="middle" x="1551" y="-166.8" font-family="Times New Roman,serif" font-size="14.00">idx: 15</text>
<polyline fill="none" stroke="black" points="1521,-159 1581,-159"/>
<text text-anchor="middle" x="1551" y="-143.8" font-family="Times New Roman,serif" font-size="14.00">data: 0</text>
<polyline fill="none" stroke="black" points="1521,-136 1581,-136"/>
<text text-anchor="middle" x="1551" y="-120.8" font-family="Times New Roman,serif" font-size="14.00">next: 16</text>
<polyline fill="none" stroke="black" points="1521,-113 1581,-113"/>
<text text-anchor="middle" x="1551" y="-97.8" font-family="Times New Roman,serif" font-size="14.00">prev: &#45;1</text>
</g>
<!-- 14&#45;&gt;15 -->
<g id="edge16" class="edge">
<title>14&#45;&gt;15</title>
<path fill="none" stroke="#b8860b" d="M1485.23,-129.7C1496.46,-129.1 1509.27,-129.1 1520.53,-129.69"/>
<polygon fill="#b8860b" stroke="#b8860b" points="1520.79,-129.7 1520.79,-129.7 1520.79,-129.7 1520.79,-129.7"/>
</g>
<!-- 14&#45;&gt;15 -->
<g id="edge38" class="edge">
<title>14&#45;&gt;15</title>
<path fill="none" stroke="black" d="M1485.23,-142.3C1493.27,-142.73 1502.13,-142.85 1510.65,-142.67"/>
<polygon fill="black" stroke="black" points="1510.93,-146.16 1520.79,-142.3 1510.67,-139.17 1510.93,-146.16"/>
</g>
<!-- 16 -->
<g id="node17" class="node">
<title>16</title>
<path fill="#40e0d0" stroke="black" d="M1629,-90C1629,-90 1665,-90 1665,-90 1671,-90 1677,-96 1677,-102 1677,-102 1677,-170 1677,-170 1677,-176 1671,-182 1665,-182 1665,-182 1629,-182 1629,-182 1623,-182 1617,-176 1617,-170 1617,-170 1617,-102 1617,-102 1617,-96 1623,-90 1629,-90"/>
<text text-anchor="middle" x="1647" y="-166.8" font-family="Times New Roman,serif" font-size="14.00">idx: 16</text>
<polyline fill="none" stroke="black" points="1617,-159 1677,-159"/>
<text text-anchor="middle" x="1647" y="-143.8" font-family="Times New Roman,serif" font-size="14.00">data: 0</text>
<polyline fill="none" stroke="black" points="1617,-136 1677,-136"/>
<text text-anchor="middle" x="1647" y="-120.8" font-family="Times New Roman,serif" font-size="14.00">next: 17</text>
<polyline fill="none" stroke="black" points="1617,-113 1677,-113"/>
<text text-anchor="middle" x="1647" y="-97.8" font-family="Times New Roman,serif" font-size="14.00">prev: &#45;1</text>
</g>
<!-- 15&#45;&gt;16 -->
<g id="edge17" class="edge">
<title>15&#45;&gt;16</title>
<path fill="none" stroke="#b8860b" d="M1581.23,-129.7C1592.46,-129.1 1605.27,-129.1 1616.53,-129.69"/>
<polygon fill="#b8860b" stroke="#b8860b" points="1616.79,-129.7 1616.79,-129.7 1616.79,-129.7 1616.79,-129.7"/>
</g>
<!-- 15&#45;&gt;16 -->
<g id="edge39" class="edge">
<title>15&#45;&gt;16</title>
<path fill="none" stroke="black" d="M1581.23,-142.3C1589.27,-142.73 1598.13,-142.85 1606.65,-142.67"/>
<polygon fill="black" stroke="black" points="1606.93,-146.16 1616.79,-142.3 1606.67,-139.17 1606.93,-146.16"/>
</g>
<!-- 17 -->
<g id="node18" class="node">
<title>17</title>
<path fill="#40e0d0" stroke="black" d="M1725,-90C1725,-90 1761,-90 1761,-90 1767,-90 1773,-96 1773,-102 1773,-102 1773,-170 1773,-170 1773,-176 1767,-182 1761,-182 1761,-182 1725,-182 1725,-182 1719,-182 1713,-176 1713,-170 1713,-170 1713,-102 1713,-102 1713,-96 1719,-90 1725,-90"/>
<text text-anchor="middle" x="1743" y="-166.8" font-family="Times New Roman,serif" font-size="14.00">idx: 17</text>
<polyline fill="none" stroke="black" points="1713,-159 1773,-159"/>
<text text-anchor="middle" x="1743" y="-143.8" font-family="Times New Roman,serif" font-size="14.00">data: 0</text>
<polyline fill="none" stroke="black" points="1713,-136 1773,-136"/>
<text text-anchor="middle" x="1743" y="-120.8" font-family="Times New Roman,serif" font-size="14.00">next: 18</text>
<polyline fill="none" stroke="black" points="1713,-113 1773,-113"/>
<text text-anchor="middle" x="1743" y="-97.8" font-family="Times New Roman,serif" font-size="14.00">prev: &#45;1</text>
</g>
<!-- 16&#45;&gt;17 -->
<g id="edge18" class="edge">
<title>16&#45;&gt;17</title>
<path fill="none" stroke="#b8860b" d="M1677.23,-129.7C1688.46,-129.1 1701.27,-129.1 1712.53,-129.69"/>
<polygon fill="#b8860b" stroke="#b8860b" points="1712.79,-129.7 1712.79,-129.7 1712.79,-129.7 1712.79,-129.7"/>
</g>
<!-- 16&#45;&gt;17 -->
<g id="edge40" class="edge">
<title>16&#45;&gt;17</title>
<path fill="none" stroke="black" d="M1677.23,-142.3C1685.27,-142.73 1694.13,-142.85 1702.65,-142.67"/>
<polygon fill="black" stroke="black" points="1702.93,-146.16 1712.79,-142.3 1702.67,-139.17 1702.93,-146.16"/>
</g>
<!-- 18 -->
<g id="node19" class="node">
<title>18</title>
<path fill="#40e0d0" stroke="black" d="M1821,-90C1821,-90 1857,-90 1857,-90 1863,-90 1869,-96 1869,-102 1869,-102 1869,-170 1869,-170 1869,-176 1863,-182 1857,-182 1857,-182 1821,-182 1821,-182 1815,-182 1809,-176 1809,-170 1809,-170 1809,-102 1809,-102 1809,-96 1815,-90 1821,-90"/>
<text text-anchor="middle" x="1839" y="-166.8" font-family="Times New Roman,serif" font-size="14.00">idx: 18</text>
<polyline fill="none" stroke="black" points="1809,-159 1869,-159"/>
<text text-anchor="middle" x="1839" y="-143.8" font-family="Times New Roman,serif" font-size="14.00">data: 0</text>
<polyline fill="none" stroke="black" points="1809,-136 1869,-136"/>
<text text-anchor="middle" x="1839" y="-120.8" font-family="Times New Roman,serif" font-size="14.00">next: 19</text>
<polyline fill="none" stroke="black" points="1809,-113 1869,-113"/>
<text text-anchor="middle" x="1839" y="-97.8" font-family="Times New Roman,serif" font-size="14.00">prev: &#45;1</text>
</g>
<!-- 17&#45;&gt;18 -->
<g id="edge19" class="edge">
<title>17&#45;&gt;18</title>
<path fill="none" stroke="#b8860b" d="M1773.23,-129.7C1784.46,-129.1 1797.27,-129.1 1808.53,-129.69"/>
<polygon fill="#b8860b" stroke="#b8860b" points="1808.79,-129.7 1808.79,-129.7 1808.79,-129.7 1808.79,-129.7"/>
</g>
<!-- 17&#45;&gt;18 -->
<g id="edge41" class="edge">
<title>17&#45;&gt;18</title>
<path fill="none" stroke="black" d="M1773.23,-142.3C1781.27,-142.73 1790.13,-142.85 1798.65,-142.67"/>
<polygon fill="black" stroke="black" points="1798.93,-146.16 1808.79,-142.3 1798.67,-139.17 1798.93,-146.16"/>
</g>
<!-- 19 -->
<g id="node20" class="node">
<title>19</title>
<path fill="#40e0d0" stroke="black" d="M1917,-90C1917,-90 1952,-90 1952,-90 1958,-90 1964,-96 1964,-102 1964,-102 1964,-170 1964,-170 1964,-176 1958,-182 1952,-182 1952,-182 1917,-182 1917,-182 1911,-182 1905,-176 1905,-170 1905,-170 1905,-102 1905,-102 1905,-96 1911,-90 1917,-90"/>
<text text-anchor="middle" x="1934.5" y="-166.8" font-family="Times New Roman,serif" font-size="14.00">idx: 19</text>
<polyline fill="none" stroke="black" points="1905,-159 1964,-159"/>
<text text-anchor="middle" x="1934.5" y="-143.8" font-family="Times New Roman,serif" font-size="14.00">data: 0</text>
<polyline fill="none" stroke="black" points="1905,-136 1964,-136"/>
<text text-anchor="middle" x="1934.5" y="-120.8" font-family="Times New Roman,serif" font-size="14.00">next: 0</text>
<polyline fill="none" stroke="black" points="1905,-113 1964,-113"/>
<text text-anchor="middle" x="1934.5" y="-97.8" font-family="Times New Roman,serif" font-size="14.00">prev: &#45;1</text>
</g>
<!-- 18&#45;&gt;19 -->
<g id="edge20" class="edge">
<title>18&#45;&gt;19</title>
<path fill="none" stroke="#b8860b" d="M1869.07,-129.7C1880.35,-129.1 1893.23,-129.1 1904.5,-129.7"/>
<polygon fill="#b8860b" stroke="#b8860b" points="1904.77,-129.72 1904.77,-129.72 1904.77,-129.72 1904.77,-129.72"/>
</g>
<!-- 18&#45;&gt;19 -->
<g id="edge42" class="edge">
<title>18&#45;&gt;19</title>
<path fill="none" stroke="black" d="M1869.07,-142.3C1877.15,-142.73 1886.06,-142.85 1894.6,-142.66"/>
<polygon fill="black" stroke="black" points="1894.91,-146.16 1904.77,-142.28 1894.64,-139.16 1894.91,-146.16"/>
</g>
<!-- 19&#45;&gt;0 -->
<g id="edge43" class="edge">
<title>19&#45;&gt;0</title>
<path fill="none" stroke="black" d="M1904.7,-180.08C1871.71,-224.65 1813.2,-287 1744,-287 305,-287 305,-287 305,-287 242.16,-287 225.05,-272.69 172,-239 157.3,-229.66 128.6,-200.55 105.22,-175.65"/>
<polygon fill="black" stroke="black" points="107.54,-173 98.15,-168.08 102.42,-177.78 107.54,-173"/>
</g>
<!-- head -->
<g id="node21" class="node">
<title>head</title>
<path fill="#ccff99" stroke="black" d="M2012,-118C2012,-118 2051,-118 2051,-118 2057,-118 2063,-124 2063,-130 2063,-130 2063,-142 2063,-142 2063,-148 2057,-154 2051,-154 2051,-154 2012,-154 2012,-154 2006,-154 2000,-148 2000,-142 2000,-142 2000,-130 2000,-130 2000,-124 2006,-118 2012,-118"/>
<text text-anchor="middle" x="2031.5" y="-132.3" font-family="Times New Roman,serif" font-size="14.00">head: 10</text>
</g>
<!-- 19&#45;&gt;head -->
<g id="edge21" class="edge">
<title>19&#45;&gt;head</title>
<path fill="none" stroke="#b8860b" d="M1964,-136C1975.17,-136 1988.02,-136 1999.43,-136"/>
<polygon fill="#b8860b" stroke="#b8860b" points="1999.7,-136 1999.7,-136 1999.7,-136 1999.7,-136"/>
</g>
<!-- head&#45;&gt;10 -->
<g id="edge44" class="edge">
<title>head&#45;&gt;10</title>
<path fill="none" stroke="black" d="M2013.95,-154.05C2001.46,-166.48 1983.24,-182.28 1964,-191 1913.15,-214.04 1895.82,-211 1840,-211 1262,-211 1262,-211 1262,-211 1205.74,-211 1188.43,-213.82 1137,-191 1127.28,-186.69 1117.77,-180.64 1109.09,-174.13"/>
<polygon fill="black" stroke="black" points="1111.05,-171.23 1101.03,-167.79 1106.72,-176.73 1111.05,-171.23"/>
</g>
<!-- tail -->
<g id="node22" class="node">
<title>tail</title>
<path fill="#ccff99" stroke="black" d="M2111,-118C2111,-118 2141,-118 2141,-118 2147,-118 2153,-124 2153,-130 2153,-130 2153,-142 2153,-142 2153,-148 2147,-154 2141,-154 2141,-154 2111,-154 2111,-154 2105,-154 2099,-148 2099,-142 2099,-142 2099,-130 2099,-130 2099,-124 2105,-118 2111,-118"/>
<text text-anchor="middle" x="2126" y="-132.3" font-family="Times New Roman,serif" font-size="14.00">tail: 1</text>
</g>
<!-- head&#45;&gt;tail -->
<g id="edge22" class="edge">
<title>head&#45;&gt;tail</title>
<path fill="none" stroke="#b8860b" d="M2063.04,-136C2074.53,-136 2087.48,-136 2098.57,-136"/>
<polygon fill="#b8860b" stroke="#b8860b" points="2098.83,-136 2098.83,-136 2098.83,-136 2098.83,-136"/>
</g>
<!-- tail&#45;&gt;1 -->
<g id="edge45" class="edge">
<title>tail&#45;&gt;1</title>
<path fill="none" stroke="black" d="M2112.11,-117.81C2100.7,-102.88 2082.82,-82.13 2063,-69 2012.78,-35.72 1995.74,-23 1935.5,-23 399.5,-23 399.5,-23 399.5,-23 340.23,-23 283.03,-63.17 246.49,-95.61"/>
<polygon fill="black" stroke="black" points="244.07,-93.09 239.02,-102.4 248.78,-98.27 244.07,-93.09"/>
</g>
<!-- free -->
<g id="node23" class="node">
<title>free</title>
<path fill="#40e0d0" stroke="black" d="M2201,-118C2201,-118 2235,-118 2235,-118 2241,-118 2247,-124 2247,-130 2247,-130 2247,-142 2247,-142 2247,-148 2241,-154 2235,-154 2235,-154 2201,-154 2201,-154 2195,-154 2189,-148 2189,-142 2189,-142 2189,-130 2189,-130 2189,-124 2195,-118 2201,-118"/>
<text text-anchor="middle" x="2218" y="-132.3" font-family="Times New Roman,serif" font-size="14.00">free: 11</text>
</g>
<!-- tail&#45;&gt;free -->
<g id="edge23" class="edge">
<title>tail&#45;&gt;free</title>
<path fill="none" stroke="#b8860b" d="M2153.03,-136C2164.16,-136 2177.18,-136 2188.56,-136"/>
<polygon fill="#b8860b" stroke="#b8860b" points="2188.82,-136 2188.82,-136 2188.82,-136 2188.82,-136"/>
</g>
<!-- free&#45;&gt;11 -->
<g id="edge46" class="edge">
<title>free&#45;&gt;11</title>
<path fill="none" stroke="black" d="M2188.8,-153.02C2163.91,-165.66 2127.28,-178.29 2099,-163 2073.3,-149.11 2086.55,-125.29 2063,-108 1981.36,-48.05 1941.29,-61 1840,-61 1358,-61 1358,-61 1358,-61 1301.81,-61 1284.05,-56.52 1233,-80 1223.05,-84.57 1213.46,-91.14 1204.84,-98.17"/>
<polygon fill="black" stroke="black" points="1202.52,-95.55 1197.21,-104.72 1207.08,-100.86 1202.52,-95.55"/>
</g>
<!-- All -->
<g id="node24" class="node">
<title>All</title>
<path fill="#ff0000" stroke="black" d="M12,-219C12,-219 124,-219 124,-219 130,-219 136,-225 136,-231 136,-231 136,-253 136,-253 136,-259 130,-265 124,-265 124,-265 12,-265 12,-265 6,-265 0,-259 0,-253 0,-253 0,-231 0,-231 0,-225 6,-219 12,-219"/>
<text text-anchor="middle" x="68" y="-249.8" font-family="Times New Roman,serif" font-size="14.00">size = 20</text>
<polyline fill="none" stroke="black" points="0,-242 136,-242"/>
<text text-anchor="middle" x="68" y="-226.8" font-family="Times New Roman,serif" font-size="14.00">data_ptr = 0118D310</text>
</g>
</g>
</svg>
