<?xml version="1.0" encoding="UTF-8" standalone="no"?>
<!DOCTYPE svg PUBLIC "-//W3C//DTD SVG 1.1//EN"
 "http://www.w3.org/Graphics/SVG/1.1/DTD/svg11.dtd">
<!-- Generated by graphviz version 6.0.2 (20221011.1828)
 -->
<!-- Title: List Pages: 1 -->
<svg width="1310pt" height="302pt"
 viewBox="0.00 0.00 1310.00 301.50" xmlns="http://www.w3.org/2000/svg" xmlns:xlink="http://www.w3.org/1999/xlink">
<g id="graph0" class="graph" transform="scale(1 1) rotate(0) translate(4 297.5)">
<title>List</title>
<polygon fill="#696969" stroke="none" points="-4,4 -4,-297.5 1306,-297.5 1306,4 -4,4"/>
<text text-anchor="middle" x="651" y="-7.8" font-family="Times New Roman,serif" font-size="14.00">list_dump from function main, List/main.cpp:29</text>
<!-- 0 -->
<g id="node1" class="node">
<title>0</title>
<path fill="#ff0000" stroke="black" d="M14.5,-128C14.5,-128 52.5,-128 52.5,-128 58.5,-128 64.5,-134 64.5,-140 64.5,-140 64.5,-208 64.5,-208 64.5,-214 58.5,-220 52.5,-220 52.5,-220 14.5,-220 14.5,-220 8.5,-220 2.5,-214 2.5,-208 2.5,-208 2.5,-140 2.5,-140 2.5,-134 8.5,-128 14.5,-128"/>
<text text-anchor="middle" x="33.5" y="-204.8" font-family="Times New Roman,serif" font-size="14.00">idx: 0</text>
<polyline fill="none" stroke="black" points="2.5,-197 64.5,-197"/>
<text text-anchor="middle" x="33.5" y="-181.8" font-family="Times New Roman,serif" font-size="14.00">data: 0</text>
<polyline fill="none" stroke="black" points="2.5,-174 64.5,-174"/>
<text text-anchor="middle" x="33.5" y="-158.8" font-family="Times New Roman,serif" font-size="14.00">next: 1</text>
<polyline fill="none" stroke="black" points="2.5,-151 64.5,-151"/>
<text text-anchor="middle" x="33.5" y="-135.8" font-family="Times New Roman,serif" font-size="14.00">prev: 10</text>
</g>
<!-- 0&#45;&gt;0 -->
<g id="edge1" class="edge">
<title>0&#45;&gt;0</title>
<path fill="none" stroke="#696969" d="M14.61,-220.09C16.24,-230.7 22.54,-238.5 33.5,-238.5 44.29,-238.5 50.56,-230.95 52.31,-220.59"/>
<polygon fill="#696969" stroke="#696969" points="52.39,-220.09 52.39,-220.09 52.39,-220.09 52.39,-220.09"/>
</g>
<!-- 1 -->
<g id="node2" class="node">
<title>1</title>
<path fill="#ccff99" stroke="black" d="M115,-128C115,-128 158,-128 158,-128 164,-128 170,-134 170,-140 170,-140 170,-208 170,-208 170,-214 164,-220 158,-220 158,-220 115,-220 115,-220 109,-220 103,-214 103,-208 103,-208 103,-140 103,-140 103,-134 109,-128 115,-128"/>
<text text-anchor="middle" x="136.5" y="-204.8" font-family="Times New Roman,serif" font-size="14.00">idx: 1</text>
<polyline fill="none" stroke="black" points="103,-197 170,-197"/>
<text text-anchor="middle" x="136.5" y="-181.8" font-family="Times New Roman,serif" font-size="14.00">data: 100</text>
<polyline fill="none" stroke="black" points="103,-174 170,-174"/>
<text text-anchor="middle" x="136.5" y="-158.8" font-family="Times New Roman,serif" font-size="14.00">next: 2</text>
<polyline fill="none" stroke="black" points="103,-151 170,-151"/>
<text text-anchor="middle" x="136.5" y="-135.8" font-family="Times New Roman,serif" font-size="14.00">prev: 0</text>
</g>
<!-- 0&#45;&gt;1 -->
<g id="edge2" class="edge">
<title>0&#45;&gt;1</title>
<path fill="none" stroke="#696969" d="M64.53,-167.77C76.53,-167.13 90.39,-167.08 102.65,-167.63"/>
<polygon fill="#696969" stroke="#696969" points="102.94,-167.64 102.94,-167.64 102.94,-167.64 102.94,-167.64"/>
</g>
<!-- 0&#45;&gt;1 -->
<g id="edge15" class="edge">
<title>0&#45;&gt;1</title>
<path fill="none" stroke="black" d="M64.53,-180.23C73.41,-180.71 83.31,-180.86 92.83,-180.68"/>
<polygon fill="black" stroke="black" points="93.06,-184.17 102.94,-180.36 92.84,-177.18 93.06,-184.17"/>
</g>
<!-- 2 -->
<g id="node3" class="node">
<title>2</title>
<path fill="#ccff99" stroke="black" d="M218,-128C218,-128 249,-128 249,-128 255,-128 261,-134 261,-140 261,-140 261,-208 261,-208 261,-214 255,-220 249,-220 249,-220 218,-220 218,-220 212,-220 206,-214 206,-208 206,-208 206,-140 206,-140 206,-134 212,-128 218,-128"/>
<text text-anchor="middle" x="233.5" y="-204.8" font-family="Times New Roman,serif" font-size="14.00">idx: 2</text>
<polyline fill="none" stroke="black" points="206,-197 261,-197"/>
<text text-anchor="middle" x="233.5" y="-181.8" font-family="Times New Roman,serif" font-size="14.00">data: 1</text>
<polyline fill="none" stroke="black" points="206,-174 261,-174"/>
<text text-anchor="middle" x="233.5" y="-158.8" font-family="Times New Roman,serif" font-size="14.00">next: 3</text>
<polyline fill="none" stroke="black" points="206,-151 261,-151"/>
<text text-anchor="middle" x="233.5" y="-135.8" font-family="Times New Roman,serif" font-size="14.00">prev: 1</text>
</g>
<!-- 1&#45;&gt;2 -->
<g id="edge3" class="edge">
<title>1&#45;&gt;2</title>
<path fill="none" stroke="#696969" d="M170.19,-167.55C181.7,-167.07 194.49,-167.17 205.47,-167.84"/>
<polygon fill="#696969" stroke="#696969" points="205.73,-167.86 205.73,-167.86 205.73,-167.86 205.73,-167.86"/>
</g>
<!-- 1&#45;&gt;2 -->
<g id="edge16" class="edge">
<title>1&#45;&gt;2</title>
<path fill="none" stroke="black" d="M170.19,-180.45C178.35,-180.79 187.14,-180.84 195.49,-180.6"/>
<polygon fill="black" stroke="black" points="195.9,-184.09 205.73,-180.14 195.58,-177.09 195.9,-184.09"/>
</g>
<!-- 3 -->
<g id="node4" class="node">
<title>3</title>
<path fill="#ccff99" stroke="black" d="M309,-128C309,-128 340,-128 340,-128 346,-128 352,-134 352,-140 352,-140 352,-208 352,-208 352,-214 346,-220 340,-220 340,-220 309,-220 309,-220 303,-220 297,-214 297,-208 297,-208 297,-140 297,-140 297,-134 303,-128 309,-128"/>
<text text-anchor="middle" x="324.5" y="-204.8" font-family="Times New Roman,serif" font-size="14.00">idx: 3</text>
<polyline fill="none" stroke="black" points="297,-197 352,-197"/>
<text text-anchor="middle" x="324.5" y="-181.8" font-family="Times New Roman,serif" font-size="14.00">data: 2</text>
<polyline fill="none" stroke="black" points="297,-174 352,-174"/>
<text text-anchor="middle" x="324.5" y="-158.8" font-family="Times New Roman,serif" font-size="14.00">next: 4</text>
<polyline fill="none" stroke="black" points="297,-151 352,-151"/>
<text text-anchor="middle" x="324.5" y="-135.8" font-family="Times New Roman,serif" font-size="14.00">prev: 2</text>
</g>
<!-- 2&#45;&gt;3 -->
<g id="edge4" class="edge">
<title>2&#45;&gt;3</title>
<path fill="none" stroke="#696969" d="M261.2,-167.75C272.38,-167.09 285.35,-167.08 296.55,-167.74"/>
<polygon fill="#696969" stroke="#696969" points="296.82,-167.76 296.82,-167.76 296.82,-167.76 296.82,-167.76"/>
</g>
<!-- 2&#45;&gt;3 -->
<g id="edge17" class="edge">
<title>2&#45;&gt;3</title>
<path fill="none" stroke="black" d="M261.2,-180.25C269.21,-180.72 278.14,-180.86 286.68,-180.66"/>
<polygon fill="black" stroke="black" points="286.97,-184.15 296.82,-180.24 286.68,-177.16 286.97,-184.15"/>
</g>
<!-- 4 -->
<g id="node5" class="node">
<title>4</title>
<path fill="#ccff99" stroke="black" d="M400,-128C400,-128 443,-128 443,-128 449,-128 455,-134 455,-140 455,-140 455,-208 455,-208 455,-214 449,-220 443,-220 443,-220 400,-220 400,-220 394,-220 388,-214 388,-208 388,-208 388,-140 388,-140 388,-134 394,-128 400,-128"/>
<text text-anchor="middle" x="421.5" y="-204.8" font-family="Times New Roman,serif" font-size="14.00">idx: 4</text>
<polyline fill="none" stroke="black" points="388,-197 455,-197"/>
<text text-anchor="middle" x="421.5" y="-181.8" font-family="Times New Roman,serif" font-size="14.00">data: 300</text>
<polyline fill="none" stroke="black" points="388,-174 455,-174"/>
<text text-anchor="middle" x="421.5" y="-158.8" font-family="Times New Roman,serif" font-size="14.00">next: 5</text>
<polyline fill="none" stroke="black" points="388,-151 455,-151"/>
<text text-anchor="middle" x="421.5" y="-135.8" font-family="Times New Roman,serif" font-size="14.00">prev: 3</text>
</g>
<!-- 3&#45;&gt;4 -->
<g id="edge5" class="edge">
<title>3&#45;&gt;4</title>
<path fill="none" stroke="#696969" d="M352.22,-167.86C363.21,-167.17 376.07,-167.07 387.63,-167.54"/>
<polygon fill="#696969" stroke="#696969" points="387.91,-167.55 387.91,-167.55 387.91,-167.55 387.91,-167.55"/>
</g>
<!-- 3&#45;&gt;4 -->
<g id="edge18" class="edge">
<title>3&#45;&gt;4</title>
<path fill="none" stroke="black" d="M352.22,-180.14C360.18,-180.64 369.12,-180.83 377.84,-180.72"/>
<polygon fill="black" stroke="black" points="378.01,-184.22 387.91,-180.45 377.82,-177.22 378.01,-184.22"/>
</g>
<!-- 5 -->
<g id="node6" class="node">
<title>5</title>
<path fill="#ccff99" stroke="black" d="M503,-128C503,-128 534,-128 534,-128 540,-128 546,-134 546,-140 546,-140 546,-208 546,-208 546,-214 540,-220 534,-220 534,-220 503,-220 503,-220 497,-220 491,-214 491,-208 491,-208 491,-140 491,-140 491,-134 497,-128 503,-128"/>
<text text-anchor="middle" x="518.5" y="-204.8" font-family="Times New Roman,serif" font-size="14.00">idx: 5</text>
<polyline fill="none" stroke="black" points="491,-197 546,-197"/>
<text text-anchor="middle" x="518.5" y="-181.8" font-family="Times New Roman,serif" font-size="14.00">data: 4</text>
<polyline fill="none" stroke="black" points="491,-174 546,-174"/>
<text text-anchor="middle" x="518.5" y="-158.8" font-family="Times New Roman,serif" font-size="14.00">next: 6</text>
<polyline fill="none" stroke="black" points="491,-151 546,-151"/>
<text text-anchor="middle" x="518.5" y="-135.8" font-family="Times New Roman,serif" font-size="14.00">prev: 4</text>
</g>
<!-- 4&#45;&gt;5 -->
<g id="edge6" class="edge">
<title>4&#45;&gt;5</title>
<path fill="none" stroke="#696969" d="M455.19,-167.55C466.7,-167.07 479.49,-167.17 490.47,-167.84"/>
<polygon fill="#696969" stroke="#696969" points="490.73,-167.86 490.73,-167.86 490.73,-167.86 490.73,-167.86"/>
</g>
<!-- 4&#45;&gt;5 -->
<g id="edge19" class="edge">
<title>4&#45;&gt;5</title>
<path fill="none" stroke="black" d="M455.19,-180.45C463.35,-180.79 472.14,-180.84 480.49,-180.6"/>
<polygon fill="black" stroke="black" points="480.9,-184.09 490.73,-180.14 480.58,-177.09 480.9,-184.09"/>
</g>
<!-- 6 -->
<g id="node7" class="node">
<title>6</title>
<path fill="#ccff99" stroke="black" d="M594,-128C594,-128 637,-128 637,-128 643,-128 649,-134 649,-140 649,-140 649,-208 649,-208 649,-214 643,-220 637,-220 637,-220 594,-220 594,-220 588,-220 582,-214 582,-208 582,-208 582,-140 582,-140 582,-134 588,-128 594,-128"/>
<text text-anchor="middle" x="615.5" y="-204.8" font-family="Times New Roman,serif" font-size="14.00">idx: 6</text>
<polyline fill="none" stroke="black" points="582,-197 649,-197"/>
<text text-anchor="middle" x="615.5" y="-181.8" font-family="Times New Roman,serif" font-size="14.00">data: 200</text>
<polyline fill="none" stroke="black" points="582,-174 649,-174"/>
<text text-anchor="middle" x="615.5" y="-158.8" font-family="Times New Roman,serif" font-size="14.00">next: 7</text>
<polyline fill="none" stroke="black" points="582,-151 649,-151"/>
<text text-anchor="middle" x="615.5" y="-135.8" font-family="Times New Roman,serif" font-size="14.00">prev: 5</text>
</g>
<!-- 5&#45;&gt;6 -->
<g id="edge7" class="edge">
<title>5&#45;&gt;6</title>
<path fill="none" stroke="#696969" d="M546.22,-167.86C557.21,-167.17 570.07,-167.07 581.63,-167.54"/>
<polygon fill="#696969" stroke="#696969" points="581.91,-167.55 581.91,-167.55 581.91,-167.55 581.91,-167.55"/>
</g>
<!-- 5&#45;&gt;6 -->
<g id="edge20" class="edge">
<title>5&#45;&gt;6</title>
<path fill="none" stroke="black" d="M546.22,-180.14C554.18,-180.64 563.12,-180.83 571.84,-180.72"/>
<polygon fill="black" stroke="black" points="572.01,-184.22 581.91,-180.45 571.82,-177.22 572.01,-184.22"/>
</g>
<!-- 7 -->
<g id="node8" class="node">
<title>7</title>
<path fill="#ccff99" stroke="black" d="M697,-128C697,-128 728,-128 728,-128 734,-128 740,-134 740,-140 740,-140 740,-208 740,-208 740,-214 734,-220 728,-220 728,-220 697,-220 697,-220 691,-220 685,-214 685,-208 685,-208 685,-140 685,-140 685,-134 691,-128 697,-128"/>
<text text-anchor="middle" x="712.5" y="-204.8" font-family="Times New Roman,serif" font-size="14.00">idx: 7</text>
<polyline fill="none" stroke="black" points="685,-197 740,-197"/>
<text text-anchor="middle" x="712.5" y="-181.8" font-family="Times New Roman,serif" font-size="14.00">data: 5</text>
<polyline fill="none" stroke="black" points="685,-174 740,-174"/>
<text text-anchor="middle" x="712.5" y="-158.8" font-family="Times New Roman,serif" font-size="14.00">next: 8</text>
<polyline fill="none" stroke="black" points="685,-151 740,-151"/>
<text text-anchor="middle" x="712.5" y="-135.8" font-family="Times New Roman,serif" font-size="14.00">prev: 6</text>
</g>
<!-- 6&#45;&gt;7 -->
<g id="edge8" class="edge">
<title>6&#45;&gt;7</title>
<path fill="none" stroke="#696969" d="M649.19,-167.55C660.7,-167.07 673.49,-167.17 684.47,-167.84"/>
<polygon fill="#696969" stroke="#696969" points="684.73,-167.86 684.73,-167.86 684.73,-167.86 684.73,-167.86"/>
</g>
<!-- 6&#45;&gt;7 -->
<g id="edge21" class="edge">
<title>6&#45;&gt;7</title>
<path fill="none" stroke="black" d="M649.19,-180.45C657.35,-180.79 666.14,-180.84 674.49,-180.6"/>
<polygon fill="black" stroke="black" points="674.9,-184.09 684.73,-180.14 674.58,-177.09 674.9,-184.09"/>
</g>
<!-- 8 -->
<g id="node9" class="node">
<title>8</title>
<path fill="#ccff99" stroke="black" d="M788,-128C788,-128 819,-128 819,-128 825,-128 831,-134 831,-140 831,-140 831,-208 831,-208 831,-214 825,-220 819,-220 819,-220 788,-220 788,-220 782,-220 776,-214 776,-208 776,-208 776,-140 776,-140 776,-134 782,-128 788,-128"/>
<text text-anchor="middle" x="803.5" y="-204.8" font-family="Times New Roman,serif" font-size="14.00">idx: 8</text>
<polyline fill="none" stroke="black" points="776,-197 831,-197"/>
<text text-anchor="middle" x="803.5" y="-181.8" font-family="Times New Roman,serif" font-size="14.00">data: 6</text>
<polyline fill="none" stroke="black" points="776,-174 831,-174"/>
<text text-anchor="middle" x="803.5" y="-158.8" font-family="Times New Roman,serif" font-size="14.00">next: 9</text>
<polyline fill="none" stroke="black" points="776,-151 831,-151"/>
<text text-anchor="middle" x="803.5" y="-135.8" font-family="Times New Roman,serif" font-size="14.00">prev: 7</text>
</g>
<!-- 7&#45;&gt;8 -->
<g id="edge9" class="edge">
<title>7&#45;&gt;8</title>
<path fill="none" stroke="#696969" d="M740.2,-167.75C751.38,-167.09 764.35,-167.08 775.55,-167.74"/>
<polygon fill="#696969" stroke="#696969" points="775.82,-167.76 775.82,-167.76 775.82,-167.76 775.82,-167.76"/>
</g>
<!-- 7&#45;&gt;8 -->
<g id="edge22" class="edge">
<title>7&#45;&gt;8</title>
<path fill="none" stroke="black" d="M740.2,-180.25C748.21,-180.72 757.14,-180.86 765.68,-180.66"/>
<polygon fill="black" stroke="black" points="765.97,-184.15 775.82,-180.24 765.68,-177.16 765.97,-184.15"/>
</g>
<!-- 9 -->
<g id="node10" class="node">
<title>9</title>
<path fill="#ccff99" stroke="black" d="M879,-128C879,-128 915,-128 915,-128 921,-128 927,-134 927,-140 927,-140 927,-208 927,-208 927,-214 921,-220 915,-220 915,-220 879,-220 879,-220 873,-220 867,-214 867,-208 867,-208 867,-140 867,-140 867,-134 873,-128 879,-128"/>
<text text-anchor="middle" x="897" y="-204.8" font-family="Times New Roman,serif" font-size="14.00">idx: 9</text>
<polyline fill="none" stroke="black" points="867,-197 927,-197"/>
<text text-anchor="middle" x="897" y="-181.8" font-family="Times New Roman,serif" font-size="14.00">data: 7</text>
<polyline fill="none" stroke="black" points="867,-174 927,-174"/>
<text text-anchor="middle" x="897" y="-158.8" font-family="Times New Roman,serif" font-size="14.00">next: 10</text>
<polyline fill="none" stroke="black" points="867,-151 927,-151"/>
<text text-anchor="middle" x="897" y="-135.8" font-family="Times New Roman,serif" font-size="14.00">prev: 8</text>
</g>
<!-- 8&#45;&gt;9 -->
<g id="edge10" class="edge">
<title>8&#45;&gt;9</title>
<path fill="none" stroke="#696969" d="M831.46,-167.78C842.44,-167.12 855.17,-167.08 866.41,-167.64"/>
<polygon fill="#696969" stroke="#696969" points="866.68,-167.65 866.68,-167.65 866.68,-167.65 866.68,-167.65"/>
</g>
<!-- 8&#45;&gt;9 -->
<g id="edge23" class="edge">
<title>8&#45;&gt;9</title>
<path fill="none" stroke="black" d="M831.46,-180.22C839.33,-180.69 848.1,-180.85 856.57,-180.69"/>
<polygon fill="black" stroke="black" points="856.8,-184.19 866.68,-180.35 856.57,-177.19 856.8,-184.19"/>
</g>
<!-- 10 -->
<g id="node11" class="node">
<title>10</title>
<path fill="#ccff99" stroke="black" d="M975,-128C975,-128 1018,-128 1018,-128 1024,-128 1030,-134 1030,-140 1030,-140 1030,-208 1030,-208 1030,-214 1024,-220 1018,-220 1018,-220 975,-220 975,-220 969,-220 963,-214 963,-208 963,-208 963,-140 963,-140 963,-134 969,-128 975,-128"/>
<text text-anchor="middle" x="996.5" y="-204.8" font-family="Times New Roman,serif" font-size="14.00">idx: 10</text>
<polyline fill="none" stroke="black" points="963,-197 1030,-197"/>
<text text-anchor="middle" x="996.5" y="-181.8" font-family="Times New Roman,serif" font-size="14.00">data: 400</text>
<polyline fill="none" stroke="black" points="963,-174 1030,-174"/>
<text text-anchor="middle" x="996.5" y="-158.8" font-family="Times New Roman,serif" font-size="14.00">next: 0</text>
<polyline fill="none" stroke="black" points="963,-151 1030,-151"/>
<text text-anchor="middle" x="996.5" y="-135.8" font-family="Times New Roman,serif" font-size="14.00">prev: 9</text>
</g>
<!-- 9&#45;&gt;10 -->
<g id="edge11" class="edge">
<title>9&#45;&gt;10</title>
<path fill="none" stroke="#696969" d="M927.25,-167.75C938.38,-167.15 951.14,-167.09 962.59,-167.58"/>
<polygon fill="#696969" stroke="#696969" points="962.86,-167.59 962.86,-167.59 962.86,-167.59 962.86,-167.59"/>
</g>
<!-- 9&#45;&gt;10 -->
<g id="edge24" class="edge">
<title>9&#45;&gt;10</title>
<path fill="none" stroke="black" d="M927.25,-180.25C935.23,-180.68 944.04,-180.83 952.6,-180.71"/>
<polygon fill="black" stroke="black" points="952.96,-184.2 962.86,-180.41 952.76,-177.2 952.96,-184.2"/>
</g>
<!-- 10&#45;&gt;0 -->
<g id="edge25" class="edge">
<title>10&#45;&gt;0</title>
<path fill="none" stroke="black" d="M962.73,-139.79C927.19,-106.53 867.11,-61 804.5,-61 232.5,-61 232.5,-61 232.5,-61 170.24,-61 109.73,-103.67 72.33,-136.57"/>
<polygon fill="black" stroke="black" points="69.8,-134.13 64.71,-143.42 74.48,-139.34 69.8,-134.13"/>
</g>
<!-- head -->
<g id="node12" class="node">
<title>head</title>
<path fill="#ccff99" stroke="black" d="M1078,-156C1078,-156 1110,-156 1110,-156 1116,-156 1122,-162 1122,-168 1122,-168 1122,-180 1122,-180 1122,-186 1116,-192 1110,-192 1110,-192 1078,-192 1078,-192 1072,-192 1066,-186 1066,-180 1066,-180 1066,-168 1066,-168 1066,-162 1072,-156 1078,-156"/>
<text text-anchor="middle" x="1094" y="-170.3" font-family="Times New Roman,serif" font-size="14.00">head: 1</text>
</g>
<!-- 10&#45;&gt;head -->
<g id="edge12" class="edge">
<title>10&#45;&gt;head</title>
<path fill="none" stroke="#696969" d="M1030.1,-174C1041.68,-174 1054.59,-174 1065.68,-174"/>
<polygon fill="#696969" stroke="#696969" points="1065.94,-174 1065.94,-174 1065.94,-174 1065.94,-174"/>
</g>
<!-- head&#45;&gt;1 -->
<g id="edge26" class="edge">
<title>head&#45;&gt;1</title>
<path fill="none" stroke="black" d="M1077.53,-155.89C1065.8,-143.42 1048.57,-127.61 1030,-119 976.17,-94.05 957.34,-99 898,-99 323.5,-99 323.5,-99 323.5,-99 270.53,-99 254.31,-97.28 206,-119 196.3,-123.36 186.81,-129.43 178.12,-135.94"/>
<polygon fill="black" stroke="black" points="175.75,-133.35 170.06,-142.29 180.08,-138.85 175.75,-133.35"/>
</g>
<!-- tail -->
<g id="node13" class="node">
<title>tail</title>
<path fill="#ccff99" stroke="black" d="M1170,-156C1170,-156 1200,-156 1200,-156 1206,-156 1212,-162 1212,-168 1212,-168 1212,-180 1212,-180 1212,-186 1206,-192 1200,-192 1200,-192 1170,-192 1170,-192 1164,-192 1158,-186 1158,-180 1158,-180 1158,-168 1158,-168 1158,-162 1164,-156 1170,-156"/>
<text text-anchor="middle" x="1185" y="-170.3" font-family="Times New Roman,serif" font-size="14.00">tail: 10</text>
</g>
<!-- head&#45;&gt;tail -->
<g id="edge13" class="edge">
<title>head&#45;&gt;tail</title>
<path fill="none" stroke="#696969" d="M1122.19,-174C1133.45,-174 1146.46,-174 1157.63,-174"/>
<polygon fill="#696969" stroke="#696969" points="1157.89,-174 1157.89,-174 1157.89,-174 1157.89,-174"/>
</g>
<!-- tail&#45;&gt;10 -->
<g id="edge27" class="edge">
<title>tail&#45;&gt;10</title>
<path fill="none" stroke="black" d="M1157.99,-188.71C1147.21,-194.01 1134.35,-199.34 1122,-202 1097.67,-207.24 1090.42,-206.8 1066,-202 1057.21,-200.27 1048.12,-197.41 1039.55,-194.15"/>
<polygon fill="black" stroke="black" points="1040.73,-190.85 1030.14,-190.35 1038.11,-197.34 1040.73,-190.85"/>
</g>
<!-- free -->
<g id="node14" class="node">
<title>free</title>
<path fill="#00bfff" stroke="black" d="M1260,-156C1260,-156 1290,-156 1290,-156 1296,-156 1302,-162 1302,-168 1302,-168 1302,-180 1302,-180 1302,-186 1296,-192 1290,-192 1290,-192 1260,-192 1260,-192 1254,-192 1248,-186 1248,-180 1248,-180 1248,-168 1248,-168 1248,-162 1254,-156 1260,-156"/>
<text text-anchor="middle" x="1275" y="-170.3" font-family="Times New Roman,serif" font-size="14.00">free: 0</text>
</g>
<!-- tail&#45;&gt;free -->
<g id="edge14" class="edge">
<title>tail&#45;&gt;free</title>
<path fill="none" stroke="#696969" d="M1212.4,-174C1223.55,-174 1236.51,-174 1247.66,-174"/>
<polygon fill="#696969" stroke="#696969" points="1247.92,-174 1247.92,-174 1247.92,-174 1247.92,-174"/>
</g>
<!-- free&#45;&gt;0 -->
<g id="edge28" class="edge">
<title>free&#45;&gt;0</title>
<path fill="none" stroke="black" d="M1263.9,-155.79C1240.15,-115.62 1176.52,-23 1095,-23 232.5,-23 232.5,-23 232.5,-23 171.12,-23 151.13,-32.91 103,-71 86.72,-83.88 72.97,-101.72 62.16,-118.93"/>
<polygon fill="black" stroke="black" points="58.95,-117.48 56.78,-127.85 64.94,-121.1 58.95,-117.48"/>
</g>
<!-- All -->
<g id="node15" class="node">
<title>All</title>
<path fill="#8b00ff" stroke="black" d="M12,-257C12,-257 55,-257 55,-257 61,-257 67,-263 67,-269 67,-269 67,-281 67,-281 67,-287 61,-293 55,-293 55,-293 12,-293 12,-293 6,-293 0,-287 0,-281 0,-281 0,-269 0,-269 0,-263 6,-257 12,-257"/>
<text text-anchor="middle" x="33.5" y="-271.3" font-family="Times New Roman,serif" font-size="14.00">size = 11</text>
</g>
</g>
</svg>
