<?xml version="1.0" encoding="UTF-8" standalone="no"?>
<!DOCTYPE svg PUBLIC "-//W3C//DTD SVG 1.1//EN"
 "http://www.w3.org/Graphics/SVG/1.1/DTD/svg11.dtd">
<!-- Generated by graphviz version 6.0.2 (20221011.1828)
 -->
<!-- Title: List Pages: 1 -->
<svg width="1476pt" height="275pt"
 viewBox="0.00 0.00 1476.00 274.69" xmlns="http://www.w3.org/2000/svg" xmlns:xlink="http://www.w3.org/1999/xlink">
<g id="graph0" class="graph" transform="scale(1 1) rotate(0) translate(4 270.69)">
<title>List</title>
<polygon fill="#b8860b" stroke="none" points="-4,4 -4,-270.69 1472,-270.69 1472,4 -4,4"/>
<text text-anchor="middle" x="734" y="-7.8" font-family="Times New Roman,serif" font-size="14.00">list_dump from function main, List/main.cpp:28</text>
<!-- 0 -->
<g id="node1" class="node">
<title>0</title>
<path fill="#8b00ff" stroke="black" d="M51.5,-73.19C51.5,-73.19 82.5,-73.19 82.5,-73.19 88.5,-73.19 94.5,-79.19 94.5,-85.19 94.5,-85.19 94.5,-153.19 94.5,-153.19 94.5,-159.19 88.5,-165.19 82.5,-165.19 82.5,-165.19 51.5,-165.19 51.5,-165.19 45.5,-165.19 39.5,-159.19 39.5,-153.19 39.5,-153.19 39.5,-85.19 39.5,-85.19 39.5,-79.19 45.5,-73.19 51.5,-73.19"/>
<text text-anchor="middle" x="67" y="-149.99" font-family="Times New Roman,serif" font-size="14.00">idx: 0</text>
<polyline fill="none" stroke="black" points="39.5,-142.19 94.5,-142.19"/>
<text text-anchor="middle" x="67" y="-126.99" font-family="Times New Roman,serif" font-size="14.00">data: 0</text>
<polyline fill="none" stroke="black" points="39.5,-119.19 94.5,-119.19"/>
<text text-anchor="middle" x="67" y="-103.99" font-family="Times New Roman,serif" font-size="14.00">next: 1</text>
<polyline fill="none" stroke="black" points="39.5,-96.19 94.5,-96.19"/>
<text text-anchor="middle" x="67" y="-80.99" font-family="Times New Roman,serif" font-size="14.00">prev: 0</text>
</g>
<!-- 0&#45;&gt;0 -->
<g id="edge1" class="edge">
<title>0&#45;&gt;0</title>
<path fill="none" stroke="#b8860b" d="M54.49,-165.28C55.56,-175.89 59.74,-183.69 67,-183.69 74.15,-183.69 78.31,-176.14 79.46,-165.78"/>
<polygon fill="#b8860b" stroke="#b8860b" points="79.51,-165.28 79.51,-165.28 79.51,-165.28 79.51,-165.28"/>
</g>
<!-- 0&#45;&gt;0 -->
<g id="edge16" class="edge">
<title>0&#45;&gt;0</title>
<path fill="none" stroke="black" d="M41.67,-165.42C39.76,-185 48.2,-201.69 67,-201.69 82.42,-201.69 90.87,-190.46 92.36,-175.62"/>
<polygon fill="black" stroke="black" points="95.86,-175.41 92.33,-165.42 88.86,-175.43 95.86,-175.41"/>
</g>
<!-- 1 -->
<g id="node2" class="node">
<title>1</title>
<path fill="#ccff99" stroke="black" d="M182,-73.19C182,-73.19 225,-73.19 225,-73.19 231,-73.19 237,-79.19 237,-85.19 237,-85.19 237,-153.19 237,-153.19 237,-159.19 231,-165.19 225,-165.19 225,-165.19 182,-165.19 182,-165.19 176,-165.19 170,-159.19 170,-153.19 170,-153.19 170,-85.19 170,-85.19 170,-79.19 176,-73.19 182,-73.19"/>
<text text-anchor="middle" x="203.5" y="-149.99" font-family="Times New Roman,serif" font-size="14.00">idx: 1</text>
<polyline fill="none" stroke="black" points="170,-142.19 237,-142.19"/>
<text text-anchor="middle" x="203.5" y="-126.99" font-family="Times New Roman,serif" font-size="14.00">data: 100</text>
<polyline fill="none" stroke="black" points="170,-119.19 237,-119.19"/>
<text text-anchor="middle" x="203.5" y="-103.99" font-family="Times New Roman,serif" font-size="14.00">next: 2</text>
<polyline fill="none" stroke="black" points="170,-96.19 237,-96.19"/>
<text text-anchor="middle" x="203.5" y="-80.99" font-family="Times New Roman,serif" font-size="14.00">prev: 0</text>
</g>
<!-- 0&#45;&gt;1 -->
<g id="edge2" class="edge">
<title>0&#45;&gt;1</title>
<path fill="none" stroke="#b8860b" d="M94.57,-113.69C116.08,-112.17 146.47,-112.04 169.53,-113.29"/>
<polygon fill="#b8860b" stroke="#b8860b" points="169.8,-113.3 169.8,-113.3 169.8,-113.3 169.8,-113.3"/>
</g>
<!-- 0&#45;&gt;1 -->
<g id="edge17" class="edge">
<title>0&#45;&gt;1</title>
<path fill="none" stroke="black" d="M94.57,-124.69C113.13,-126 138.3,-126.28 159.66,-125.53"/>
<polygon fill="black" stroke="black" points="159.96,-129.02 169.8,-125.08 159.65,-122.02 159.96,-129.02"/>
</g>
<!-- 2 -->
<g id="node3" class="node">
<title>2</title>
<path fill="#ccff99" stroke="black" d="M285,-73.19C285,-73.19 316,-73.19 316,-73.19 322,-73.19 328,-79.19 328,-85.19 328,-85.19 328,-153.19 328,-153.19 328,-159.19 322,-165.19 316,-165.19 316,-165.19 285,-165.19 285,-165.19 279,-165.19 273,-159.19 273,-153.19 273,-153.19 273,-85.19 273,-85.19 273,-79.19 279,-73.19 285,-73.19"/>
<text text-anchor="middle" x="300.5" y="-149.99" font-family="Times New Roman,serif" font-size="14.00">idx: 2</text>
<polyline fill="none" stroke="black" points="273,-142.19 328,-142.19"/>
<text text-anchor="middle" x="300.5" y="-126.99" font-family="Times New Roman,serif" font-size="14.00">data: 1</text>
<polyline fill="none" stroke="black" points="273,-119.19 328,-119.19"/>
<text text-anchor="middle" x="300.5" y="-103.99" font-family="Times New Roman,serif" font-size="14.00">next: 3</text>
<polyline fill="none" stroke="black" points="273,-96.19 328,-96.19"/>
<text text-anchor="middle" x="300.5" y="-80.99" font-family="Times New Roman,serif" font-size="14.00">prev: 1</text>
</g>
<!-- 1&#45;&gt;2 -->
<g id="edge3" class="edge">
<title>1&#45;&gt;2</title>
<path fill="none" stroke="#b8860b" d="M237.19,-112.74C248.7,-112.26 261.49,-112.36 272.47,-113.03"/>
<polygon fill="#b8860b" stroke="#b8860b" points="272.73,-113.05 272.73,-113.05 272.73,-113.05 272.73,-113.05"/>
</g>
<!-- 1&#45;&gt;2 -->
<g id="edge18" class="edge">
<title>1&#45;&gt;2</title>
<path fill="none" stroke="black" d="M237.19,-125.64C245.35,-125.98 254.14,-126.03 262.49,-125.79"/>
<polygon fill="black" stroke="black" points="262.9,-129.28 272.73,-125.33 262.58,-122.28 262.9,-129.28"/>
</g>
<!-- 3 -->
<g id="node4" class="node">
<title>3</title>
<path fill="#ccff99" stroke="black" d="M376,-73.19C376,-73.19 407,-73.19 407,-73.19 413,-73.19 419,-79.19 419,-85.19 419,-85.19 419,-153.19 419,-153.19 419,-159.19 413,-165.19 407,-165.19 407,-165.19 376,-165.19 376,-165.19 370,-165.19 364,-159.19 364,-153.19 364,-153.19 364,-85.19 364,-85.19 364,-79.19 370,-73.19 376,-73.19"/>
<text text-anchor="middle" x="391.5" y="-149.99" font-family="Times New Roman,serif" font-size="14.00">idx: 3</text>
<polyline fill="none" stroke="black" points="364,-142.19 419,-142.19"/>
<text text-anchor="middle" x="391.5" y="-126.99" font-family="Times New Roman,serif" font-size="14.00">data: 2</text>
<polyline fill="none" stroke="black" points="364,-119.19 419,-119.19"/>
<text text-anchor="middle" x="391.5" y="-103.99" font-family="Times New Roman,serif" font-size="14.00">next: 4</text>
<polyline fill="none" stroke="black" points="364,-96.19 419,-96.19"/>
<text text-anchor="middle" x="391.5" y="-80.99" font-family="Times New Roman,serif" font-size="14.00">prev: 2</text>
</g>
<!-- 2&#45;&gt;3 -->
<g id="edge4" class="edge">
<title>2&#45;&gt;3</title>
<path fill="none" stroke="#b8860b" d="M328.2,-112.94C339.38,-112.28 352.35,-112.27 363.55,-112.93"/>
<polygon fill="#b8860b" stroke="#b8860b" points="363.82,-112.94 363.82,-112.94 363.82,-112.94 363.82,-112.94"/>
</g>
<!-- 2&#45;&gt;3 -->
<g id="edge19" class="edge">
<title>2&#45;&gt;3</title>
<path fill="none" stroke="black" d="M328.2,-125.43C336.21,-125.91 345.14,-126.05 353.68,-125.85"/>
<polygon fill="black" stroke="black" points="353.97,-129.34 363.82,-125.43 353.68,-122.35 353.97,-129.34"/>
</g>
<!-- 4 -->
<g id="node5" class="node">
<title>4</title>
<path fill="#ccff99" stroke="black" d="M467,-73.19C467,-73.19 510,-73.19 510,-73.19 516,-73.19 522,-79.19 522,-85.19 522,-85.19 522,-153.19 522,-153.19 522,-159.19 516,-165.19 510,-165.19 510,-165.19 467,-165.19 467,-165.19 461,-165.19 455,-159.19 455,-153.19 455,-153.19 455,-85.19 455,-85.19 455,-79.19 461,-73.19 467,-73.19"/>
<text text-anchor="middle" x="488.5" y="-149.99" font-family="Times New Roman,serif" font-size="14.00">idx: 4</text>
<polyline fill="none" stroke="black" points="455,-142.19 522,-142.19"/>
<text text-anchor="middle" x="488.5" y="-126.99" font-family="Times New Roman,serif" font-size="14.00">data: 300</text>
<polyline fill="none" stroke="black" points="455,-119.19 522,-119.19"/>
<text text-anchor="middle" x="488.5" y="-103.99" font-family="Times New Roman,serif" font-size="14.00">next: 5</text>
<polyline fill="none" stroke="black" points="455,-96.19 522,-96.19"/>
<text text-anchor="middle" x="488.5" y="-80.99" font-family="Times New Roman,serif" font-size="14.00">prev: 3</text>
</g>
<!-- 3&#45;&gt;4 -->
<g id="edge5" class="edge">
<title>3&#45;&gt;4</title>
<path fill="none" stroke="#b8860b" d="M419.22,-113.05C430.21,-112.36 443.07,-112.25 454.63,-112.73"/>
<polygon fill="#b8860b" stroke="#b8860b" points="454.91,-112.74 454.91,-112.74 454.91,-112.74 454.91,-112.74"/>
</g>
<!-- 3&#45;&gt;4 -->
<g id="edge20" class="edge">
<title>3&#45;&gt;4</title>
<path fill="none" stroke="black" d="M419.22,-125.33C427.18,-125.83 436.12,-126.02 444.84,-125.91"/>
<polygon fill="black" stroke="black" points="445.01,-129.4 454.91,-125.63 444.82,-122.41 445.01,-129.4"/>
</g>
<!-- 5 -->
<g id="node6" class="node">
<title>5</title>
<path fill="#ccff99" stroke="black" d="M570,-73.19C570,-73.19 601,-73.19 601,-73.19 607,-73.19 613,-79.19 613,-85.19 613,-85.19 613,-153.19 613,-153.19 613,-159.19 607,-165.19 601,-165.19 601,-165.19 570,-165.19 570,-165.19 564,-165.19 558,-159.19 558,-153.19 558,-153.19 558,-85.19 558,-85.19 558,-79.19 564,-73.19 570,-73.19"/>
<text text-anchor="middle" x="585.5" y="-149.99" font-family="Times New Roman,serif" font-size="14.00">idx: 5</text>
<polyline fill="none" stroke="black" points="558,-142.19 613,-142.19"/>
<text text-anchor="middle" x="585.5" y="-126.99" font-family="Times New Roman,serif" font-size="14.00">data: 3</text>
<polyline fill="none" stroke="black" points="558,-119.19 613,-119.19"/>
<text text-anchor="middle" x="585.5" y="-103.99" font-family="Times New Roman,serif" font-size="14.00">next: 6</text>
<polyline fill="none" stroke="black" points="558,-96.19 613,-96.19"/>
<text text-anchor="middle" x="585.5" y="-80.99" font-family="Times New Roman,serif" font-size="14.00">prev: 4</text>
</g>
<!-- 4&#45;&gt;5 -->
<g id="edge6" class="edge">
<title>4&#45;&gt;5</title>
<path fill="none" stroke="#b8860b" d="M522.19,-112.74C533.7,-112.26 546.49,-112.36 557.47,-113.03"/>
<polygon fill="#b8860b" stroke="#b8860b" points="557.73,-113.05 557.73,-113.05 557.73,-113.05 557.73,-113.05"/>
</g>
<!-- 4&#45;&gt;5 -->
<g id="edge21" class="edge">
<title>4&#45;&gt;5</title>
<path fill="none" stroke="black" d="M522.19,-125.64C530.35,-125.98 539.14,-126.03 547.49,-125.79"/>
<polygon fill="black" stroke="black" points="547.9,-129.28 557.73,-125.33 547.58,-122.28 547.9,-129.28"/>
</g>
<!-- 6 -->
<g id="node7" class="node">
<title>6</title>
<path fill="#ccff99" stroke="black" d="M661,-73.19C661,-73.19 704,-73.19 704,-73.19 710,-73.19 716,-79.19 716,-85.19 716,-85.19 716,-153.19 716,-153.19 716,-159.19 710,-165.19 704,-165.19 704,-165.19 661,-165.19 661,-165.19 655,-165.19 649,-159.19 649,-153.19 649,-153.19 649,-85.19 649,-85.19 649,-79.19 655,-73.19 661,-73.19"/>
<text text-anchor="middle" x="682.5" y="-149.99" font-family="Times New Roman,serif" font-size="14.00">idx: 6</text>
<polyline fill="none" stroke="black" points="649,-142.19 716,-142.19"/>
<text text-anchor="middle" x="682.5" y="-126.99" font-family="Times New Roman,serif" font-size="14.00">data: 200</text>
<polyline fill="none" stroke="black" points="649,-119.19 716,-119.19"/>
<text text-anchor="middle" x="682.5" y="-103.99" font-family="Times New Roman,serif" font-size="14.00">next: 7</text>
<polyline fill="none" stroke="black" points="649,-96.19 716,-96.19"/>
<text text-anchor="middle" x="682.5" y="-80.99" font-family="Times New Roman,serif" font-size="14.00">prev: 5</text>
</g>
<!-- 5&#45;&gt;6 -->
<g id="edge7" class="edge">
<title>5&#45;&gt;6</title>
<path fill="none" stroke="#b8860b" d="M613.22,-113.05C624.21,-112.36 637.07,-112.25 648.63,-112.73"/>
<polygon fill="#b8860b" stroke="#b8860b" points="648.91,-112.74 648.91,-112.74 648.91,-112.74 648.91,-112.74"/>
</g>
<!-- 5&#45;&gt;6 -->
<g id="edge22" class="edge">
<title>5&#45;&gt;6</title>
<path fill="none" stroke="black" d="M613.22,-125.33C621.18,-125.83 630.12,-126.02 638.84,-125.91"/>
<polygon fill="black" stroke="black" points="639.01,-129.4 648.91,-125.63 638.82,-122.41 639.01,-129.4"/>
</g>
<!-- 7 -->
<g id="node8" class="node">
<title>7</title>
<path fill="#ccff99" stroke="black" d="M764,-73.19C764,-73.19 795,-73.19 795,-73.19 801,-73.19 807,-79.19 807,-85.19 807,-85.19 807,-153.19 807,-153.19 807,-159.19 801,-165.19 795,-165.19 795,-165.19 764,-165.19 764,-165.19 758,-165.19 752,-159.19 752,-153.19 752,-153.19 752,-85.19 752,-85.19 752,-79.19 758,-73.19 764,-73.19"/>
<text text-anchor="middle" x="779.5" y="-149.99" font-family="Times New Roman,serif" font-size="14.00">idx: 7</text>
<polyline fill="none" stroke="black" points="752,-142.19 807,-142.19"/>
<text text-anchor="middle" x="779.5" y="-126.99" font-family="Times New Roman,serif" font-size="14.00">data: 4</text>
<polyline fill="none" stroke="black" points="752,-119.19 807,-119.19"/>
<text text-anchor="middle" x="779.5" y="-103.99" font-family="Times New Roman,serif" font-size="14.00">next: 8</text>
<polyline fill="none" stroke="black" points="752,-96.19 807,-96.19"/>
<text text-anchor="middle" x="779.5" y="-80.99" font-family="Times New Roman,serif" font-size="14.00">prev: 6</text>
</g>
<!-- 6&#45;&gt;7 -->
<g id="edge8" class="edge">
<title>6&#45;&gt;7</title>
<path fill="none" stroke="#b8860b" d="M716.19,-112.74C727.7,-112.26 740.49,-112.36 751.47,-113.03"/>
<polygon fill="#b8860b" stroke="#b8860b" points="751.73,-113.05 751.73,-113.05 751.73,-113.05 751.73,-113.05"/>
</g>
<!-- 6&#45;&gt;7 -->
<g id="edge23" class="edge">
<title>6&#45;&gt;7</title>
<path fill="none" stroke="black" d="M716.19,-125.64C724.35,-125.98 733.14,-126.03 741.49,-125.79"/>
<polygon fill="black" stroke="black" points="741.9,-129.28 751.73,-125.33 741.58,-122.28 741.9,-129.28"/>
</g>
<!-- 8 -->
<g id="node9" class="node">
<title>8</title>
<path fill="#ccff99" stroke="black" d="M855,-73.19C855,-73.19 886,-73.19 886,-73.19 892,-73.19 898,-79.19 898,-85.19 898,-85.19 898,-153.19 898,-153.19 898,-159.19 892,-165.19 886,-165.19 886,-165.19 855,-165.19 855,-165.19 849,-165.19 843,-159.19 843,-153.19 843,-153.19 843,-85.19 843,-85.19 843,-79.19 849,-73.19 855,-73.19"/>
<text text-anchor="middle" x="870.5" y="-149.99" font-family="Times New Roman,serif" font-size="14.00">idx: 8</text>
<polyline fill="none" stroke="black" points="843,-142.19 898,-142.19"/>
<text text-anchor="middle" x="870.5" y="-126.99" font-family="Times New Roman,serif" font-size="14.00">data: 5</text>
<polyline fill="none" stroke="black" points="843,-119.19 898,-119.19"/>
<text text-anchor="middle" x="870.5" y="-103.99" font-family="Times New Roman,serif" font-size="14.00">next: 9</text>
<polyline fill="none" stroke="black" points="843,-96.19 898,-96.19"/>
<text text-anchor="middle" x="870.5" y="-80.99" font-family="Times New Roman,serif" font-size="14.00">prev: 7</text>
</g>
<!-- 7&#45;&gt;8 -->
<g id="edge9" class="edge">
<title>7&#45;&gt;8</title>
<path fill="none" stroke="#b8860b" d="M807.2,-112.94C818.38,-112.28 831.35,-112.27 842.55,-112.93"/>
<polygon fill="#b8860b" stroke="#b8860b" points="842.82,-112.94 842.82,-112.94 842.82,-112.94 842.82,-112.94"/>
</g>
<!-- 7&#45;&gt;8 -->
<g id="edge24" class="edge">
<title>7&#45;&gt;8</title>
<path fill="none" stroke="black" d="M807.2,-125.43C815.21,-125.91 824.14,-126.05 832.68,-125.85"/>
<polygon fill="black" stroke="black" points="832.97,-129.34 842.82,-125.43 832.68,-122.35 832.97,-129.34"/>
</g>
<!-- 9 -->
<g id="node10" class="node">
<title>9</title>
<path fill="#ccff99" stroke="black" d="M946,-73.19C946,-73.19 982,-73.19 982,-73.19 988,-73.19 994,-79.19 994,-85.19 994,-85.19 994,-153.19 994,-153.19 994,-159.19 988,-165.19 982,-165.19 982,-165.19 946,-165.19 946,-165.19 940,-165.19 934,-159.19 934,-153.19 934,-153.19 934,-85.19 934,-85.19 934,-79.19 940,-73.19 946,-73.19"/>
<text text-anchor="middle" x="964" y="-149.99" font-family="Times New Roman,serif" font-size="14.00">idx: 9</text>
<polyline fill="none" stroke="black" points="934,-142.19 994,-142.19"/>
<text text-anchor="middle" x="964" y="-126.99" font-family="Times New Roman,serif" font-size="14.00">data: 6</text>
<polyline fill="none" stroke="black" points="934,-119.19 994,-119.19"/>
<text text-anchor="middle" x="964" y="-103.99" font-family="Times New Roman,serif" font-size="14.00">next: 10</text>
<polyline fill="none" stroke="black" points="934,-96.19 994,-96.19"/>
<text text-anchor="middle" x="964" y="-80.99" font-family="Times New Roman,serif" font-size="14.00">prev: 8</text>
</g>
<!-- 8&#45;&gt;9 -->
<g id="edge10" class="edge">
<title>8&#45;&gt;9</title>
<path fill="none" stroke="#b8860b" d="M898.46,-112.97C909.44,-112.31 922.17,-112.26 933.41,-112.83"/>
<polygon fill="#b8860b" stroke="#b8860b" points="933.68,-112.84 933.68,-112.84 933.68,-112.84 933.68,-112.84"/>
</g>
<!-- 8&#45;&gt;9 -->
<g id="edge25" class="edge">
<title>8&#45;&gt;9</title>
<path fill="none" stroke="black" d="M898.46,-125.41C906.33,-125.88 915.1,-126.04 923.57,-125.88"/>
<polygon fill="black" stroke="black" points="923.8,-129.38 933.68,-125.54 923.57,-122.38 923.8,-129.38"/>
</g>
<!-- 10 -->
<g id="node11" class="node">
<title>10</title>
<path fill="#ccff99" stroke="black" d="M1042,-73.19C1042,-73.19 1085,-73.19 1085,-73.19 1091,-73.19 1097,-79.19 1097,-85.19 1097,-85.19 1097,-153.19 1097,-153.19 1097,-159.19 1091,-165.19 1085,-165.19 1085,-165.19 1042,-165.19 1042,-165.19 1036,-165.19 1030,-159.19 1030,-153.19 1030,-153.19 1030,-85.19 1030,-85.19 1030,-79.19 1036,-73.19 1042,-73.19"/>
<text text-anchor="middle" x="1063.5" y="-149.99" font-family="Times New Roman,serif" font-size="14.00">idx: 10</text>
<polyline fill="none" stroke="black" points="1030,-142.19 1097,-142.19"/>
<text text-anchor="middle" x="1063.5" y="-126.99" font-family="Times New Roman,serif" font-size="14.00">data: 400</text>
<polyline fill="none" stroke="black" points="1030,-119.19 1097,-119.19"/>
<text text-anchor="middle" x="1063.5" y="-103.99" font-family="Times New Roman,serif" font-size="14.00">next: 0</text>
<polyline fill="none" stroke="black" points="1030,-96.19 1097,-96.19"/>
<text text-anchor="middle" x="1063.5" y="-80.99" font-family="Times New Roman,serif" font-size="14.00">prev: 9</text>
</g>
<!-- 9&#45;&gt;10 -->
<g id="edge11" class="edge">
<title>9&#45;&gt;10</title>
<path fill="none" stroke="#b8860b" d="M994.25,-112.94C1005.38,-112.34 1018.14,-112.28 1029.59,-112.77"/>
<polygon fill="#b8860b" stroke="#b8860b" points="1029.86,-112.78 1029.86,-112.78 1029.86,-112.78 1029.86,-112.78"/>
</g>
<!-- 9&#45;&gt;10 -->
<g id="edge26" class="edge">
<title>9&#45;&gt;10</title>
<path fill="none" stroke="black" d="M994.25,-125.43C1002.23,-125.87 1011.04,-126.02 1019.6,-125.9"/>
<polygon fill="black" stroke="black" points="1019.96,-129.39 1029.86,-125.6 1019.76,-122.39 1019.96,-129.39"/>
</g>
<!-- 10&#45;&gt;0 -->
<g id="edge27" class="edge">
<title>10&#45;&gt;0</title>
<path fill="none" stroke="black" d="M1029.72,-86.48C1019.11,-77.61 1006.77,-68.88 994,-63.19 943.68,-40.74 926.6,-44.19 871.5,-44.19 299.5,-44.19 299.5,-44.19 299.5,-44.19 241.33,-44.19 225.15,-44.68 170,-63.19 146.69,-71.01 122.49,-84.06 103.51,-95.59"/>
<polygon fill="black" stroke="black" points="101.56,-92.68 94.91,-100.93 105.25,-98.63 101.56,-92.68"/>
</g>
<!-- 11 -->
<g id="node12" class="node">
<title>11</title>
<path fill="#40e0d0" stroke="black" d="M1145,-73.19C1145,-73.19 1180,-73.19 1180,-73.19 1186,-73.19 1192,-79.19 1192,-85.19 1192,-85.19 1192,-153.19 1192,-153.19 1192,-159.19 1186,-165.19 1180,-165.19 1180,-165.19 1145,-165.19 1145,-165.19 1139,-165.19 1133,-159.19 1133,-153.19 1133,-153.19 1133,-85.19 1133,-85.19 1133,-79.19 1139,-73.19 1145,-73.19"/>
<text text-anchor="middle" x="1162.5" y="-149.99" font-family="Times New Roman,serif" font-size="14.00">idx: 11</text>
<polyline fill="none" stroke="black" points="1133,-142.19 1192,-142.19"/>
<text text-anchor="middle" x="1162.5" y="-126.99" font-family="Times New Roman,serif" font-size="14.00">data: 0</text>
<polyline fill="none" stroke="black" points="1133,-119.19 1192,-119.19"/>
<text text-anchor="middle" x="1162.5" y="-103.99" font-family="Times New Roman,serif" font-size="14.00">next: 0</text>
<polyline fill="none" stroke="black" points="1133,-96.19 1192,-96.19"/>
<text text-anchor="middle" x="1162.5" y="-80.99" font-family="Times New Roman,serif" font-size="14.00">prev: &#45;1</text>
</g>
<!-- 10&#45;&gt;11 -->
<g id="edge12" class="edge">
<title>10&#45;&gt;11</title>
<path fill="none" stroke="#b8860b" d="M1097.07,-119.19C1108.54,-119.19 1121.34,-119.19 1132.5,-119.19"/>
<polygon fill="#b8860b" stroke="#b8860b" points="1132.76,-119.19 1132.76,-119.19 1132.76,-119.19 1132.76,-119.19"/>
</g>
<!-- 11&#45;&gt;0 -->
<g id="edge28" class="edge">
<title>11&#45;&gt;0</title>
<path fill="none" stroke="black" d="M1137.75,-165.34C1127.32,-181.27 1113.63,-197.72 1097,-208.19 1046.54,-239.95 1024.63,-232.19 965,-232.19 299.5,-232.19 299.5,-232.19 299.5,-232.19 223.24,-232.19 145.87,-182.06 102.69,-148.58"/>
<polygon fill="black" stroke="black" points="104.8,-145.78 94.78,-142.33 100.46,-151.27 104.8,-145.78"/>
</g>
<!-- head -->
<g id="node13" class="node">
<title>head</title>
<path fill="#ccff99" stroke="black" d="M1240,-101.19C1240,-101.19 1272,-101.19 1272,-101.19 1278,-101.19 1284,-107.19 1284,-113.19 1284,-113.19 1284,-125.19 1284,-125.19 1284,-131.19 1278,-137.19 1272,-137.19 1272,-137.19 1240,-137.19 1240,-137.19 1234,-137.19 1228,-131.19 1228,-125.19 1228,-125.19 1228,-113.19 1228,-113.19 1228,-107.19 1234,-101.19 1240,-101.19"/>
<text text-anchor="middle" x="1256" y="-115.49" font-family="Times New Roman,serif" font-size="14.00">head: 1</text>
</g>
<!-- 11&#45;&gt;head -->
<g id="edge13" class="edge">
<title>11&#45;&gt;head</title>
<path fill="none" stroke="#b8860b" d="M1192.45,-119.19C1203.67,-119.19 1216.46,-119.19 1227.53,-119.19"/>
<polygon fill="#b8860b" stroke="#b8860b" points="1227.79,-119.19 1227.79,-119.19 1227.79,-119.19 1227.79,-119.19"/>
</g>
<!-- head&#45;&gt;1 -->
<g id="edge29" class="edge">
<title>head&#45;&gt;1</title>
<path fill="none" stroke="black" d="M1240.93,-100.99C1229.41,-87.69 1211.83,-70.73 1192,-63.19 1167.49,-53.87 1154.21,-47.77 1133,-63.19 1091.05,-93.68 1136.54,-140.63 1097,-174.19 1051.76,-212.59 1024.34,-194.19 965,-194.19 390.5,-194.19 390.5,-194.19 390.5,-194.19 337.53,-194.19 321.31,-195.91 273,-174.19 263.3,-169.83 253.81,-163.76 245.12,-157.25"/>
<polygon fill="black" stroke="black" points="247.08,-154.34 237.06,-150.9 242.75,-159.84 247.08,-154.34"/>
</g>
<!-- tail -->
<g id="node14" class="node">
<title>tail</title>
<path fill="#ccff99" stroke="black" d="M1332,-101.19C1332,-101.19 1362,-101.19 1362,-101.19 1368,-101.19 1374,-107.19 1374,-113.19 1374,-113.19 1374,-125.19 1374,-125.19 1374,-131.19 1368,-137.19 1362,-137.19 1362,-137.19 1332,-137.19 1332,-137.19 1326,-137.19 1320,-131.19 1320,-125.19 1320,-125.19 1320,-113.19 1320,-113.19 1320,-107.19 1326,-101.19 1332,-101.19"/>
<text text-anchor="middle" x="1347" y="-115.49" font-family="Times New Roman,serif" font-size="14.00">tail: 10</text>
</g>
<!-- head&#45;&gt;tail -->
<g id="edge14" class="edge">
<title>head&#45;&gt;tail</title>
<path fill="none" stroke="#b8860b" d="M1284.19,-119.19C1295.45,-119.19 1308.46,-119.19 1319.63,-119.19"/>
<polygon fill="#b8860b" stroke="#b8860b" points="1319.89,-119.19 1319.89,-119.19 1319.89,-119.19 1319.89,-119.19"/>
</g>
<!-- tail&#45;&gt;10 -->
<g id="edge30" class="edge">
<title>tail&#45;&gt;10</title>
<path fill="none" stroke="black" d="M1323.71,-101.17C1295.18,-79.39 1243.3,-43.95 1192,-30.19 1166.67,-23.4 1156.53,-18.61 1133,-30.19 1117.64,-37.75 1104.76,-50.59 1094.47,-64.2"/>
<polygon fill="black" stroke="black" points="1091.34,-62.55 1088.39,-72.73 1097.05,-66.61 1091.34,-62.55"/>
</g>
<!-- free -->
<g id="node15" class="node">
<title>free</title>
<path fill="#40e0d0" stroke="black" d="M1422,-101.19C1422,-101.19 1456,-101.19 1456,-101.19 1462,-101.19 1468,-107.19 1468,-113.19 1468,-113.19 1468,-125.19 1468,-125.19 1468,-131.19 1462,-137.19 1456,-137.19 1456,-137.19 1422,-137.19 1422,-137.19 1416,-137.19 1410,-131.19 1410,-125.19 1410,-125.19 1410,-113.19 1410,-113.19 1410,-107.19 1416,-101.19 1422,-101.19"/>
<text text-anchor="middle" x="1439" y="-115.49" font-family="Times New Roman,serif" font-size="14.00">free: 11</text>
</g>
<!-- tail&#45;&gt;free -->
<g id="edge15" class="edge">
<title>tail&#45;&gt;free</title>
<path fill="none" stroke="#b8860b" d="M1374.03,-119.19C1385.16,-119.19 1398.18,-119.19 1409.56,-119.19"/>
<polygon fill="#b8860b" stroke="#b8860b" points="1409.82,-119.19 1409.82,-119.19 1409.82,-119.19 1409.82,-119.19"/>
</g>
<!-- free&#45;&gt;11 -->
<g id="edge31" class="edge">
<title>free&#45;&gt;11</title>
<path fill="none" stroke="black" d="M1409.79,-133.95C1398.91,-138.87 1386.17,-143.73 1374,-146.19 1310.4,-159.06 1291.62,-158.97 1228,-146.19 1219.18,-144.42 1210.06,-141.41 1201.56,-138.03"/>
<polygon fill="black" stroke="black" points="1202.84,-134.77 1192.26,-134.1 1200.11,-141.22 1202.84,-134.77"/>
</g>
<!-- All -->
<g id="node16" class="node">
<title>All</title>
<path fill="#ff0000" stroke="black" d="M12,-220.19C12,-220.19 122,-220.19 122,-220.19 128,-220.19 134,-226.19 134,-232.19 134,-232.19 134,-254.19 134,-254.19 134,-260.19 128,-266.19 122,-266.19 122,-266.19 12,-266.19 12,-266.19 6,-266.19 0,-260.19 0,-254.19 0,-254.19 0,-232.19 0,-232.19 0,-226.19 6,-220.19 12,-220.19"/>
<text text-anchor="middle" x="67" y="-250.99" font-family="Times New Roman,serif" font-size="14.00">size = 12</text>
<polyline fill="none" stroke="black" points="0,-243.19 134,-243.19"/>
<text text-anchor="middle" x="67" y="-227.99" font-family="Times New Roman,serif" font-size="14.00">data_ptr = 0003E220</text>
</g>
</g>
</svg>
