<?xml version="1.0" encoding="UTF-8" standalone="no"?>
<!DOCTYPE svg PUBLIC "-//W3C//DTD SVG 1.1//EN"
 "http://www.w3.org/Graphics/SVG/1.1/DTD/svg11.dtd">
<!-- Generated by graphviz version 6.0.2 (20221011.1828)
 -->
<!-- Title: List Pages: 1 -->
<svg width="1483pt" height="523pt"
 viewBox="0.00 0.00 1483.00 523.00" xmlns="http://www.w3.org/2000/svg" xmlns:xlink="http://www.w3.org/1999/xlink">
<g id="graph0" class="graph" transform="scale(1 1) rotate(0) translate(4 519)">
<title>List</title>
<polygon fill="#b8860b" stroke="none" points="-4,4 -4,-519 1479,-519 1479,4 -4,4"/>
<text text-anchor="middle" x="737.5" y="-7.8" font-family="Times New Roman,serif" font-size="14.00">list_dump from function main, List/main.cpp:28</text>
<!-- 0 -->
<g id="node1" class="node">
<title>0</title>
<path fill="#8b00ff" stroke="black" d="M51.5,-242C51.5,-242 89.5,-242 89.5,-242 95.5,-242 101.5,-248 101.5,-254 101.5,-254 101.5,-322 101.5,-322 101.5,-328 95.5,-334 89.5,-334 89.5,-334 51.5,-334 51.5,-334 45.5,-334 39.5,-328 39.5,-322 39.5,-322 39.5,-254 39.5,-254 39.5,-248 45.5,-242 51.5,-242"/>
<text text-anchor="middle" x="70.5" y="-318.8" font-family="Times New Roman,serif" font-size="14.00">idx: 0</text>
<polyline fill="none" stroke="black" points="39.5,-311 101.5,-311"/>
<text text-anchor="middle" x="70.5" y="-295.8" font-family="Times New Roman,serif" font-size="14.00">data: 0</text>
<polyline fill="none" stroke="black" points="39.5,-288 101.5,-288"/>
<text text-anchor="middle" x="70.5" y="-272.8" font-family="Times New Roman,serif" font-size="14.00">next: 7</text>
<polyline fill="none" stroke="black" points="39.5,-265 101.5,-265"/>
<text text-anchor="middle" x="70.5" y="-249.8" font-family="Times New Roman,serif" font-size="14.00">prev: 10</text>
</g>
<!-- 0&#45;&gt;0 -->
<g id="edge1" class="edge">
<title>0&#45;&gt;0</title>
<path fill="none" stroke="#b8860b" d="M45.93,-334.09C48.05,-344.7 56.24,-352.5 70.5,-352.5 84.54,-352.5 92.7,-344.95 94.97,-334.59"/>
<polygon fill="#b8860b" stroke="#b8860b" points="95.07,-334.09 95.07,-334.09 95.07,-334.09 95.07,-334.09"/>
</g>
<!-- 1 -->
<g id="node2" class="node">
<title>1</title>
<path fill="#ccff99" stroke="black" d="M189,-242C189,-242 220,-242 220,-242 226,-242 232,-248 232,-254 232,-254 232,-322 232,-322 232,-328 226,-334 220,-334 220,-334 189,-334 189,-334 183,-334 177,-328 177,-322 177,-322 177,-254 177,-254 177,-248 183,-242 189,-242"/>
<text text-anchor="middle" x="204.5" y="-318.8" font-family="Times New Roman,serif" font-size="14.00">idx: 1</text>
<polyline fill="none" stroke="black" points="177,-311 232,-311"/>
<text text-anchor="middle" x="204.5" y="-295.8" font-family="Times New Roman,serif" font-size="14.00">data: 1</text>
<polyline fill="none" stroke="black" points="177,-288 232,-288"/>
<text text-anchor="middle" x="204.5" y="-272.8" font-family="Times New Roman,serif" font-size="14.00">next: 2</text>
<polyline fill="none" stroke="black" points="177,-265 232,-265"/>
<text text-anchor="middle" x="204.5" y="-249.8" font-family="Times New Roman,serif" font-size="14.00">prev: 7</text>
</g>
<!-- 0&#45;&gt;1 -->
<g id="edge2" class="edge">
<title>0&#45;&gt;1</title>
<path fill="none" stroke="#b8860b" d="M101.78,-288C124.38,-288 154.96,-288 176.68,-288"/>
<polygon fill="#b8860b" stroke="#b8860b" points="176.93,-288 176.93,-288 176.93,-288 176.93,-288"/>
</g>
<!-- 7 -->
<g id="node8" class="node">
<title>7</title>
<path fill="#ccff99" stroke="black" d="M740,-242C740,-242 783,-242 783,-242 789,-242 795,-248 795,-254 795,-254 795,-322 795,-322 795,-328 789,-334 783,-334 783,-334 740,-334 740,-334 734,-334 728,-328 728,-322 728,-322 728,-254 728,-254 728,-248 734,-242 740,-242"/>
<text text-anchor="middle" x="761.5" y="-318.8" font-family="Times New Roman,serif" font-size="14.00">idx: 7</text>
<polyline fill="none" stroke="black" points="728,-311 795,-311"/>
<text text-anchor="middle" x="761.5" y="-295.8" font-family="Times New Roman,serif" font-size="14.00">data: 100</text>
<polyline fill="none" stroke="black" points="728,-288 795,-288"/>
<text text-anchor="middle" x="761.5" y="-272.8" font-family="Times New Roman,serif" font-size="14.00">next: 1</text>
<polyline fill="none" stroke="black" points="728,-265 795,-265"/>
<text text-anchor="middle" x="761.5" y="-249.8" font-family="Times New Roman,serif" font-size="14.00">prev: 0</text>
</g>
<!-- 0&#45;&gt;7 -->
<g id="edge16" class="edge">
<title>0&#45;&gt;7</title>
<path fill="none" stroke="black" d="M101.54,-314.78C142.23,-348.2 218.55,-401 294.5,-401 294.5,-401 294.5,-401 569.5,-401 626,-401 644.24,-397.19 692,-367 702.66,-360.27 712.57,-351.37 721.36,-341.99"/>
<polygon fill="black" stroke="black" points="724.1,-344.17 728.17,-334.39 718.89,-339.5 724.1,-344.17"/>
</g>
<!-- 2 -->
<g id="node3" class="node">
<title>2</title>
<path fill="#ccff99" stroke="black" d="M280,-242C280,-242 311,-242 311,-242 317,-242 323,-248 323,-254 323,-254 323,-322 323,-322 323,-328 317,-334 311,-334 311,-334 280,-334 280,-334 274,-334 268,-328 268,-322 268,-322 268,-254 268,-254 268,-248 274,-242 280,-242"/>
<text text-anchor="middle" x="295.5" y="-318.8" font-family="Times New Roman,serif" font-size="14.00">idx: 2</text>
<polyline fill="none" stroke="black" points="268,-311 323,-311"/>
<text text-anchor="middle" x="295.5" y="-295.8" font-family="Times New Roman,serif" font-size="14.00">data: 2</text>
<polyline fill="none" stroke="black" points="268,-288 323,-288"/>
<text text-anchor="middle" x="295.5" y="-272.8" font-family="Times New Roman,serif" font-size="14.00">next: 8</text>
<polyline fill="none" stroke="black" points="268,-265 323,-265"/>
<text text-anchor="middle" x="295.5" y="-249.8" font-family="Times New Roman,serif" font-size="14.00">prev: 1</text>
</g>
<!-- 1&#45;&gt;2 -->
<g id="edge3" class="edge">
<title>1&#45;&gt;2</title>
<path fill="none" stroke="#b8860b" d="M232.2,-281.75C243.38,-281.09 256.35,-281.08 267.55,-281.74"/>
<polygon fill="#b8860b" stroke="#b8860b" points="267.82,-281.76 267.82,-281.76 267.82,-281.76 267.82,-281.76"/>
</g>
<!-- 1&#45;&gt;2 -->
<g id="edge18" class="edge">
<title>1&#45;&gt;2</title>
<path fill="none" stroke="black" d="M232.2,-294.25C240.21,-294.72 249.14,-294.86 257.68,-294.66"/>
<polygon fill="black" stroke="black" points="257.97,-298.15 267.82,-294.24 257.68,-291.16 257.97,-298.15"/>
</g>
<!-- 3 -->
<g id="node4" class="node">
<title>3</title>
<path fill="#ccff99" stroke="black" d="M371,-242C371,-242 402,-242 402,-242 408,-242 414,-248 414,-254 414,-254 414,-322 414,-322 414,-328 408,-334 402,-334 402,-334 371,-334 371,-334 365,-334 359,-328 359,-322 359,-322 359,-254 359,-254 359,-248 365,-242 371,-242"/>
<text text-anchor="middle" x="386.5" y="-318.8" font-family="Times New Roman,serif" font-size="14.00">idx: 3</text>
<polyline fill="none" stroke="black" points="359,-311 414,-311"/>
<text text-anchor="middle" x="386.5" y="-295.8" font-family="Times New Roman,serif" font-size="14.00">data: 3</text>
<polyline fill="none" stroke="black" points="359,-288 414,-288"/>
<text text-anchor="middle" x="386.5" y="-272.8" font-family="Times New Roman,serif" font-size="14.00">next: 9</text>
<polyline fill="none" stroke="black" points="359,-265 414,-265"/>
<text text-anchor="middle" x="386.5" y="-249.8" font-family="Times New Roman,serif" font-size="14.00">prev: 8</text>
</g>
<!-- 2&#45;&gt;3 -->
<g id="edge4" class="edge">
<title>2&#45;&gt;3</title>
<path fill="none" stroke="#b8860b" d="M323.2,-288C334.38,-288 347.35,-288 358.55,-288"/>
<polygon fill="#b8860b" stroke="#b8860b" points="358.82,-288 358.82,-288 358.82,-288 358.82,-288"/>
</g>
<!-- 8 -->
<g id="node9" class="node">
<title>8</title>
<path fill="#ccff99" stroke="black" d="M843,-242C843,-242 886,-242 886,-242 892,-242 898,-248 898,-254 898,-254 898,-322 898,-322 898,-328 892,-334 886,-334 886,-334 843,-334 843,-334 837,-334 831,-328 831,-322 831,-322 831,-254 831,-254 831,-248 837,-242 843,-242"/>
<text text-anchor="middle" x="864.5" y="-318.8" font-family="Times New Roman,serif" font-size="14.00">idx: 8</text>
<polyline fill="none" stroke="black" points="831,-311 898,-311"/>
<text text-anchor="middle" x="864.5" y="-295.8" font-family="Times New Roman,serif" font-size="14.00">data: 300</text>
<polyline fill="none" stroke="black" points="831,-288 898,-288"/>
<text text-anchor="middle" x="864.5" y="-272.8" font-family="Times New Roman,serif" font-size="14.00">next: 3</text>
<polyline fill="none" stroke="black" points="831,-265 898,-265"/>
<text text-anchor="middle" x="864.5" y="-249.8" font-family="Times New Roman,serif" font-size="14.00">prev: 2</text>
</g>
<!-- 2&#45;&gt;8 -->
<g id="edge19" class="edge">
<title>2&#45;&gt;8</title>
<path fill="none" stroke="black" d="M310.07,-241.79C332.75,-175.42 385.09,-61 476.5,-61 476.5,-61 476.5,-61 663,-61 723.37,-61 750.24,-52.5 795,-93 834.25,-128.51 851.01,-187.84 858.17,-231.75"/>
<polygon fill="black" stroke="black" points="854.72,-232.35 859.67,-241.71 861.64,-231.3 854.72,-232.35"/>
</g>
<!-- 4 -->
<g id="node5" class="node">
<title>4</title>
<path fill="#ccff99" stroke="black" d="M462,-242C462,-242 493,-242 493,-242 499,-242 505,-248 505,-254 505,-254 505,-322 505,-322 505,-328 499,-334 493,-334 493,-334 462,-334 462,-334 456,-334 450,-328 450,-322 450,-322 450,-254 450,-254 450,-248 456,-242 462,-242"/>
<text text-anchor="middle" x="477.5" y="-318.8" font-family="Times New Roman,serif" font-size="14.00">idx: 4</text>
<polyline fill="none" stroke="black" points="450,-311 505,-311"/>
<text text-anchor="middle" x="477.5" y="-295.8" font-family="Times New Roman,serif" font-size="14.00">data: 4</text>
<polyline fill="none" stroke="black" points="450,-288 505,-288"/>
<text text-anchor="middle" x="477.5" y="-272.8" font-family="Times New Roman,serif" font-size="14.00">next: 5</text>
<polyline fill="none" stroke="black" points="450,-265 505,-265"/>
<text text-anchor="middle" x="477.5" y="-249.8" font-family="Times New Roman,serif" font-size="14.00">prev: 9</text>
</g>
<!-- 3&#45;&gt;4 -->
<g id="edge5" class="edge">
<title>3&#45;&gt;4</title>
<path fill="none" stroke="#b8860b" d="M414.2,-288C425.38,-288 438.35,-288 449.55,-288"/>
<polygon fill="#b8860b" stroke="#b8860b" points="449.82,-288 449.82,-288 449.82,-288 449.82,-288"/>
</g>
<!-- 9 -->
<g id="node10" class="node">
<title>9</title>
<path fill="#ccff99" stroke="black" d="M946,-242C946,-242 989,-242 989,-242 995,-242 1001,-248 1001,-254 1001,-254 1001,-322 1001,-322 1001,-328 995,-334 989,-334 989,-334 946,-334 946,-334 940,-334 934,-328 934,-322 934,-322 934,-254 934,-254 934,-248 940,-242 946,-242"/>
<text text-anchor="middle" x="967.5" y="-318.8" font-family="Times New Roman,serif" font-size="14.00">idx: 9</text>
<polyline fill="none" stroke="black" points="934,-311 1001,-311"/>
<text text-anchor="middle" x="967.5" y="-295.8" font-family="Times New Roman,serif" font-size="14.00">data: 200</text>
<polyline fill="none" stroke="black" points="934,-288 1001,-288"/>
<text text-anchor="middle" x="967.5" y="-272.8" font-family="Times New Roman,serif" font-size="14.00">next: 4</text>
<polyline fill="none" stroke="black" points="934,-265 1001,-265"/>
<text text-anchor="middle" x="967.5" y="-249.8" font-family="Times New Roman,serif" font-size="14.00">prev: 3</text>
</g>
<!-- 3&#45;&gt;9 -->
<g id="edge21" class="edge">
<title>3&#45;&gt;9</title>
<path fill="none" stroke="black" d="M414.05,-244.32C444.88,-199.73 500.2,-137 567.5,-137 567.5,-137 567.5,-137 663,-137 728.99,-137 753.75,-153.48 795,-205 834.62,-254.48 780.84,-304.25 831,-343 854.56,-361.21 869.91,-352.88 898,-343 907.81,-339.55 917.26,-334.03 925.84,-327.8"/>
<polygon fill="black" stroke="black" points="928.02,-330.53 933.78,-321.64 923.73,-325 928.02,-330.53"/>
</g>
<!-- 5 -->
<g id="node6" class="node">
<title>5</title>
<path fill="#ccff99" stroke="black" d="M553,-242C553,-242 584,-242 584,-242 590,-242 596,-248 596,-254 596,-254 596,-322 596,-322 596,-328 590,-334 584,-334 584,-334 553,-334 553,-334 547,-334 541,-328 541,-322 541,-322 541,-254 541,-254 541,-248 547,-242 553,-242"/>
<text text-anchor="middle" x="568.5" y="-318.8" font-family="Times New Roman,serif" font-size="14.00">idx: 5</text>
<polyline fill="none" stroke="black" points="541,-311 596,-311"/>
<text text-anchor="middle" x="568.5" y="-295.8" font-family="Times New Roman,serif" font-size="14.00">data: 5</text>
<polyline fill="none" stroke="black" points="541,-288 596,-288"/>
<text text-anchor="middle" x="568.5" y="-272.8" font-family="Times New Roman,serif" font-size="14.00">next: 6</text>
<polyline fill="none" stroke="black" points="541,-265 596,-265"/>
<text text-anchor="middle" x="568.5" y="-249.8" font-family="Times New Roman,serif" font-size="14.00">prev: 4</text>
</g>
<!-- 4&#45;&gt;5 -->
<g id="edge6" class="edge">
<title>4&#45;&gt;5</title>
<path fill="none" stroke="#b8860b" d="M505.2,-281.75C516.38,-281.09 529.35,-281.08 540.55,-281.74"/>
<polygon fill="#b8860b" stroke="#b8860b" points="540.82,-281.76 540.82,-281.76 540.82,-281.76 540.82,-281.76"/>
</g>
<!-- 4&#45;&gt;5 -->
<g id="edge23" class="edge">
<title>4&#45;&gt;5</title>
<path fill="none" stroke="black" d="M505.2,-294.25C513.21,-294.72 522.14,-294.86 530.68,-294.66"/>
<polygon fill="black" stroke="black" points="530.97,-298.15 540.82,-294.24 530.68,-291.16 530.97,-298.15"/>
</g>
<!-- 6 -->
<g id="node7" class="node">
<title>6</title>
<path fill="#ccff99" stroke="black" d="M644,-242C644,-242 680,-242 680,-242 686,-242 692,-248 692,-254 692,-254 692,-322 692,-322 692,-328 686,-334 680,-334 680,-334 644,-334 644,-334 638,-334 632,-328 632,-322 632,-322 632,-254 632,-254 632,-248 638,-242 644,-242"/>
<text text-anchor="middle" x="662" y="-318.8" font-family="Times New Roman,serif" font-size="14.00">idx: 6</text>
<polyline fill="none" stroke="black" points="632,-311 692,-311"/>
<text text-anchor="middle" x="662" y="-295.8" font-family="Times New Roman,serif" font-size="14.00">data: 6</text>
<polyline fill="none" stroke="black" points="632,-288 692,-288"/>
<text text-anchor="middle" x="662" y="-272.8" font-family="Times New Roman,serif" font-size="14.00">next: 10</text>
<polyline fill="none" stroke="black" points="632,-265 692,-265"/>
<text text-anchor="middle" x="662" y="-249.8" font-family="Times New Roman,serif" font-size="14.00">prev: 5</text>
</g>
<!-- 5&#45;&gt;6 -->
<g id="edge7" class="edge">
<title>5&#45;&gt;6</title>
<path fill="none" stroke="#b8860b" d="M596.46,-281.78C607.44,-281.12 620.17,-281.08 631.41,-281.64"/>
<polygon fill="#b8860b" stroke="#b8860b" points="631.68,-281.65 631.68,-281.65 631.68,-281.65 631.68,-281.65"/>
</g>
<!-- 5&#45;&gt;6 -->
<g id="edge24" class="edge">
<title>5&#45;&gt;6</title>
<path fill="none" stroke="black" d="M596.46,-294.22C604.33,-294.69 613.1,-294.85 621.57,-294.69"/>
<polygon fill="black" stroke="black" points="621.8,-298.19 631.68,-294.35 621.57,-291.19 621.8,-298.19"/>
</g>
<!-- 6&#45;&gt;7 -->
<g id="edge8" class="edge">
<title>6&#45;&gt;7</title>
<path fill="none" stroke="#b8860b" d="M692.25,-288C703.38,-288 716.14,-288 727.59,-288"/>
<polygon fill="#b8860b" stroke="#b8860b" points="727.86,-288 727.86,-288 727.86,-288 727.86,-288"/>
</g>
<!-- 10 -->
<g id="node11" class="node">
<title>10</title>
<path fill="#ccff99" stroke="black" d="M1049,-242C1049,-242 1092,-242 1092,-242 1098,-242 1104,-248 1104,-254 1104,-254 1104,-322 1104,-322 1104,-328 1098,-334 1092,-334 1092,-334 1049,-334 1049,-334 1043,-334 1037,-328 1037,-322 1037,-322 1037,-254 1037,-254 1037,-248 1043,-242 1049,-242"/>
<text text-anchor="middle" x="1070.5" y="-318.8" font-family="Times New Roman,serif" font-size="14.00">idx: 10</text>
<polyline fill="none" stroke="black" points="1037,-311 1104,-311"/>
<text text-anchor="middle" x="1070.5" y="-295.8" font-family="Times New Roman,serif" font-size="14.00">data: 400</text>
<polyline fill="none" stroke="black" points="1037,-288 1104,-288"/>
<text text-anchor="middle" x="1070.5" y="-272.8" font-family="Times New Roman,serif" font-size="14.00">next: 0</text>
<polyline fill="none" stroke="black" points="1037,-265 1104,-265"/>
<text text-anchor="middle" x="1070.5" y="-249.8" font-family="Times New Roman,serif" font-size="14.00">prev: 6</text>
</g>
<!-- 6&#45;&gt;10 -->
<g id="edge25" class="edge">
<title>6&#45;&gt;10</title>
<path fill="none" stroke="black" d="M692.05,-255.26C702.36,-245.91 714.73,-236.93 728,-232 755.92,-221.63 772,-213.08 795,-232 859.02,-284.65 766.98,-362.35 831,-415 893.63,-466.51 980.43,-390.54 1030.2,-335.77"/>
<polygon fill="black" stroke="black" points="1032.91,-337.99 1036.97,-328.2 1027.69,-333.32 1032.91,-337.99"/>
</g>
<!-- 7&#45;&gt;1 -->
<g id="edge17" class="edge">
<title>7&#45;&gt;1</title>
<path fill="none" stroke="black" d="M727.96,-319.76C717.27,-328.58 704.82,-337.29 692,-343 641.61,-365.45 624.67,-363 569.5,-363 385.5,-363 385.5,-363 385.5,-363 332.53,-363 315.81,-365.81 268,-343 257.91,-338.19 248.22,-331.26 239.6,-323.94"/>
<polygon fill="black" stroke="black" points="241.79,-321.21 232,-317.16 237.13,-326.43 241.79,-321.21"/>
</g>
<!-- 7&#45;&gt;8 -->
<g id="edge9" class="edge">
<title>7&#45;&gt;8</title>
<path fill="none" stroke="#b8860b" d="M795.01,-288C806.34,-288 819.06,-288 830.43,-288"/>
<polygon fill="#b8860b" stroke="#b8860b" points="830.7,-288 830.7,-288 830.7,-288 830.7,-288"/>
</g>
<!-- 8&#45;&gt;3 -->
<g id="edge20" class="edge">
<title>8&#45;&gt;3</title>
<path fill="none" stroke="black" d="M856.7,-241.96C848.63,-204.18 831.34,-152.3 795,-123 748.58,-85.57 722.63,-99 663,-99 567.5,-99 567.5,-99 567.5,-99 514.2,-99 490.59,-88.46 450,-123 418.02,-150.22 402.36,-195.61 394.72,-231.9"/>
<polygon fill="black" stroke="black" points="391.26,-231.39 392.77,-241.88 398.13,-232.73 391.26,-231.39"/>
</g>
<!-- 8&#45;&gt;9 -->
<g id="edge10" class="edge">
<title>8&#45;&gt;9</title>
<path fill="none" stroke="#b8860b" d="M898.01,-288C909.34,-288 922.06,-288 933.43,-288"/>
<polygon fill="#b8860b" stroke="#b8860b" points="933.7,-288 933.7,-288 933.7,-288 933.7,-288"/>
</g>
<!-- 9&#45;&gt;4 -->
<g id="edge22" class="edge">
<title>9&#45;&gt;4</title>
<path fill="none" stroke="black" d="M942.61,-334.46C931.47,-351.04 916.54,-367.87 898,-377 871.28,-390.15 854.25,-395.6 831,-377 774.08,-331.47 851.92,-262.53 795,-217 771.75,-198.4 757.75,-215.81 728,-217 644.69,-220.34 617.62,-199.12 541,-232 530.85,-236.35 521.23,-243.04 512.72,-250.29"/>
<polygon fill="black" stroke="black" points="510.3,-247.76 505.23,-257.06 515,-252.95 510.3,-247.76"/>
</g>
<!-- 9&#45;&gt;10 -->
<g id="edge11" class="edge">
<title>9&#45;&gt;10</title>
<path fill="none" stroke="#b8860b" d="M1001.01,-288C1012.34,-288 1025.06,-288 1036.43,-288"/>
<polygon fill="#b8860b" stroke="#b8860b" points="1036.7,-288 1036.7,-288 1036.7,-288 1036.7,-288"/>
</g>
<!-- 10&#45;&gt;0 -->
<g id="edge26" class="edge">
<title>10&#45;&gt;0</title>
<path fill="none" stroke="black" d="M1051,-334.02C1039.51,-357.96 1022.76,-386.26 1001,-406 914.68,-484.31 879.05,-515 762.5,-515 294.5,-515 294.5,-515 294.5,-515 291.24,-515 171.59,-391.63 108.93,-326.79"/>
<polygon fill="black" stroke="black" points="111.41,-324.32 101.95,-319.56 106.38,-329.19 111.41,-324.32"/>
</g>
<!-- 11 -->
<g id="node12" class="node">
<title>11</title>
<path fill="#40e0d0" stroke="black" d="M1152,-242C1152,-242 1187,-242 1187,-242 1193,-242 1199,-248 1199,-254 1199,-254 1199,-322 1199,-322 1199,-328 1193,-334 1187,-334 1187,-334 1152,-334 1152,-334 1146,-334 1140,-328 1140,-322 1140,-322 1140,-254 1140,-254 1140,-248 1146,-242 1152,-242"/>
<text text-anchor="middle" x="1169.5" y="-318.8" font-family="Times New Roman,serif" font-size="14.00">idx: 11</text>
<polyline fill="none" stroke="black" points="1140,-311 1199,-311"/>
<text text-anchor="middle" x="1169.5" y="-295.8" font-family="Times New Roman,serif" font-size="14.00">data: 0</text>
<polyline fill="none" stroke="black" points="1140,-288 1199,-288"/>
<text text-anchor="middle" x="1169.5" y="-272.8" font-family="Times New Roman,serif" font-size="14.00">next: 0</text>
<polyline fill="none" stroke="black" points="1140,-265 1199,-265"/>
<text text-anchor="middle" x="1169.5" y="-249.8" font-family="Times New Roman,serif" font-size="14.00">prev: &#45;1</text>
</g>
<!-- 10&#45;&gt;11 -->
<g id="edge12" class="edge">
<title>10&#45;&gt;11</title>
<path fill="none" stroke="#b8860b" d="M1104.07,-288C1115.54,-288 1128.34,-288 1139.5,-288"/>
<polygon fill="#b8860b" stroke="#b8860b" points="1139.76,-288 1139.76,-288 1139.76,-288 1139.76,-288"/>
</g>
<!-- 11&#45;&gt;0 -->
<g id="edge27" class="edge">
<title>11&#45;&gt;0</title>
<path fill="none" stroke="black" d="M1156.6,-241.84C1133.93,-165.92 1076.86,-23 968.5,-23 294.5,-23 294.5,-23 294.5,-23 186.09,-23 119.78,-154.43 90.03,-232.17"/>
<polygon fill="black" stroke="black" points="86.64,-231.25 86.42,-241.84 93.2,-233.7 86.64,-231.25"/>
</g>
<!-- head -->
<g id="node13" class="node">
<title>head</title>
<path fill="#ccff99" stroke="black" d="M1247,-270C1247,-270 1279,-270 1279,-270 1285,-270 1291,-276 1291,-282 1291,-282 1291,-294 1291,-294 1291,-300 1285,-306 1279,-306 1279,-306 1247,-306 1247,-306 1241,-306 1235,-300 1235,-294 1235,-294 1235,-282 1235,-282 1235,-276 1241,-270 1247,-270"/>
<text text-anchor="middle" x="1263" y="-284.3" font-family="Times New Roman,serif" font-size="14.00">head: 7</text>
</g>
<!-- 11&#45;&gt;head -->
<g id="edge13" class="edge">
<title>11&#45;&gt;head</title>
<path fill="none" stroke="#b8860b" d="M1199.45,-288C1210.67,-288 1223.46,-288 1234.53,-288"/>
<polygon fill="#b8860b" stroke="#b8860b" points="1234.79,-288 1234.79,-288 1234.79,-288 1234.79,-288"/>
</g>
<!-- head&#45;&gt;7 -->
<g id="edge28" class="edge">
<title>head&#45;&gt;7</title>
<path fill="none" stroke="black" d="M1245.31,-306.02C1233.4,-317.95 1216.46,-333.17 1199,-343 1165.03,-362.13 945.93,-429.94 898,-437 868.54,-441.34 856.07,-453.07 831,-437 799.18,-416.6 781.94,-377.29 772.71,-344.16"/>
<polygon fill="black" stroke="black" points="776,-342.91 770.1,-334.11 769.23,-344.67 776,-342.91"/>
</g>
<!-- tail -->
<g id="node14" class="node">
<title>tail</title>
<path fill="#ccff99" stroke="black" d="M1339,-270C1339,-270 1369,-270 1369,-270 1375,-270 1381,-276 1381,-282 1381,-282 1381,-294 1381,-294 1381,-300 1375,-306 1369,-306 1369,-306 1339,-306 1339,-306 1333,-306 1327,-300 1327,-294 1327,-294 1327,-282 1327,-282 1327,-276 1333,-270 1339,-270"/>
<text text-anchor="middle" x="1354" y="-284.3" font-family="Times New Roman,serif" font-size="14.00">tail: 10</text>
</g>
<!-- head&#45;&gt;tail -->
<g id="edge14" class="edge">
<title>head&#45;&gt;tail</title>
<path fill="none" stroke="#b8860b" d="M1291.19,-288C1302.45,-288 1315.46,-288 1326.63,-288"/>
<polygon fill="#b8860b" stroke="#b8860b" points="1326.89,-288 1326.89,-288 1326.89,-288 1326.89,-288"/>
</g>
<!-- tail&#45;&gt;10 -->
<g id="edge29" class="edge">
<title>tail&#45;&gt;10</title>
<path fill="none" stroke="black" d="M1326.67,-304.72C1286,-328.33 1205.75,-366.13 1140,-343 1130.19,-339.55 1120.74,-334.03 1112.16,-327.8"/>
<polygon fill="black" stroke="black" points="1114.27,-325 1104.22,-321.64 1109.98,-330.53 1114.27,-325"/>
</g>
<!-- free -->
<g id="node15" class="node">
<title>free</title>
<path fill="#40e0d0" stroke="black" d="M1429,-270C1429,-270 1463,-270 1463,-270 1469,-270 1475,-276 1475,-282 1475,-282 1475,-294 1475,-294 1475,-300 1469,-306 1463,-306 1463,-306 1429,-306 1429,-306 1423,-306 1417,-300 1417,-294 1417,-294 1417,-282 1417,-282 1417,-276 1423,-270 1429,-270"/>
<text text-anchor="middle" x="1446" y="-284.3" font-family="Times New Roman,serif" font-size="14.00">free: 11</text>
</g>
<!-- tail&#45;&gt;free -->
<g id="edge15" class="edge">
<title>tail&#45;&gt;free</title>
<path fill="none" stroke="#b8860b" d="M1381.03,-288C1392.16,-288 1405.18,-288 1416.56,-288"/>
<polygon fill="#b8860b" stroke="#b8860b" points="1416.82,-288 1416.82,-288 1416.82,-288 1416.82,-288"/>
</g>
<!-- free&#45;&gt;11 -->
<g id="edge30" class="edge">
<title>free&#45;&gt;11</title>
<path fill="none" stroke="black" d="M1416.85,-272.69C1405.98,-267.59 1393.23,-262.56 1381,-260 1317.49,-246.71 1298.53,-246.8 1235,-260 1226.14,-261.84 1217.01,-264.96 1208.5,-268.47"/>
<polygon fill="black" stroke="black" points="1206.96,-265.32 1199.21,-272.54 1209.77,-271.73 1206.96,-265.32"/>
</g>
<!-- All -->
<g id="node16" class="node">
<title>All</title>
<path fill="#ff0000" stroke="black" d="M12,-371C12,-371 129,-371 129,-371 135,-371 141,-377 141,-383 141,-383 141,-405 141,-405 141,-411 135,-417 129,-417 129,-417 12,-417 12,-417 6,-417 0,-411 0,-405 0,-405 0,-383 0,-383 0,-377 6,-371 12,-371"/>
<text text-anchor="middle" x="70.5" y="-401.8" font-family="Times New Roman,serif" font-size="14.00">size = 12</text>
<polyline fill="none" stroke="black" points="0,-394 141,-394"/>
<text text-anchor="middle" x="70.5" y="-378.8" font-family="Times New Roman,serif" font-size="14.00">data_ptr = 011DBD40</text>
</g>
</g>
</svg>
