<?xml version="1.0" encoding="UTF-8" standalone="no"?>
<!DOCTYPE svg PUBLIC "-//W3C//DTD SVG 1.1//EN"
 "http://www.w3.org/Graphics/SVG/1.1/DTD/svg11.dtd">
<!-- Generated by graphviz version 6.0.2 (20221011.1828)
 -->
<!-- Title: List Pages: 1 -->
<svg width="2247pt" height="274pt"
 viewBox="0.00 0.00 2247.00 273.50" xmlns="http://www.w3.org/2000/svg" xmlns:xlink="http://www.w3.org/1999/xlink">
<g id="graph0" class="graph" transform="scale(1 1) rotate(0) translate(4 269.5)">
<title>List</title>
<polygon fill="#b8860b" stroke="none" points="-4,4 -4,-269.5 2243,-269.5 2243,4 -4,4"/>
<text text-anchor="middle" x="1119.5" y="-7.8" font-family="Times New Roman,serif" font-size="14.00">list_dump from function main, List/main.cpp:24</text>
<!-- 0 -->
<g id="node1" class="node">
<title>0</title>
<path fill="#8b00ff" stroke="black" d="M49.5,-90C49.5,-90 87.5,-90 87.5,-90 93.5,-90 99.5,-96 99.5,-102 99.5,-102 99.5,-170 99.5,-170 99.5,-176 93.5,-182 87.5,-182 87.5,-182 49.5,-182 49.5,-182 43.5,-182 37.5,-176 37.5,-170 37.5,-170 37.5,-102 37.5,-102 37.5,-96 43.5,-90 49.5,-90"/>
<text text-anchor="middle" x="68.5" y="-166.8" font-family="Times New Roman,serif" font-size="14.00">idx: 0</text>
<polyline fill="none" stroke="black" points="37.5,-159 99.5,-159"/>
<text text-anchor="middle" x="68.5" y="-143.8" font-family="Times New Roman,serif" font-size="14.00">data: 0</text>
<polyline fill="none" stroke="black" points="37.5,-136 99.5,-136"/>
<text text-anchor="middle" x="68.5" y="-120.8" font-family="Times New Roman,serif" font-size="14.00">next: 1</text>
<polyline fill="none" stroke="black" points="37.5,-113 99.5,-113"/>
<text text-anchor="middle" x="68.5" y="-97.8" font-family="Times New Roman,serif" font-size="14.00">prev: 10</text>
</g>
<!-- 0&#45;&gt;0 -->
<g id="edge1" class="edge">
<title>0&#45;&gt;0</title>
<path fill="none" stroke="#b8860b" d="M43.2,-182.09C45.38,-192.7 53.81,-200.5 68.5,-200.5 82.96,-200.5 91.36,-192.95 93.7,-182.59"/>
<polygon fill="#b8860b" stroke="#b8860b" points="93.8,-182.09 93.8,-182.09 93.8,-182.09 93.8,-182.09"/>
</g>
<!-- 1 -->
<g id="node2" class="node">
<title>1</title>
<path fill="#ccff99" stroke="black" d="M185,-90C185,-90 228,-90 228,-90 234,-90 240,-96 240,-102 240,-102 240,-170 240,-170 240,-176 234,-182 228,-182 228,-182 185,-182 185,-182 179,-182 173,-176 173,-170 173,-170 173,-102 173,-102 173,-96 179,-90 185,-90"/>
<text text-anchor="middle" x="206.5" y="-166.8" font-family="Times New Roman,serif" font-size="14.00">idx: 1</text>
<polyline fill="none" stroke="black" points="173,-159 240,-159"/>
<text text-anchor="middle" x="206.5" y="-143.8" font-family="Times New Roman,serif" font-size="14.00">data: 100</text>
<polyline fill="none" stroke="black" points="173,-136 240,-136"/>
<text text-anchor="middle" x="206.5" y="-120.8" font-family="Times New Roman,serif" font-size="14.00">next: 2</text>
<polyline fill="none" stroke="black" points="173,-113 240,-113"/>
<text text-anchor="middle" x="206.5" y="-97.8" font-family="Times New Roman,serif" font-size="14.00">prev: 0</text>
</g>
<!-- 0&#45;&gt;1 -->
<g id="edge2" class="edge">
<title>0&#45;&gt;1</title>
<path fill="none" stroke="#b8860b" d="M99.68,-130.28C121.2,-128.97 150.12,-128.91 172.29,-130.11"/>
<polygon fill="#b8860b" stroke="#b8860b" points="172.55,-130.12 172.55,-130.12 172.55,-130.12 172.55,-130.12"/>
</g>
<!-- 0&#45;&gt;1 -->
<g id="edge24" class="edge">
<title>0&#45;&gt;1</title>
<path fill="none" stroke="black" d="M99.68,-141.72C118.16,-142.85 142.1,-143.05 162.53,-142.33"/>
<polygon fill="black" stroke="black" points="162.71,-145.82 172.55,-141.88 162.4,-138.83 162.71,-145.82"/>
</g>
<!-- 2 -->
<g id="node3" class="node">
<title>2</title>
<path fill="#ccff99" stroke="black" d="M288,-90C288,-90 319,-90 319,-90 325,-90 331,-96 331,-102 331,-102 331,-170 331,-170 331,-176 325,-182 319,-182 319,-182 288,-182 288,-182 282,-182 276,-176 276,-170 276,-170 276,-102 276,-102 276,-96 282,-90 288,-90"/>
<text text-anchor="middle" x="303.5" y="-166.8" font-family="Times New Roman,serif" font-size="14.00">idx: 2</text>
<polyline fill="none" stroke="black" points="276,-159 331,-159"/>
<text text-anchor="middle" x="303.5" y="-143.8" font-family="Times New Roman,serif" font-size="14.00">data: 1</text>
<polyline fill="none" stroke="black" points="276,-136 331,-136"/>
<text text-anchor="middle" x="303.5" y="-120.8" font-family="Times New Roman,serif" font-size="14.00">next: 3</text>
<polyline fill="none" stroke="black" points="276,-113 331,-113"/>
<text text-anchor="middle" x="303.5" y="-97.8" font-family="Times New Roman,serif" font-size="14.00">prev: 1</text>
</g>
<!-- 1&#45;&gt;2 -->
<g id="edge3" class="edge">
<title>1&#45;&gt;2</title>
<path fill="none" stroke="#b8860b" d="M240.19,-129.55C251.7,-129.07 264.49,-129.17 275.47,-129.84"/>
<polygon fill="#b8860b" stroke="#b8860b" points="275.73,-129.86 275.73,-129.86 275.73,-129.86 275.73,-129.86"/>
</g>
<!-- 1&#45;&gt;2 -->
<g id="edge25" class="edge">
<title>1&#45;&gt;2</title>
<path fill="none" stroke="black" d="M240.19,-142.45C248.35,-142.79 257.14,-142.84 265.49,-142.6"/>
<polygon fill="black" stroke="black" points="265.9,-146.09 275.73,-142.14 265.58,-139.09 265.9,-146.09"/>
</g>
<!-- 3 -->
<g id="node4" class="node">
<title>3</title>
<path fill="#ccff99" stroke="black" d="M379,-90C379,-90 410,-90 410,-90 416,-90 422,-96 422,-102 422,-102 422,-170 422,-170 422,-176 416,-182 410,-182 410,-182 379,-182 379,-182 373,-182 367,-176 367,-170 367,-170 367,-102 367,-102 367,-96 373,-90 379,-90"/>
<text text-anchor="middle" x="394.5" y="-166.8" font-family="Times New Roman,serif" font-size="14.00">idx: 3</text>
<polyline fill="none" stroke="black" points="367,-159 422,-159"/>
<text text-anchor="middle" x="394.5" y="-143.8" font-family="Times New Roman,serif" font-size="14.00">data: 2</text>
<polyline fill="none" stroke="black" points="367,-136 422,-136"/>
<text text-anchor="middle" x="394.5" y="-120.8" font-family="Times New Roman,serif" font-size="14.00">next: 4</text>
<polyline fill="none" stroke="black" points="367,-113 422,-113"/>
<text text-anchor="middle" x="394.5" y="-97.8" font-family="Times New Roman,serif" font-size="14.00">prev: 2</text>
</g>
<!-- 2&#45;&gt;3 -->
<g id="edge4" class="edge">
<title>2&#45;&gt;3</title>
<path fill="none" stroke="#b8860b" d="M331.2,-129.75C342.38,-129.09 355.35,-129.08 366.55,-129.74"/>
<polygon fill="#b8860b" stroke="#b8860b" points="366.82,-129.76 366.82,-129.76 366.82,-129.76 366.82,-129.76"/>
</g>
<!-- 2&#45;&gt;3 -->
<g id="edge26" class="edge">
<title>2&#45;&gt;3</title>
<path fill="none" stroke="black" d="M331.2,-142.25C339.21,-142.72 348.14,-142.86 356.68,-142.66"/>
<polygon fill="black" stroke="black" points="356.97,-146.15 366.82,-142.24 356.68,-139.16 356.97,-146.15"/>
</g>
<!-- 4 -->
<g id="node5" class="node">
<title>4</title>
<path fill="#ccff99" stroke="black" d="M470,-90C470,-90 513,-90 513,-90 519,-90 525,-96 525,-102 525,-102 525,-170 525,-170 525,-176 519,-182 513,-182 513,-182 470,-182 470,-182 464,-182 458,-176 458,-170 458,-170 458,-102 458,-102 458,-96 464,-90 470,-90"/>
<text text-anchor="middle" x="491.5" y="-166.8" font-family="Times New Roman,serif" font-size="14.00">idx: 4</text>
<polyline fill="none" stroke="black" points="458,-159 525,-159"/>
<text text-anchor="middle" x="491.5" y="-143.8" font-family="Times New Roman,serif" font-size="14.00">data: 300</text>
<polyline fill="none" stroke="black" points="458,-136 525,-136"/>
<text text-anchor="middle" x="491.5" y="-120.8" font-family="Times New Roman,serif" font-size="14.00">next: 5</text>
<polyline fill="none" stroke="black" points="458,-113 525,-113"/>
<text text-anchor="middle" x="491.5" y="-97.8" font-family="Times New Roman,serif" font-size="14.00">prev: 3</text>
</g>
<!-- 3&#45;&gt;4 -->
<g id="edge5" class="edge">
<title>3&#45;&gt;4</title>
<path fill="none" stroke="#b8860b" d="M422.22,-129.86C433.21,-129.17 446.07,-129.07 457.63,-129.54"/>
<polygon fill="#b8860b" stroke="#b8860b" points="457.91,-129.55 457.91,-129.55 457.91,-129.55 457.91,-129.55"/>
</g>
<!-- 3&#45;&gt;4 -->
<g id="edge27" class="edge">
<title>3&#45;&gt;4</title>
<path fill="none" stroke="black" d="M422.22,-142.14C430.18,-142.64 439.12,-142.83 447.84,-142.72"/>
<polygon fill="black" stroke="black" points="448.01,-146.22 457.91,-142.45 447.82,-139.22 448.01,-146.22"/>
</g>
<!-- 5 -->
<g id="node6" class="node">
<title>5</title>
<path fill="#ccff99" stroke="black" d="M573,-90C573,-90 604,-90 604,-90 610,-90 616,-96 616,-102 616,-102 616,-170 616,-170 616,-176 610,-182 604,-182 604,-182 573,-182 573,-182 567,-182 561,-176 561,-170 561,-170 561,-102 561,-102 561,-96 567,-90 573,-90"/>
<text text-anchor="middle" x="588.5" y="-166.8" font-family="Times New Roman,serif" font-size="14.00">idx: 5</text>
<polyline fill="none" stroke="black" points="561,-159 616,-159"/>
<text text-anchor="middle" x="588.5" y="-143.8" font-family="Times New Roman,serif" font-size="14.00">data: 3</text>
<polyline fill="none" stroke="black" points="561,-136 616,-136"/>
<text text-anchor="middle" x="588.5" y="-120.8" font-family="Times New Roman,serif" font-size="14.00">next: 6</text>
<polyline fill="none" stroke="black" points="561,-113 616,-113"/>
<text text-anchor="middle" x="588.5" y="-97.8" font-family="Times New Roman,serif" font-size="14.00">prev: 4</text>
</g>
<!-- 4&#45;&gt;5 -->
<g id="edge6" class="edge">
<title>4&#45;&gt;5</title>
<path fill="none" stroke="#b8860b" d="M525.19,-129.55C536.7,-129.07 549.49,-129.17 560.47,-129.84"/>
<polygon fill="#b8860b" stroke="#b8860b" points="560.73,-129.86 560.73,-129.86 560.73,-129.86 560.73,-129.86"/>
</g>
<!-- 4&#45;&gt;5 -->
<g id="edge28" class="edge">
<title>4&#45;&gt;5</title>
<path fill="none" stroke="black" d="M525.19,-142.45C533.35,-142.79 542.14,-142.84 550.49,-142.6"/>
<polygon fill="black" stroke="black" points="550.9,-146.09 560.73,-142.14 550.58,-139.09 550.9,-146.09"/>
</g>
<!-- 6 -->
<g id="node7" class="node">
<title>6</title>
<path fill="#ccff99" stroke="black" d="M664,-90C664,-90 707,-90 707,-90 713,-90 719,-96 719,-102 719,-102 719,-170 719,-170 719,-176 713,-182 707,-182 707,-182 664,-182 664,-182 658,-182 652,-176 652,-170 652,-170 652,-102 652,-102 652,-96 658,-90 664,-90"/>
<text text-anchor="middle" x="685.5" y="-166.8" font-family="Times New Roman,serif" font-size="14.00">idx: 6</text>
<polyline fill="none" stroke="black" points="652,-159 719,-159"/>
<text text-anchor="middle" x="685.5" y="-143.8" font-family="Times New Roman,serif" font-size="14.00">data: 200</text>
<polyline fill="none" stroke="black" points="652,-136 719,-136"/>
<text text-anchor="middle" x="685.5" y="-120.8" font-family="Times New Roman,serif" font-size="14.00">next: 7</text>
<polyline fill="none" stroke="black" points="652,-113 719,-113"/>
<text text-anchor="middle" x="685.5" y="-97.8" font-family="Times New Roman,serif" font-size="14.00">prev: 5</text>
</g>
<!-- 5&#45;&gt;6 -->
<g id="edge7" class="edge">
<title>5&#45;&gt;6</title>
<path fill="none" stroke="#b8860b" d="M616.22,-129.86C627.21,-129.17 640.07,-129.07 651.63,-129.54"/>
<polygon fill="#b8860b" stroke="#b8860b" points="651.91,-129.55 651.91,-129.55 651.91,-129.55 651.91,-129.55"/>
</g>
<!-- 5&#45;&gt;6 -->
<g id="edge29" class="edge">
<title>5&#45;&gt;6</title>
<path fill="none" stroke="black" d="M616.22,-142.14C624.18,-142.64 633.12,-142.83 641.84,-142.72"/>
<polygon fill="black" stroke="black" points="642.01,-146.22 651.91,-142.45 641.82,-139.22 642.01,-146.22"/>
</g>
<!-- 7 -->
<g id="node8" class="node">
<title>7</title>
<path fill="#ccff99" stroke="black" d="M767,-90C767,-90 798,-90 798,-90 804,-90 810,-96 810,-102 810,-102 810,-170 810,-170 810,-176 804,-182 798,-182 798,-182 767,-182 767,-182 761,-182 755,-176 755,-170 755,-170 755,-102 755,-102 755,-96 761,-90 767,-90"/>
<text text-anchor="middle" x="782.5" y="-166.8" font-family="Times New Roman,serif" font-size="14.00">idx: 7</text>
<polyline fill="none" stroke="black" points="755,-159 810,-159"/>
<text text-anchor="middle" x="782.5" y="-143.8" font-family="Times New Roman,serif" font-size="14.00">data: 4</text>
<polyline fill="none" stroke="black" points="755,-136 810,-136"/>
<text text-anchor="middle" x="782.5" y="-120.8" font-family="Times New Roman,serif" font-size="14.00">next: 8</text>
<polyline fill="none" stroke="black" points="755,-113 810,-113"/>
<text text-anchor="middle" x="782.5" y="-97.8" font-family="Times New Roman,serif" font-size="14.00">prev: 6</text>
</g>
<!-- 6&#45;&gt;7 -->
<g id="edge8" class="edge">
<title>6&#45;&gt;7</title>
<path fill="none" stroke="#b8860b" d="M719.19,-129.55C730.7,-129.07 743.49,-129.17 754.47,-129.84"/>
<polygon fill="#b8860b" stroke="#b8860b" points="754.73,-129.86 754.73,-129.86 754.73,-129.86 754.73,-129.86"/>
</g>
<!-- 6&#45;&gt;7 -->
<g id="edge30" class="edge">
<title>6&#45;&gt;7</title>
<path fill="none" stroke="black" d="M719.19,-142.45C727.35,-142.79 736.14,-142.84 744.49,-142.6"/>
<polygon fill="black" stroke="black" points="744.9,-146.09 754.73,-142.14 744.58,-139.09 744.9,-146.09"/>
</g>
<!-- 8 -->
<g id="node9" class="node">
<title>8</title>
<path fill="#ccff99" stroke="black" d="M858,-90C858,-90 889,-90 889,-90 895,-90 901,-96 901,-102 901,-102 901,-170 901,-170 901,-176 895,-182 889,-182 889,-182 858,-182 858,-182 852,-182 846,-176 846,-170 846,-170 846,-102 846,-102 846,-96 852,-90 858,-90"/>
<text text-anchor="middle" x="873.5" y="-166.8" font-family="Times New Roman,serif" font-size="14.00">idx: 8</text>
<polyline fill="none" stroke="black" points="846,-159 901,-159"/>
<text text-anchor="middle" x="873.5" y="-143.8" font-family="Times New Roman,serif" font-size="14.00">data: 5</text>
<polyline fill="none" stroke="black" points="846,-136 901,-136"/>
<text text-anchor="middle" x="873.5" y="-120.8" font-family="Times New Roman,serif" font-size="14.00">next: 9</text>
<polyline fill="none" stroke="black" points="846,-113 901,-113"/>
<text text-anchor="middle" x="873.5" y="-97.8" font-family="Times New Roman,serif" font-size="14.00">prev: 7</text>
</g>
<!-- 7&#45;&gt;8 -->
<g id="edge9" class="edge">
<title>7&#45;&gt;8</title>
<path fill="none" stroke="#b8860b" d="M810.2,-129.75C821.38,-129.09 834.35,-129.08 845.55,-129.74"/>
<polygon fill="#b8860b" stroke="#b8860b" points="845.82,-129.76 845.82,-129.76 845.82,-129.76 845.82,-129.76"/>
</g>
<!-- 7&#45;&gt;8 -->
<g id="edge31" class="edge">
<title>7&#45;&gt;8</title>
<path fill="none" stroke="black" d="M810.2,-142.25C818.21,-142.72 827.14,-142.86 835.68,-142.66"/>
<polygon fill="black" stroke="black" points="835.97,-146.15 845.82,-142.24 835.68,-139.16 835.97,-146.15"/>
</g>
<!-- 9 -->
<g id="node10" class="node">
<title>9</title>
<path fill="#ccff99" stroke="black" d="M949,-90C949,-90 985,-90 985,-90 991,-90 997,-96 997,-102 997,-102 997,-170 997,-170 997,-176 991,-182 985,-182 985,-182 949,-182 949,-182 943,-182 937,-176 937,-170 937,-170 937,-102 937,-102 937,-96 943,-90 949,-90"/>
<text text-anchor="middle" x="967" y="-166.8" font-family="Times New Roman,serif" font-size="14.00">idx: 9</text>
<polyline fill="none" stroke="black" points="937,-159 997,-159"/>
<text text-anchor="middle" x="967" y="-143.8" font-family="Times New Roman,serif" font-size="14.00">data: 6</text>
<polyline fill="none" stroke="black" points="937,-136 997,-136"/>
<text text-anchor="middle" x="967" y="-120.8" font-family="Times New Roman,serif" font-size="14.00">next: 10</text>
<polyline fill="none" stroke="black" points="937,-113 997,-113"/>
<text text-anchor="middle" x="967" y="-97.8" font-family="Times New Roman,serif" font-size="14.00">prev: 8</text>
</g>
<!-- 8&#45;&gt;9 -->
<g id="edge10" class="edge">
<title>8&#45;&gt;9</title>
<path fill="none" stroke="#b8860b" d="M901.46,-129.78C912.44,-129.12 925.17,-129.08 936.41,-129.64"/>
<polygon fill="#b8860b" stroke="#b8860b" points="936.68,-129.65 936.68,-129.65 936.68,-129.65 936.68,-129.65"/>
</g>
<!-- 8&#45;&gt;9 -->
<g id="edge32" class="edge">
<title>8&#45;&gt;9</title>
<path fill="none" stroke="black" d="M901.46,-142.22C909.33,-142.69 918.1,-142.85 926.57,-142.69"/>
<polygon fill="black" stroke="black" points="926.8,-146.19 936.68,-142.35 926.57,-139.19 926.8,-146.19"/>
</g>
<!-- 10 -->
<g id="node11" class="node">
<title>10</title>
<path fill="#ccff99" stroke="black" d="M1045,-90C1045,-90 1088,-90 1088,-90 1094,-90 1100,-96 1100,-102 1100,-102 1100,-170 1100,-170 1100,-176 1094,-182 1088,-182 1088,-182 1045,-182 1045,-182 1039,-182 1033,-176 1033,-170 1033,-170 1033,-102 1033,-102 1033,-96 1039,-90 1045,-90"/>
<text text-anchor="middle" x="1066.5" y="-166.8" font-family="Times New Roman,serif" font-size="14.00">idx: 10</text>
<polyline fill="none" stroke="black" points="1033,-159 1100,-159"/>
<text text-anchor="middle" x="1066.5" y="-143.8" font-family="Times New Roman,serif" font-size="14.00">data: 400</text>
<polyline fill="none" stroke="black" points="1033,-136 1100,-136"/>
<text text-anchor="middle" x="1066.5" y="-120.8" font-family="Times New Roman,serif" font-size="14.00">next: 0</text>
<polyline fill="none" stroke="black" points="1033,-113 1100,-113"/>
<text text-anchor="middle" x="1066.5" y="-97.8" font-family="Times New Roman,serif" font-size="14.00">prev: 9</text>
</g>
<!-- 9&#45;&gt;10 -->
<g id="edge11" class="edge">
<title>9&#45;&gt;10</title>
<path fill="none" stroke="#b8860b" d="M997.25,-129.75C1008.38,-129.15 1021.14,-129.09 1032.59,-129.58"/>
<polygon fill="#b8860b" stroke="#b8860b" points="1032.86,-129.59 1032.86,-129.59 1032.86,-129.59 1032.86,-129.59"/>
</g>
<!-- 9&#45;&gt;10 -->
<g id="edge33" class="edge">
<title>9&#45;&gt;10</title>
<path fill="none" stroke="black" d="M997.25,-142.25C1005.23,-142.68 1014.04,-142.83 1022.6,-142.71"/>
<polygon fill="black" stroke="black" points="1022.96,-146.2 1032.86,-142.41 1022.76,-139.2 1022.96,-146.2"/>
</g>
<!-- 10&#45;&gt;0 -->
<g id="edge34" class="edge">
<title>10&#45;&gt;0</title>
<path fill="none" stroke="black" d="M1032.72,-103.29C1022.11,-94.42 1009.77,-85.69 997,-80 946.68,-57.55 929.6,-61 874.5,-61 302.5,-61 302.5,-61 302.5,-61 244.33,-61 228.2,-61.66 173,-80 150.57,-87.45 127.28,-99.6 108.48,-110.69"/>
<polygon fill="black" stroke="black" points="106.67,-107.69 99.91,-115.85 110.29,-113.69 106.67,-107.69"/>
</g>
<!-- 11 -->
<g id="node12" class="node">
<title>11</title>
<path fill="#40e0d0" stroke="black" d="M1148,-90C1148,-90 1184,-90 1184,-90 1190,-90 1196,-96 1196,-102 1196,-102 1196,-170 1196,-170 1196,-176 1190,-182 1184,-182 1184,-182 1148,-182 1148,-182 1142,-182 1136,-176 1136,-170 1136,-170 1136,-102 1136,-102 1136,-96 1142,-90 1148,-90"/>
<text text-anchor="middle" x="1166" y="-166.8" font-family="Times New Roman,serif" font-size="14.00">idx: 11</text>
<polyline fill="none" stroke="black" points="1136,-159 1196,-159"/>
<text text-anchor="middle" x="1166" y="-143.8" font-family="Times New Roman,serif" font-size="14.00">data: 0</text>
<polyline fill="none" stroke="black" points="1136,-136 1196,-136"/>
<text text-anchor="middle" x="1166" y="-120.8" font-family="Times New Roman,serif" font-size="14.00">next: 12</text>
<polyline fill="none" stroke="black" points="1136,-113 1196,-113"/>
<text text-anchor="middle" x="1166" y="-97.8" font-family="Times New Roman,serif" font-size="14.00">prev: &#45;1</text>
</g>
<!-- 10&#45;&gt;11 -->
<g id="edge12" class="edge">
<title>10&#45;&gt;11</title>
<path fill="none" stroke="#b8860b" d="M1100.24,-136C1111.65,-136 1124.39,-136 1135.53,-136"/>
<polygon fill="#b8860b" stroke="#b8860b" points="1135.79,-136 1135.79,-136 1135.79,-136 1135.79,-136"/>
</g>
<!-- 12 -->
<g id="node13" class="node">
<title>12</title>
<path fill="#40e0d0" stroke="black" d="M1244,-90C1244,-90 1280,-90 1280,-90 1286,-90 1292,-96 1292,-102 1292,-102 1292,-170 1292,-170 1292,-176 1286,-182 1280,-182 1280,-182 1244,-182 1244,-182 1238,-182 1232,-176 1232,-170 1232,-170 1232,-102 1232,-102 1232,-96 1238,-90 1244,-90"/>
<text text-anchor="middle" x="1262" y="-166.8" font-family="Times New Roman,serif" font-size="14.00">idx: 12</text>
<polyline fill="none" stroke="black" points="1232,-159 1292,-159"/>
<text text-anchor="middle" x="1262" y="-143.8" font-family="Times New Roman,serif" font-size="14.00">data: 0</text>
<polyline fill="none" stroke="black" points="1232,-136 1292,-136"/>
<text text-anchor="middle" x="1262" y="-120.8" font-family="Times New Roman,serif" font-size="14.00">next: 13</text>
<polyline fill="none" stroke="black" points="1232,-113 1292,-113"/>
<text text-anchor="middle" x="1262" y="-97.8" font-family="Times New Roman,serif" font-size="14.00">prev: &#45;1</text>
</g>
<!-- 11&#45;&gt;12 -->
<g id="edge13" class="edge">
<title>11&#45;&gt;12</title>
<path fill="none" stroke="#b8860b" d="M1196.23,-129.7C1207.46,-129.1 1220.27,-129.1 1231.53,-129.69"/>
<polygon fill="#b8860b" stroke="#b8860b" points="1231.79,-129.7 1231.79,-129.7 1231.79,-129.7 1231.79,-129.7"/>
</g>
<!-- 11&#45;&gt;12 -->
<g id="edge35" class="edge">
<title>11&#45;&gt;12</title>
<path fill="none" stroke="black" d="M1196.23,-142.3C1204.27,-142.73 1213.13,-142.85 1221.65,-142.67"/>
<polygon fill="black" stroke="black" points="1221.93,-146.16 1231.79,-142.3 1221.67,-139.17 1221.93,-146.16"/>
</g>
<!-- 13 -->
<g id="node14" class="node">
<title>13</title>
<path fill="#40e0d0" stroke="black" d="M1340,-90C1340,-90 1376,-90 1376,-90 1382,-90 1388,-96 1388,-102 1388,-102 1388,-170 1388,-170 1388,-176 1382,-182 1376,-182 1376,-182 1340,-182 1340,-182 1334,-182 1328,-176 1328,-170 1328,-170 1328,-102 1328,-102 1328,-96 1334,-90 1340,-90"/>
<text text-anchor="middle" x="1358" y="-166.8" font-family="Times New Roman,serif" font-size="14.00">idx: 13</text>
<polyline fill="none" stroke="black" points="1328,-159 1388,-159"/>
<text text-anchor="middle" x="1358" y="-143.8" font-family="Times New Roman,serif" font-size="14.00">data: 0</text>
<polyline fill="none" stroke="black" points="1328,-136 1388,-136"/>
<text text-anchor="middle" x="1358" y="-120.8" font-family="Times New Roman,serif" font-size="14.00">next: 14</text>
<polyline fill="none" stroke="black" points="1328,-113 1388,-113"/>
<text text-anchor="middle" x="1358" y="-97.8" font-family="Times New Roman,serif" font-size="14.00">prev: &#45;1</text>
</g>
<!-- 12&#45;&gt;13 -->
<g id="edge14" class="edge">
<title>12&#45;&gt;13</title>
<path fill="none" stroke="#b8860b" d="M1292.23,-129.7C1303.46,-129.1 1316.27,-129.1 1327.53,-129.69"/>
<polygon fill="#b8860b" stroke="#b8860b" points="1327.79,-129.7 1327.79,-129.7 1327.79,-129.7 1327.79,-129.7"/>
</g>
<!-- 12&#45;&gt;13 -->
<g id="edge36" class="edge">
<title>12&#45;&gt;13</title>
<path fill="none" stroke="black" d="M1292.23,-142.3C1300.27,-142.73 1309.13,-142.85 1317.65,-142.67"/>
<polygon fill="black" stroke="black" points="1317.93,-146.16 1327.79,-142.3 1317.67,-139.17 1317.93,-146.16"/>
</g>
<!-- 14 -->
<g id="node15" class="node">
<title>14</title>
<path fill="#40e0d0" stroke="black" d="M1436,-90C1436,-90 1472,-90 1472,-90 1478,-90 1484,-96 1484,-102 1484,-102 1484,-170 1484,-170 1484,-176 1478,-182 1472,-182 1472,-182 1436,-182 1436,-182 1430,-182 1424,-176 1424,-170 1424,-170 1424,-102 1424,-102 1424,-96 1430,-90 1436,-90"/>
<text text-anchor="middle" x="1454" y="-166.8" font-family="Times New Roman,serif" font-size="14.00">idx: 14</text>
<polyline fill="none" stroke="black" points="1424,-159 1484,-159"/>
<text text-anchor="middle" x="1454" y="-143.8" font-family="Times New Roman,serif" font-size="14.00">data: 0</text>
<polyline fill="none" stroke="black" points="1424,-136 1484,-136"/>
<text text-anchor="middle" x="1454" y="-120.8" font-family="Times New Roman,serif" font-size="14.00">next: 15</text>
<polyline fill="none" stroke="black" points="1424,-113 1484,-113"/>
<text text-anchor="middle" x="1454" y="-97.8" font-family="Times New Roman,serif" font-size="14.00">prev: &#45;1</text>
</g>
<!-- 13&#45;&gt;14 -->
<g id="edge15" class="edge">
<title>13&#45;&gt;14</title>
<path fill="none" stroke="#b8860b" d="M1388.23,-129.7C1399.46,-129.1 1412.27,-129.1 1423.53,-129.69"/>
<polygon fill="#b8860b" stroke="#b8860b" points="1423.79,-129.7 1423.79,-129.7 1423.79,-129.7 1423.79,-129.7"/>
</g>
<!-- 13&#45;&gt;14 -->
<g id="edge37" class="edge">
<title>13&#45;&gt;14</title>
<path fill="none" stroke="black" d="M1388.23,-142.3C1396.27,-142.73 1405.13,-142.85 1413.65,-142.67"/>
<polygon fill="black" stroke="black" points="1413.93,-146.16 1423.79,-142.3 1413.67,-139.17 1413.93,-146.16"/>
</g>
<!-- 15 -->
<g id="node16" class="node">
<title>15</title>
<path fill="#40e0d0" stroke="black" d="M1532,-90C1532,-90 1568,-90 1568,-90 1574,-90 1580,-96 1580,-102 1580,-102 1580,-170 1580,-170 1580,-176 1574,-182 1568,-182 1568,-182 1532,-182 1532,-182 1526,-182 1520,-176 1520,-170 1520,-170 1520,-102 1520,-102 1520,-96 1526,-90 1532,-90"/>
<text text-anchor="middle" x="1550" y="-166.8" font-family="Times New Roman,serif" font-size="14.00">idx: 15</text>
<polyline fill="none" stroke="black" points="1520,-159 1580,-159"/>
<text text-anchor="middle" x="1550" y="-143.8" font-family="Times New Roman,serif" font-size="14.00">data: 0</text>
<polyline fill="none" stroke="black" points="1520,-136 1580,-136"/>
<text text-anchor="middle" x="1550" y="-120.8" font-family="Times New Roman,serif" font-size="14.00">next: 16</text>
<polyline fill="none" stroke="black" points="1520,-113 1580,-113"/>
<text text-anchor="middle" x="1550" y="-97.8" font-family="Times New Roman,serif" font-size="14.00">prev: &#45;1</text>
</g>
<!-- 14&#45;&gt;15 -->
<g id="edge16" class="edge">
<title>14&#45;&gt;15</title>
<path fill="none" stroke="#b8860b" d="M1484.23,-129.7C1495.46,-129.1 1508.27,-129.1 1519.53,-129.69"/>
<polygon fill="#b8860b" stroke="#b8860b" points="1519.79,-129.7 1519.79,-129.7 1519.79,-129.7 1519.79,-129.7"/>
</g>
<!-- 14&#45;&gt;15 -->
<g id="edge38" class="edge">
<title>14&#45;&gt;15</title>
<path fill="none" stroke="black" d="M1484.23,-142.3C1492.27,-142.73 1501.13,-142.85 1509.65,-142.67"/>
<polygon fill="black" stroke="black" points="1509.93,-146.16 1519.79,-142.3 1509.67,-139.17 1509.93,-146.16"/>
</g>
<!-- 16 -->
<g id="node17" class="node">
<title>16</title>
<path fill="#40e0d0" stroke="black" d="M1628,-90C1628,-90 1664,-90 1664,-90 1670,-90 1676,-96 1676,-102 1676,-102 1676,-170 1676,-170 1676,-176 1670,-182 1664,-182 1664,-182 1628,-182 1628,-182 1622,-182 1616,-176 1616,-170 1616,-170 1616,-102 1616,-102 1616,-96 1622,-90 1628,-90"/>
<text text-anchor="middle" x="1646" y="-166.8" font-family="Times New Roman,serif" font-size="14.00">idx: 16</text>
<polyline fill="none" stroke="black" points="1616,-159 1676,-159"/>
<text text-anchor="middle" x="1646" y="-143.8" font-family="Times New Roman,serif" font-size="14.00">data: 0</text>
<polyline fill="none" stroke="black" points="1616,-136 1676,-136"/>
<text text-anchor="middle" x="1646" y="-120.8" font-family="Times New Roman,serif" font-size="14.00">next: 17</text>
<polyline fill="none" stroke="black" points="1616,-113 1676,-113"/>
<text text-anchor="middle" x="1646" y="-97.8" font-family="Times New Roman,serif" font-size="14.00">prev: &#45;1</text>
</g>
<!-- 15&#45;&gt;16 -->
<g id="edge17" class="edge">
<title>15&#45;&gt;16</title>
<path fill="none" stroke="#b8860b" d="M1580.23,-129.7C1591.46,-129.1 1604.27,-129.1 1615.53,-129.69"/>
<polygon fill="#b8860b" stroke="#b8860b" points="1615.79,-129.7 1615.79,-129.7 1615.79,-129.7 1615.79,-129.7"/>
</g>
<!-- 15&#45;&gt;16 -->
<g id="edge39" class="edge">
<title>15&#45;&gt;16</title>
<path fill="none" stroke="black" d="M1580.23,-142.3C1588.27,-142.73 1597.13,-142.85 1605.65,-142.67"/>
<polygon fill="black" stroke="black" points="1605.93,-146.16 1615.79,-142.3 1605.67,-139.17 1605.93,-146.16"/>
</g>
<!-- 17 -->
<g id="node18" class="node">
<title>17</title>
<path fill="#40e0d0" stroke="black" d="M1724,-90C1724,-90 1760,-90 1760,-90 1766,-90 1772,-96 1772,-102 1772,-102 1772,-170 1772,-170 1772,-176 1766,-182 1760,-182 1760,-182 1724,-182 1724,-182 1718,-182 1712,-176 1712,-170 1712,-170 1712,-102 1712,-102 1712,-96 1718,-90 1724,-90"/>
<text text-anchor="middle" x="1742" y="-166.8" font-family="Times New Roman,serif" font-size="14.00">idx: 17</text>
<polyline fill="none" stroke="black" points="1712,-159 1772,-159"/>
<text text-anchor="middle" x="1742" y="-143.8" font-family="Times New Roman,serif" font-size="14.00">data: 0</text>
<polyline fill="none" stroke="black" points="1712,-136 1772,-136"/>
<text text-anchor="middle" x="1742" y="-120.8" font-family="Times New Roman,serif" font-size="14.00">next: 18</text>
<polyline fill="none" stroke="black" points="1712,-113 1772,-113"/>
<text text-anchor="middle" x="1742" y="-97.8" font-family="Times New Roman,serif" font-size="14.00">prev: &#45;1</text>
</g>
<!-- 16&#45;&gt;17 -->
<g id="edge18" class="edge">
<title>16&#45;&gt;17</title>
<path fill="none" stroke="#b8860b" d="M1676.23,-129.7C1687.46,-129.1 1700.27,-129.1 1711.53,-129.69"/>
<polygon fill="#b8860b" stroke="#b8860b" points="1711.79,-129.7 1711.79,-129.7 1711.79,-129.7 1711.79,-129.7"/>
</g>
<!-- 16&#45;&gt;17 -->
<g id="edge40" class="edge">
<title>16&#45;&gt;17</title>
<path fill="none" stroke="black" d="M1676.23,-142.3C1684.27,-142.73 1693.13,-142.85 1701.65,-142.67"/>
<polygon fill="black" stroke="black" points="1701.93,-146.16 1711.79,-142.3 1701.67,-139.17 1701.93,-146.16"/>
</g>
<!-- 18 -->
<g id="node19" class="node">
<title>18</title>
<path fill="#40e0d0" stroke="black" d="M1820,-90C1820,-90 1856,-90 1856,-90 1862,-90 1868,-96 1868,-102 1868,-102 1868,-170 1868,-170 1868,-176 1862,-182 1856,-182 1856,-182 1820,-182 1820,-182 1814,-182 1808,-176 1808,-170 1808,-170 1808,-102 1808,-102 1808,-96 1814,-90 1820,-90"/>
<text text-anchor="middle" x="1838" y="-166.8" font-family="Times New Roman,serif" font-size="14.00">idx: 18</text>
<polyline fill="none" stroke="black" points="1808,-159 1868,-159"/>
<text text-anchor="middle" x="1838" y="-143.8" font-family="Times New Roman,serif" font-size="14.00">data: 0</text>
<polyline fill="none" stroke="black" points="1808,-136 1868,-136"/>
<text text-anchor="middle" x="1838" y="-120.8" font-family="Times New Roman,serif" font-size="14.00">next: 19</text>
<polyline fill="none" stroke="black" points="1808,-113 1868,-113"/>
<text text-anchor="middle" x="1838" y="-97.8" font-family="Times New Roman,serif" font-size="14.00">prev: &#45;1</text>
</g>
<!-- 17&#45;&gt;18 -->
<g id="edge19" class="edge">
<title>17&#45;&gt;18</title>
<path fill="none" stroke="#b8860b" d="M1772.23,-129.7C1783.46,-129.1 1796.27,-129.1 1807.53,-129.69"/>
<polygon fill="#b8860b" stroke="#b8860b" points="1807.79,-129.7 1807.79,-129.7 1807.79,-129.7 1807.79,-129.7"/>
</g>
<!-- 17&#45;&gt;18 -->
<g id="edge41" class="edge">
<title>17&#45;&gt;18</title>
<path fill="none" stroke="black" d="M1772.23,-142.3C1780.27,-142.73 1789.13,-142.85 1797.65,-142.67"/>
<polygon fill="black" stroke="black" points="1797.93,-146.16 1807.79,-142.3 1797.67,-139.17 1797.93,-146.16"/>
</g>
<!-- 19 -->
<g id="node20" class="node">
<title>19</title>
<path fill="#40e0d0" stroke="black" d="M1916,-90C1916,-90 1951,-90 1951,-90 1957,-90 1963,-96 1963,-102 1963,-102 1963,-170 1963,-170 1963,-176 1957,-182 1951,-182 1951,-182 1916,-182 1916,-182 1910,-182 1904,-176 1904,-170 1904,-170 1904,-102 1904,-102 1904,-96 1910,-90 1916,-90"/>
<text text-anchor="middle" x="1933.5" y="-166.8" font-family="Times New Roman,serif" font-size="14.00">idx: 19</text>
<polyline fill="none" stroke="black" points="1904,-159 1963,-159"/>
<text text-anchor="middle" x="1933.5" y="-143.8" font-family="Times New Roman,serif" font-size="14.00">data: 0</text>
<polyline fill="none" stroke="black" points="1904,-136 1963,-136"/>
<text text-anchor="middle" x="1933.5" y="-120.8" font-family="Times New Roman,serif" font-size="14.00">next: 0</text>
<polyline fill="none" stroke="black" points="1904,-113 1963,-113"/>
<text text-anchor="middle" x="1933.5" y="-97.8" font-family="Times New Roman,serif" font-size="14.00">prev: &#45;1</text>
</g>
<!-- 18&#45;&gt;19 -->
<g id="edge20" class="edge">
<title>18&#45;&gt;19</title>
<path fill="none" stroke="#b8860b" d="M1868.07,-129.7C1879.35,-129.1 1892.23,-129.1 1903.5,-129.7"/>
<polygon fill="#b8860b" stroke="#b8860b" points="1903.77,-129.72 1903.77,-129.72 1903.77,-129.72 1903.77,-129.72"/>
</g>
<!-- 18&#45;&gt;19 -->
<g id="edge42" class="edge">
<title>18&#45;&gt;19</title>
<path fill="none" stroke="black" d="M1868.07,-142.3C1876.15,-142.73 1885.06,-142.85 1893.6,-142.66"/>
<polygon fill="black" stroke="black" points="1893.91,-146.16 1903.77,-142.28 1893.64,-139.16 1893.91,-146.16"/>
</g>
<!-- 19&#45;&gt;0 -->
<g id="edge43" class="edge">
<title>19&#45;&gt;0</title>
<path fill="none" stroke="black" d="M1903.84,-166.58C1869.22,-200.04 1807.54,-249 1743,-249 302.5,-249 302.5,-249 302.5,-249 227.74,-249 151.8,-201.32 107.75,-167.91"/>
<polygon fill="black" stroke="black" points="109.69,-164.99 99.64,-161.64 105.41,-170.53 109.69,-164.99"/>
</g>
<!-- head -->
<g id="node21" class="node">
<title>head</title>
<path fill="#ccff99" stroke="black" d="M2011,-118C2011,-118 2043,-118 2043,-118 2049,-118 2055,-124 2055,-130 2055,-130 2055,-142 2055,-142 2055,-148 2049,-154 2043,-154 2043,-154 2011,-154 2011,-154 2005,-154 1999,-148 1999,-142 1999,-142 1999,-130 1999,-130 1999,-124 2005,-118 2011,-118"/>
<text text-anchor="middle" x="2027" y="-132.3" font-family="Times New Roman,serif" font-size="14.00">head: 1</text>
</g>
<!-- 19&#45;&gt;head -->
<g id="edge21" class="edge">
<title>19&#45;&gt;head</title>
<path fill="none" stroke="#b8860b" d="M1963.45,-136C1974.67,-136 1987.46,-136 1998.53,-136"/>
<polygon fill="#b8860b" stroke="#b8860b" points="1998.79,-136 1998.79,-136 1998.79,-136 1998.79,-136"/>
</g>
<!-- head&#45;&gt;1 -->
<g id="edge44" class="edge">
<title>head&#45;&gt;1</title>
<path fill="none" stroke="black" d="M2010.5,-154.06C1998.76,-166.5 1981.53,-182.3 1963,-191 1912.47,-214.72 1894.82,-211 1839,-211 393.5,-211 393.5,-211 393.5,-211 340.53,-211 324.31,-212.72 276,-191 266.3,-186.64 256.81,-180.57 248.12,-174.06"/>
<polygon fill="black" stroke="black" points="250.08,-171.15 240.06,-167.71 245.75,-176.65 250.08,-171.15"/>
</g>
<!-- tail -->
<g id="node22" class="node">
<title>tail</title>
<path fill="#ccff99" stroke="black" d="M2103,-118C2103,-118 2133,-118 2133,-118 2139,-118 2145,-124 2145,-130 2145,-130 2145,-142 2145,-142 2145,-148 2139,-154 2133,-154 2133,-154 2103,-154 2103,-154 2097,-154 2091,-148 2091,-142 2091,-142 2091,-130 2091,-130 2091,-124 2097,-118 2103,-118"/>
<text text-anchor="middle" x="2118" y="-132.3" font-family="Times New Roman,serif" font-size="14.00">tail: 10</text>
</g>
<!-- head&#45;&gt;tail -->
<g id="edge22" class="edge">
<title>head&#45;&gt;tail</title>
<path fill="none" stroke="#b8860b" d="M2055.19,-136C2066.45,-136 2079.46,-136 2090.63,-136"/>
<polygon fill="#b8860b" stroke="#b8860b" points="2090.89,-136 2090.89,-136 2090.89,-136 2090.89,-136"/>
</g>
<!-- tail&#45;&gt;10 -->
<g id="edge45" class="edge">
<title>tail&#45;&gt;10</title>
<path fill="none" stroke="black" d="M2106.43,-118C2095.57,-100.99 2077.14,-75.91 2055,-61 2008.42,-29.63 1990.66,-23 1934.5,-23 1261,-23 1261,-23 1261,-23 1201.62,-23 1144.26,-63.17 1107.62,-95.61"/>
<polygon fill="black" stroke="black" points="1105.18,-93.1 1100.12,-102.4 1109.88,-98.29 1105.18,-93.1"/>
</g>
<!-- free -->
<g id="node23" class="node">
<title>free</title>
<path fill="#40e0d0" stroke="black" d="M2193,-118C2193,-118 2227,-118 2227,-118 2233,-118 2239,-124 2239,-130 2239,-130 2239,-142 2239,-142 2239,-148 2233,-154 2227,-154 2227,-154 2193,-154 2193,-154 2187,-154 2181,-148 2181,-142 2181,-142 2181,-130 2181,-130 2181,-124 2187,-118 2193,-118"/>
<text text-anchor="middle" x="2210" y="-132.3" font-family="Times New Roman,serif" font-size="14.00">free: 11</text>
</g>
<!-- tail&#45;&gt;free -->
<g id="edge23" class="edge">
<title>tail&#45;&gt;free</title>
<path fill="none" stroke="#b8860b" d="M2145.03,-136C2156.16,-136 2169.18,-136 2180.56,-136"/>
<polygon fill="#b8860b" stroke="#b8860b" points="2180.82,-136 2180.82,-136 2180.82,-136 2180.82,-136"/>
</g>
<!-- free&#45;&gt;11 -->
<g id="edge46" class="edge">
<title>free&#45;&gt;11</title>
<path fill="none" stroke="black" d="M2180.8,-153.02C2155.91,-165.66 2119.28,-178.29 2091,-163 2065.3,-149.11 2078.38,-125.53 2055,-108 1976.39,-49.07 1937.25,-61 1839,-61 1357,-61 1357,-61 1357,-61 1300.81,-61 1283.05,-56.52 1232,-80 1222.05,-84.57 1212.46,-91.14 1203.84,-98.17"/>
<polygon fill="black" stroke="black" points="1201.52,-95.55 1196.21,-104.72 1206.08,-100.86 1201.52,-95.55"/>
</g>
<!-- All -->
<g id="node24" class="node">
<title>All</title>
<path fill="#ff0000" stroke="black" d="M12,-219C12,-219 125,-219 125,-219 131,-219 137,-225 137,-231 137,-231 137,-253 137,-253 137,-259 131,-265 125,-265 125,-265 12,-265 12,-265 6,-265 0,-259 0,-253 0,-253 0,-231 0,-231 0,-225 6,-219 12,-219"/>
<text text-anchor="middle" x="68.5" y="-249.8" font-family="Times New Roman,serif" font-size="14.00">size = 20</text>
<polyline fill="none" stroke="black" points="0,-242 137,-242"/>
<text text-anchor="middle" x="68.5" y="-226.8" font-family="Times New Roman,serif" font-size="14.00">data_ptr = 010FD310</text>
</g>
</g>
</svg>
