<?xml version="1.0" encoding="UTF-8" standalone="no"?>
<!DOCTYPE svg PUBLIC "-//W3C//DTD SVG 1.1//EN"
 "http://www.w3.org/Graphics/SVG/1.1/DTD/svg11.dtd">
<!-- Generated by graphviz version 6.0.2 (20221011.1828)
 -->
<!-- Title: List Pages: 1 -->
<svg width="2198pt" height="264pt"
 viewBox="0.00 0.00 2198.00 263.50" xmlns="http://www.w3.org/2000/svg" xmlns:xlink="http://www.w3.org/1999/xlink">
<g id="graph0" class="graph" transform="scale(1 1) rotate(0) translate(4 259.5)">
<title>List</title>
<polygon fill="#696969" stroke="none" points="-4,4 -4,-259.5 2194,-259.5 2194,4 -4,4"/>
<text text-anchor="middle" x="1095" y="-7.8" font-family="Times New Roman,serif" font-size="14.00">list_dump from function main, List/main.cpp:30</text>
<!-- 0 -->
<g id="node1" class="node">
<title>0</title>
<path fill="#ff0000" stroke="black" d="M14.5,-90C14.5,-90 52.5,-90 52.5,-90 58.5,-90 64.5,-96 64.5,-102 64.5,-102 64.5,-170 64.5,-170 64.5,-176 58.5,-182 52.5,-182 52.5,-182 14.5,-182 14.5,-182 8.5,-182 2.5,-176 2.5,-170 2.5,-170 2.5,-102 2.5,-102 2.5,-96 8.5,-90 14.5,-90"/>
<text text-anchor="middle" x="33.5" y="-166.8" font-family="Times New Roman,serif" font-size="14.00">idx: 0</text>
<polyline fill="none" stroke="black" points="2.5,-159 64.5,-159"/>
<text text-anchor="middle" x="33.5" y="-143.8" font-family="Times New Roman,serif" font-size="14.00">data: 0</text>
<polyline fill="none" stroke="black" points="2.5,-136 64.5,-136"/>
<text text-anchor="middle" x="33.5" y="-120.8" font-family="Times New Roman,serif" font-size="14.00">next: 1</text>
<polyline fill="none" stroke="black" points="2.5,-113 64.5,-113"/>
<text text-anchor="middle" x="33.5" y="-97.8" font-family="Times New Roman,serif" font-size="14.00">prev: 10</text>
</g>
<!-- 0&#45;&gt;0 -->
<g id="edge1" class="edge">
<title>0&#45;&gt;0</title>
<path fill="none" stroke="#696969" d="M14.61,-182.09C16.24,-192.7 22.54,-200.5 33.5,-200.5 44.29,-200.5 50.56,-192.95 52.31,-182.59"/>
<polygon fill="#696969" stroke="#696969" points="52.39,-182.09 52.39,-182.09 52.39,-182.09 52.39,-182.09"/>
</g>
<!-- 1 -->
<g id="node2" class="node">
<title>1</title>
<path fill="#ccff99" stroke="black" d="M115,-90C115,-90 158,-90 158,-90 164,-90 170,-96 170,-102 170,-102 170,-170 170,-170 170,-176 164,-182 158,-182 158,-182 115,-182 115,-182 109,-182 103,-176 103,-170 103,-170 103,-102 103,-102 103,-96 109,-90 115,-90"/>
<text text-anchor="middle" x="136.5" y="-166.8" font-family="Times New Roman,serif" font-size="14.00">idx: 1</text>
<polyline fill="none" stroke="black" points="103,-159 170,-159"/>
<text text-anchor="middle" x="136.5" y="-143.8" font-family="Times New Roman,serif" font-size="14.00">data: 400</text>
<polyline fill="none" stroke="black" points="103,-136 170,-136"/>
<text text-anchor="middle" x="136.5" y="-120.8" font-family="Times New Roman,serif" font-size="14.00">next: 2</text>
<polyline fill="none" stroke="black" points="103,-113 170,-113"/>
<text text-anchor="middle" x="136.5" y="-97.8" font-family="Times New Roman,serif" font-size="14.00">prev: 0</text>
</g>
<!-- 0&#45;&gt;1 -->
<g id="edge2" class="edge">
<title>0&#45;&gt;1</title>
<path fill="none" stroke="#696969" d="M64.53,-129.77C76.53,-129.13 90.39,-129.08 102.65,-129.63"/>
<polygon fill="#696969" stroke="#696969" points="102.94,-129.64 102.94,-129.64 102.94,-129.64 102.94,-129.64"/>
</g>
<!-- 0&#45;&gt;1 -->
<g id="edge24" class="edge">
<title>0&#45;&gt;1</title>
<path fill="none" stroke="black" d="M64.53,-142.23C73.41,-142.71 83.31,-142.86 92.83,-142.68"/>
<polygon fill="black" stroke="black" points="93.06,-146.17 102.94,-142.36 92.84,-139.18 93.06,-146.17"/>
</g>
<!-- 2 -->
<g id="node3" class="node">
<title>2</title>
<path fill="#ccff99" stroke="black" d="M218,-90C218,-90 249,-90 249,-90 255,-90 261,-96 261,-102 261,-102 261,-170 261,-170 261,-176 255,-182 249,-182 249,-182 218,-182 218,-182 212,-182 206,-176 206,-170 206,-170 206,-102 206,-102 206,-96 212,-90 218,-90"/>
<text text-anchor="middle" x="233.5" y="-166.8" font-family="Times New Roman,serif" font-size="14.00">idx: 2</text>
<polyline fill="none" stroke="black" points="206,-159 261,-159"/>
<text text-anchor="middle" x="233.5" y="-143.8" font-family="Times New Roman,serif" font-size="14.00">data: 1</text>
<polyline fill="none" stroke="black" points="206,-136 261,-136"/>
<text text-anchor="middle" x="233.5" y="-120.8" font-family="Times New Roman,serif" font-size="14.00">next: 3</text>
<polyline fill="none" stroke="black" points="206,-113 261,-113"/>
<text text-anchor="middle" x="233.5" y="-97.8" font-family="Times New Roman,serif" font-size="14.00">prev: 1</text>
</g>
<!-- 1&#45;&gt;2 -->
<g id="edge3" class="edge">
<title>1&#45;&gt;2</title>
<path fill="none" stroke="#696969" d="M170.19,-129.55C181.7,-129.07 194.49,-129.17 205.47,-129.84"/>
<polygon fill="#696969" stroke="#696969" points="205.73,-129.86 205.73,-129.86 205.73,-129.86 205.73,-129.86"/>
</g>
<!-- 1&#45;&gt;2 -->
<g id="edge25" class="edge">
<title>1&#45;&gt;2</title>
<path fill="none" stroke="black" d="M170.19,-142.45C178.35,-142.79 187.14,-142.84 195.49,-142.6"/>
<polygon fill="black" stroke="black" points="195.9,-146.09 205.73,-142.14 195.58,-139.09 195.9,-146.09"/>
</g>
<!-- 3 -->
<g id="node4" class="node">
<title>3</title>
<path fill="#ccff99" stroke="black" d="M309,-90C309,-90 340,-90 340,-90 346,-90 352,-96 352,-102 352,-102 352,-170 352,-170 352,-176 346,-182 340,-182 340,-182 309,-182 309,-182 303,-182 297,-176 297,-170 297,-170 297,-102 297,-102 297,-96 303,-90 309,-90"/>
<text text-anchor="middle" x="324.5" y="-166.8" font-family="Times New Roman,serif" font-size="14.00">idx: 3</text>
<polyline fill="none" stroke="black" points="297,-159 352,-159"/>
<text text-anchor="middle" x="324.5" y="-143.8" font-family="Times New Roman,serif" font-size="14.00">data: 2</text>
<polyline fill="none" stroke="black" points="297,-136 352,-136"/>
<text text-anchor="middle" x="324.5" y="-120.8" font-family="Times New Roman,serif" font-size="14.00">next: 4</text>
<polyline fill="none" stroke="black" points="297,-113 352,-113"/>
<text text-anchor="middle" x="324.5" y="-97.8" font-family="Times New Roman,serif" font-size="14.00">prev: 2</text>
</g>
<!-- 2&#45;&gt;3 -->
<g id="edge4" class="edge">
<title>2&#45;&gt;3</title>
<path fill="none" stroke="#696969" d="M261.2,-129.75C272.38,-129.09 285.35,-129.08 296.55,-129.74"/>
<polygon fill="#696969" stroke="#696969" points="296.82,-129.76 296.82,-129.76 296.82,-129.76 296.82,-129.76"/>
</g>
<!-- 2&#45;&gt;3 -->
<g id="edge26" class="edge">
<title>2&#45;&gt;3</title>
<path fill="none" stroke="black" d="M261.2,-142.25C269.21,-142.72 278.14,-142.86 286.68,-142.66"/>
<polygon fill="black" stroke="black" points="286.97,-146.15 296.82,-142.24 286.68,-139.16 286.97,-146.15"/>
</g>
<!-- 4 -->
<g id="node5" class="node">
<title>4</title>
<path fill="#ccff99" stroke="black" d="M400,-90C400,-90 443,-90 443,-90 449,-90 455,-96 455,-102 455,-102 455,-170 455,-170 455,-176 449,-182 443,-182 443,-182 400,-182 400,-182 394,-182 388,-176 388,-170 388,-170 388,-102 388,-102 388,-96 394,-90 400,-90"/>
<text text-anchor="middle" x="421.5" y="-166.8" font-family="Times New Roman,serif" font-size="14.00">idx: 4</text>
<polyline fill="none" stroke="black" points="388,-159 455,-159"/>
<text text-anchor="middle" x="421.5" y="-143.8" font-family="Times New Roman,serif" font-size="14.00">data: 300</text>
<polyline fill="none" stroke="black" points="388,-136 455,-136"/>
<text text-anchor="middle" x="421.5" y="-120.8" font-family="Times New Roman,serif" font-size="14.00">next: 5</text>
<polyline fill="none" stroke="black" points="388,-113 455,-113"/>
<text text-anchor="middle" x="421.5" y="-97.8" font-family="Times New Roman,serif" font-size="14.00">prev: 3</text>
</g>
<!-- 3&#45;&gt;4 -->
<g id="edge5" class="edge">
<title>3&#45;&gt;4</title>
<path fill="none" stroke="#696969" d="M352.22,-129.86C363.21,-129.17 376.07,-129.07 387.63,-129.54"/>
<polygon fill="#696969" stroke="#696969" points="387.91,-129.55 387.91,-129.55 387.91,-129.55 387.91,-129.55"/>
</g>
<!-- 3&#45;&gt;4 -->
<g id="edge27" class="edge">
<title>3&#45;&gt;4</title>
<path fill="none" stroke="black" d="M352.22,-142.14C360.18,-142.64 369.12,-142.83 377.84,-142.72"/>
<polygon fill="black" stroke="black" points="378.01,-146.22 387.91,-142.45 377.82,-139.22 378.01,-146.22"/>
</g>
<!-- 5 -->
<g id="node6" class="node">
<title>5</title>
<path fill="#ccff99" stroke="black" d="M503,-90C503,-90 534,-90 534,-90 540,-90 546,-96 546,-102 546,-102 546,-170 546,-170 546,-176 540,-182 534,-182 534,-182 503,-182 503,-182 497,-182 491,-176 491,-170 491,-170 491,-102 491,-102 491,-96 497,-90 503,-90"/>
<text text-anchor="middle" x="518.5" y="-166.8" font-family="Times New Roman,serif" font-size="14.00">idx: 5</text>
<polyline fill="none" stroke="black" points="491,-159 546,-159"/>
<text text-anchor="middle" x="518.5" y="-143.8" font-family="Times New Roman,serif" font-size="14.00">data: 3</text>
<polyline fill="none" stroke="black" points="491,-136 546,-136"/>
<text text-anchor="middle" x="518.5" y="-120.8" font-family="Times New Roman,serif" font-size="14.00">next: 6</text>
<polyline fill="none" stroke="black" points="491,-113 546,-113"/>
<text text-anchor="middle" x="518.5" y="-97.8" font-family="Times New Roman,serif" font-size="14.00">prev: 4</text>
</g>
<!-- 4&#45;&gt;5 -->
<g id="edge6" class="edge">
<title>4&#45;&gt;5</title>
<path fill="none" stroke="#696969" d="M455.19,-129.55C466.7,-129.07 479.49,-129.17 490.47,-129.84"/>
<polygon fill="#696969" stroke="#696969" points="490.73,-129.86 490.73,-129.86 490.73,-129.86 490.73,-129.86"/>
</g>
<!-- 4&#45;&gt;5 -->
<g id="edge28" class="edge">
<title>4&#45;&gt;5</title>
<path fill="none" stroke="black" d="M455.19,-142.45C463.35,-142.79 472.14,-142.84 480.49,-142.6"/>
<polygon fill="black" stroke="black" points="480.9,-146.09 490.73,-142.14 480.58,-139.09 480.9,-146.09"/>
</g>
<!-- 6 -->
<g id="node7" class="node">
<title>6</title>
<path fill="#ccff99" stroke="black" d="M594,-90C594,-90 637,-90 637,-90 643,-90 649,-96 649,-102 649,-102 649,-170 649,-170 649,-176 643,-182 637,-182 637,-182 594,-182 594,-182 588,-182 582,-176 582,-170 582,-170 582,-102 582,-102 582,-96 588,-90 594,-90"/>
<text text-anchor="middle" x="615.5" y="-166.8" font-family="Times New Roman,serif" font-size="14.00">idx: 6</text>
<polyline fill="none" stroke="black" points="582,-159 649,-159"/>
<text text-anchor="middle" x="615.5" y="-143.8" font-family="Times New Roman,serif" font-size="14.00">data: 200</text>
<polyline fill="none" stroke="black" points="582,-136 649,-136"/>
<text text-anchor="middle" x="615.5" y="-120.8" font-family="Times New Roman,serif" font-size="14.00">next: 7</text>
<polyline fill="none" stroke="black" points="582,-113 649,-113"/>
<text text-anchor="middle" x="615.5" y="-97.8" font-family="Times New Roman,serif" font-size="14.00">prev: 5</text>
</g>
<!-- 5&#45;&gt;6 -->
<g id="edge7" class="edge">
<title>5&#45;&gt;6</title>
<path fill="none" stroke="#696969" d="M546.22,-129.86C557.21,-129.17 570.07,-129.07 581.63,-129.54"/>
<polygon fill="#696969" stroke="#696969" points="581.91,-129.55 581.91,-129.55 581.91,-129.55 581.91,-129.55"/>
</g>
<!-- 5&#45;&gt;6 -->
<g id="edge29" class="edge">
<title>5&#45;&gt;6</title>
<path fill="none" stroke="black" d="M546.22,-142.14C554.18,-142.64 563.12,-142.83 571.84,-142.72"/>
<polygon fill="black" stroke="black" points="572.01,-146.22 581.91,-142.45 571.82,-139.22 572.01,-146.22"/>
</g>
<!-- 7 -->
<g id="node8" class="node">
<title>7</title>
<path fill="#ccff99" stroke="black" d="M697,-90C697,-90 728,-90 728,-90 734,-90 740,-96 740,-102 740,-102 740,-170 740,-170 740,-176 734,-182 728,-182 728,-182 697,-182 697,-182 691,-182 685,-176 685,-170 685,-170 685,-102 685,-102 685,-96 691,-90 697,-90"/>
<text text-anchor="middle" x="712.5" y="-166.8" font-family="Times New Roman,serif" font-size="14.00">idx: 7</text>
<polyline fill="none" stroke="black" points="685,-159 740,-159"/>
<text text-anchor="middle" x="712.5" y="-143.8" font-family="Times New Roman,serif" font-size="14.00">data: 4</text>
<polyline fill="none" stroke="black" points="685,-136 740,-136"/>
<text text-anchor="middle" x="712.5" y="-120.8" font-family="Times New Roman,serif" font-size="14.00">next: 8</text>
<polyline fill="none" stroke="black" points="685,-113 740,-113"/>
<text text-anchor="middle" x="712.5" y="-97.8" font-family="Times New Roman,serif" font-size="14.00">prev: 6</text>
</g>
<!-- 6&#45;&gt;7 -->
<g id="edge8" class="edge">
<title>6&#45;&gt;7</title>
<path fill="none" stroke="#696969" d="M649.19,-129.55C660.7,-129.07 673.49,-129.17 684.47,-129.84"/>
<polygon fill="#696969" stroke="#696969" points="684.73,-129.86 684.73,-129.86 684.73,-129.86 684.73,-129.86"/>
</g>
<!-- 6&#45;&gt;7 -->
<g id="edge30" class="edge">
<title>6&#45;&gt;7</title>
<path fill="none" stroke="black" d="M649.19,-142.45C657.35,-142.79 666.14,-142.84 674.49,-142.6"/>
<polygon fill="black" stroke="black" points="674.9,-146.09 684.73,-142.14 674.58,-139.09 674.9,-146.09"/>
</g>
<!-- 8 -->
<g id="node9" class="node">
<title>8</title>
<path fill="#ccff99" stroke="black" d="M788,-90C788,-90 819,-90 819,-90 825,-90 831,-96 831,-102 831,-102 831,-170 831,-170 831,-176 825,-182 819,-182 819,-182 788,-182 788,-182 782,-182 776,-176 776,-170 776,-170 776,-102 776,-102 776,-96 782,-90 788,-90"/>
<text text-anchor="middle" x="803.5" y="-166.8" font-family="Times New Roman,serif" font-size="14.00">idx: 8</text>
<polyline fill="none" stroke="black" points="776,-159 831,-159"/>
<text text-anchor="middle" x="803.5" y="-143.8" font-family="Times New Roman,serif" font-size="14.00">data: 5</text>
<polyline fill="none" stroke="black" points="776,-136 831,-136"/>
<text text-anchor="middle" x="803.5" y="-120.8" font-family="Times New Roman,serif" font-size="14.00">next: 9</text>
<polyline fill="none" stroke="black" points="776,-113 831,-113"/>
<text text-anchor="middle" x="803.5" y="-97.8" font-family="Times New Roman,serif" font-size="14.00">prev: 7</text>
</g>
<!-- 7&#45;&gt;8 -->
<g id="edge9" class="edge">
<title>7&#45;&gt;8</title>
<path fill="none" stroke="#696969" d="M740.2,-129.75C751.38,-129.09 764.35,-129.08 775.55,-129.74"/>
<polygon fill="#696969" stroke="#696969" points="775.82,-129.76 775.82,-129.76 775.82,-129.76 775.82,-129.76"/>
</g>
<!-- 7&#45;&gt;8 -->
<g id="edge31" class="edge">
<title>7&#45;&gt;8</title>
<path fill="none" stroke="black" d="M740.2,-142.25C748.21,-142.72 757.14,-142.86 765.68,-142.66"/>
<polygon fill="black" stroke="black" points="765.97,-146.15 775.82,-142.24 765.68,-139.16 765.97,-146.15"/>
</g>
<!-- 9 -->
<g id="node10" class="node">
<title>9</title>
<path fill="#ccff99" stroke="black" d="M879,-90C879,-90 915,-90 915,-90 921,-90 927,-96 927,-102 927,-102 927,-170 927,-170 927,-176 921,-182 915,-182 915,-182 879,-182 879,-182 873,-182 867,-176 867,-170 867,-170 867,-102 867,-102 867,-96 873,-90 879,-90"/>
<text text-anchor="middle" x="897" y="-166.8" font-family="Times New Roman,serif" font-size="14.00">idx: 9</text>
<polyline fill="none" stroke="black" points="867,-159 927,-159"/>
<text text-anchor="middle" x="897" y="-143.8" font-family="Times New Roman,serif" font-size="14.00">data: 6</text>
<polyline fill="none" stroke="black" points="867,-136 927,-136"/>
<text text-anchor="middle" x="897" y="-120.8" font-family="Times New Roman,serif" font-size="14.00">next: 10</text>
<polyline fill="none" stroke="black" points="867,-113 927,-113"/>
<text text-anchor="middle" x="897" y="-97.8" font-family="Times New Roman,serif" font-size="14.00">prev: 8</text>
</g>
<!-- 8&#45;&gt;9 -->
<g id="edge10" class="edge">
<title>8&#45;&gt;9</title>
<path fill="none" stroke="#696969" d="M831.46,-129.78C842.44,-129.12 855.17,-129.08 866.41,-129.64"/>
<polygon fill="#696969" stroke="#696969" points="866.68,-129.65 866.68,-129.65 866.68,-129.65 866.68,-129.65"/>
</g>
<!-- 8&#45;&gt;9 -->
<g id="edge32" class="edge">
<title>8&#45;&gt;9</title>
<path fill="none" stroke="black" d="M831.46,-142.22C839.33,-142.69 848.1,-142.85 856.57,-142.69"/>
<polygon fill="black" stroke="black" points="856.8,-146.19 866.68,-142.35 856.57,-139.19 856.8,-146.19"/>
</g>
<!-- 10 -->
<g id="node11" class="node">
<title>10</title>
<path fill="#ccff99" stroke="black" d="M975,-90C975,-90 1018,-90 1018,-90 1024,-90 1030,-96 1030,-102 1030,-102 1030,-170 1030,-170 1030,-176 1024,-182 1018,-182 1018,-182 975,-182 975,-182 969,-182 963,-176 963,-170 963,-170 963,-102 963,-102 963,-96 969,-90 975,-90"/>
<text text-anchor="middle" x="996.5" y="-166.8" font-family="Times New Roman,serif" font-size="14.00">idx: 10</text>
<polyline fill="none" stroke="black" points="963,-159 1030,-159"/>
<text text-anchor="middle" x="996.5" y="-143.8" font-family="Times New Roman,serif" font-size="14.00">data: 100</text>
<polyline fill="none" stroke="black" points="963,-136 1030,-136"/>
<text text-anchor="middle" x="996.5" y="-120.8" font-family="Times New Roman,serif" font-size="14.00">next: 0</text>
<polyline fill="none" stroke="black" points="963,-113 1030,-113"/>
<text text-anchor="middle" x="996.5" y="-97.8" font-family="Times New Roman,serif" font-size="14.00">prev: 9</text>
</g>
<!-- 9&#45;&gt;10 -->
<g id="edge11" class="edge">
<title>9&#45;&gt;10</title>
<path fill="none" stroke="#696969" d="M927.25,-129.75C938.38,-129.15 951.14,-129.09 962.59,-129.58"/>
<polygon fill="#696969" stroke="#696969" points="962.86,-129.59 962.86,-129.59 962.86,-129.59 962.86,-129.59"/>
</g>
<!-- 9&#45;&gt;10 -->
<g id="edge33" class="edge">
<title>9&#45;&gt;10</title>
<path fill="none" stroke="black" d="M927.25,-142.25C935.23,-142.68 944.04,-142.83 952.6,-142.71"/>
<polygon fill="black" stroke="black" points="952.96,-146.2 962.86,-142.41 952.76,-139.2 952.96,-146.2"/>
</g>
<!-- 10&#45;&gt;0 -->
<g id="edge34" class="edge">
<title>10&#45;&gt;0</title>
<path fill="none" stroke="black" d="M962.72,-103.29C952.11,-94.42 939.77,-85.69 927,-80 876.68,-57.55 859.6,-61 804.5,-61 232.5,-61 232.5,-61 232.5,-61 174.33,-61 156.22,-56.52 103,-80 92.35,-84.7 82,-91.53 72.71,-98.81"/>
<polygon fill="black" stroke="black" points="70.33,-96.23 64.83,-105.28 74.78,-101.63 70.33,-96.23"/>
</g>
<!-- 11 -->
<g id="node12" class="node">
<title>11</title>
<path fill="#00bfff" stroke="black" d="M1078,-90C1078,-90 1114,-90 1114,-90 1120,-90 1126,-96 1126,-102 1126,-102 1126,-170 1126,-170 1126,-176 1120,-182 1114,-182 1114,-182 1078,-182 1078,-182 1072,-182 1066,-176 1066,-170 1066,-170 1066,-102 1066,-102 1066,-96 1072,-90 1078,-90"/>
<text text-anchor="middle" x="1096" y="-166.8" font-family="Times New Roman,serif" font-size="14.00">idx: 11</text>
<polyline fill="none" stroke="black" points="1066,-159 1126,-159"/>
<text text-anchor="middle" x="1096" y="-143.8" font-family="Times New Roman,serif" font-size="14.00">data: 0</text>
<polyline fill="none" stroke="black" points="1066,-136 1126,-136"/>
<text text-anchor="middle" x="1096" y="-120.8" font-family="Times New Roman,serif" font-size="14.00">next: 12</text>
<polyline fill="none" stroke="black" points="1066,-113 1126,-113"/>
<text text-anchor="middle" x="1096" y="-97.8" font-family="Times New Roman,serif" font-size="14.00">prev: &#45;1</text>
</g>
<!-- 10&#45;&gt;11 -->
<g id="edge12" class="edge">
<title>10&#45;&gt;11</title>
<path fill="none" stroke="#696969" d="M1030.24,-136C1041.65,-136 1054.39,-136 1065.53,-136"/>
<polygon fill="#696969" stroke="#696969" points="1065.79,-136 1065.79,-136 1065.79,-136 1065.79,-136"/>
</g>
<!-- 12 -->
<g id="node13" class="node">
<title>12</title>
<path fill="#00bfff" stroke="black" d="M1174,-90C1174,-90 1217,-90 1217,-90 1223,-90 1229,-96 1229,-102 1229,-102 1229,-170 1229,-170 1229,-176 1223,-182 1217,-182 1217,-182 1174,-182 1174,-182 1168,-182 1162,-176 1162,-170 1162,-170 1162,-102 1162,-102 1162,-96 1168,-90 1174,-90"/>
<text text-anchor="middle" x="1195.5" y="-166.8" font-family="Times New Roman,serif" font-size="14.00">idx: 12</text>
<polyline fill="none" stroke="black" points="1162,-159 1229,-159"/>
<text text-anchor="middle" x="1195.5" y="-143.8" font-family="Times New Roman,serif" font-size="14.00">data: 400</text>
<polyline fill="none" stroke="black" points="1162,-136 1229,-136"/>
<text text-anchor="middle" x="1195.5" y="-120.8" font-family="Times New Roman,serif" font-size="14.00">next: 13</text>
<polyline fill="none" stroke="black" points="1162,-113 1229,-113"/>
<text text-anchor="middle" x="1195.5" y="-97.8" font-family="Times New Roman,serif" font-size="14.00">prev: &#45;1</text>
</g>
<!-- 11&#45;&gt;12 -->
<g id="edge13" class="edge">
<title>11&#45;&gt;12</title>
<path fill="none" stroke="#696969" d="M1126.25,-129.75C1137.38,-129.15 1150.14,-129.09 1161.59,-129.58"/>
<polygon fill="#696969" stroke="#696969" points="1161.86,-129.59 1161.86,-129.59 1161.86,-129.59 1161.86,-129.59"/>
</g>
<!-- 11&#45;&gt;12 -->
<g id="edge35" class="edge">
<title>11&#45;&gt;12</title>
<path fill="none" stroke="black" d="M1126.25,-142.25C1134.23,-142.68 1143.04,-142.83 1151.6,-142.71"/>
<polygon fill="black" stroke="black" points="1151.96,-146.2 1161.86,-142.41 1151.76,-139.2 1151.96,-146.2"/>
</g>
<!-- 13 -->
<g id="node14" class="node">
<title>13</title>
<path fill="#00bfff" stroke="black" d="M1277,-90C1277,-90 1313,-90 1313,-90 1319,-90 1325,-96 1325,-102 1325,-102 1325,-170 1325,-170 1325,-176 1319,-182 1313,-182 1313,-182 1277,-182 1277,-182 1271,-182 1265,-176 1265,-170 1265,-170 1265,-102 1265,-102 1265,-96 1271,-90 1277,-90"/>
<text text-anchor="middle" x="1295" y="-166.8" font-family="Times New Roman,serif" font-size="14.00">idx: 13</text>
<polyline fill="none" stroke="black" points="1265,-159 1325,-159"/>
<text text-anchor="middle" x="1295" y="-143.8" font-family="Times New Roman,serif" font-size="14.00">data: 1</text>
<polyline fill="none" stroke="black" points="1265,-136 1325,-136"/>
<text text-anchor="middle" x="1295" y="-120.8" font-family="Times New Roman,serif" font-size="14.00">next: 14</text>
<polyline fill="none" stroke="black" points="1265,-113 1325,-113"/>
<text text-anchor="middle" x="1295" y="-97.8" font-family="Times New Roman,serif" font-size="14.00">prev: &#45;1</text>
</g>
<!-- 12&#45;&gt;13 -->
<g id="edge14" class="edge">
<title>12&#45;&gt;13</title>
<path fill="none" stroke="#696969" d="M1229.24,-129.58C1240.65,-129.09 1253.39,-129.14 1264.53,-129.74"/>
<polygon fill="#696969" stroke="#696969" points="1264.79,-129.76 1264.79,-129.76 1264.79,-129.76 1264.79,-129.76"/>
</g>
<!-- 12&#45;&gt;13 -->
<g id="edge36" class="edge">
<title>12&#45;&gt;13</title>
<path fill="none" stroke="black" d="M1229.24,-142.42C1237.42,-142.77 1246.28,-142.84 1254.74,-142.64"/>
<polygon fill="black" stroke="black" points="1254.93,-146.13 1264.79,-142.24 1254.66,-139.14 1254.93,-146.13"/>
</g>
<!-- 14 -->
<g id="node15" class="node">
<title>14</title>
<path fill="#00bfff" stroke="black" d="M1373,-90C1373,-90 1409,-90 1409,-90 1415,-90 1421,-96 1421,-102 1421,-102 1421,-170 1421,-170 1421,-176 1415,-182 1409,-182 1409,-182 1373,-182 1373,-182 1367,-182 1361,-176 1361,-170 1361,-170 1361,-102 1361,-102 1361,-96 1367,-90 1373,-90"/>
<text text-anchor="middle" x="1391" y="-166.8" font-family="Times New Roman,serif" font-size="14.00">idx: 14</text>
<polyline fill="none" stroke="black" points="1361,-159 1421,-159"/>
<text text-anchor="middle" x="1391" y="-143.8" font-family="Times New Roman,serif" font-size="14.00">data: 2</text>
<polyline fill="none" stroke="black" points="1361,-136 1421,-136"/>
<text text-anchor="middle" x="1391" y="-120.8" font-family="Times New Roman,serif" font-size="14.00">next: 15</text>
<polyline fill="none" stroke="black" points="1361,-113 1421,-113"/>
<text text-anchor="middle" x="1391" y="-97.8" font-family="Times New Roman,serif" font-size="14.00">prev: &#45;1</text>
</g>
<!-- 13&#45;&gt;14 -->
<g id="edge15" class="edge">
<title>13&#45;&gt;14</title>
<path fill="none" stroke="#696969" d="M1325.23,-129.7C1336.46,-129.1 1349.27,-129.1 1360.53,-129.69"/>
<polygon fill="#696969" stroke="#696969" points="1360.79,-129.7 1360.79,-129.7 1360.79,-129.7 1360.79,-129.7"/>
</g>
<!-- 13&#45;&gt;14 -->
<g id="edge37" class="edge">
<title>13&#45;&gt;14</title>
<path fill="none" stroke="black" d="M1325.23,-142.3C1333.27,-142.73 1342.13,-142.85 1350.65,-142.67"/>
<polygon fill="black" stroke="black" points="1350.93,-146.16 1360.79,-142.3 1350.67,-139.17 1350.93,-146.16"/>
</g>
<!-- 15 -->
<g id="node16" class="node">
<title>15</title>
<path fill="#00bfff" stroke="black" d="M1469,-90C1469,-90 1512,-90 1512,-90 1518,-90 1524,-96 1524,-102 1524,-102 1524,-170 1524,-170 1524,-176 1518,-182 1512,-182 1512,-182 1469,-182 1469,-182 1463,-182 1457,-176 1457,-170 1457,-170 1457,-102 1457,-102 1457,-96 1463,-90 1469,-90"/>
<text text-anchor="middle" x="1490.5" y="-166.8" font-family="Times New Roman,serif" font-size="14.00">idx: 15</text>
<polyline fill="none" stroke="black" points="1457,-159 1524,-159"/>
<text text-anchor="middle" x="1490.5" y="-143.8" font-family="Times New Roman,serif" font-size="14.00">data: 300</text>
<polyline fill="none" stroke="black" points="1457,-136 1524,-136"/>
<text text-anchor="middle" x="1490.5" y="-120.8" font-family="Times New Roman,serif" font-size="14.00">next: 16</text>
<polyline fill="none" stroke="black" points="1457,-113 1524,-113"/>
<text text-anchor="middle" x="1490.5" y="-97.8" font-family="Times New Roman,serif" font-size="14.00">prev: &#45;1</text>
</g>
<!-- 14&#45;&gt;15 -->
<g id="edge16" class="edge">
<title>14&#45;&gt;15</title>
<path fill="none" stroke="#696969" d="M1421.25,-129.75C1432.38,-129.15 1445.14,-129.09 1456.59,-129.58"/>
<polygon fill="#696969" stroke="#696969" points="1456.86,-129.59 1456.86,-129.59 1456.86,-129.59 1456.86,-129.59"/>
</g>
<!-- 14&#45;&gt;15 -->
<g id="edge38" class="edge">
<title>14&#45;&gt;15</title>
<path fill="none" stroke="black" d="M1421.25,-142.25C1429.23,-142.68 1438.04,-142.83 1446.6,-142.71"/>
<polygon fill="black" stroke="black" points="1446.96,-146.2 1456.86,-142.41 1446.76,-139.2 1446.96,-146.2"/>
</g>
<!-- 16 -->
<g id="node17" class="node">
<title>16</title>
<path fill="#00bfff" stroke="black" d="M1572,-90C1572,-90 1608,-90 1608,-90 1614,-90 1620,-96 1620,-102 1620,-102 1620,-170 1620,-170 1620,-176 1614,-182 1608,-182 1608,-182 1572,-182 1572,-182 1566,-182 1560,-176 1560,-170 1560,-170 1560,-102 1560,-102 1560,-96 1566,-90 1572,-90"/>
<text text-anchor="middle" x="1590" y="-166.8" font-family="Times New Roman,serif" font-size="14.00">idx: 16</text>
<polyline fill="none" stroke="black" points="1560,-159 1620,-159"/>
<text text-anchor="middle" x="1590" y="-143.8" font-family="Times New Roman,serif" font-size="14.00">data: 3</text>
<polyline fill="none" stroke="black" points="1560,-136 1620,-136"/>
<text text-anchor="middle" x="1590" y="-120.8" font-family="Times New Roman,serif" font-size="14.00">next: 17</text>
<polyline fill="none" stroke="black" points="1560,-113 1620,-113"/>
<text text-anchor="middle" x="1590" y="-97.8" font-family="Times New Roman,serif" font-size="14.00">prev: &#45;1</text>
</g>
<!-- 15&#45;&gt;16 -->
<g id="edge17" class="edge">
<title>15&#45;&gt;16</title>
<path fill="none" stroke="#696969" d="M1524.24,-129.58C1535.65,-129.09 1548.39,-129.14 1559.53,-129.74"/>
<polygon fill="#696969" stroke="#696969" points="1559.79,-129.76 1559.79,-129.76 1559.79,-129.76 1559.79,-129.76"/>
</g>
<!-- 15&#45;&gt;16 -->
<g id="edge39" class="edge">
<title>15&#45;&gt;16</title>
<path fill="none" stroke="black" d="M1524.24,-142.42C1532.42,-142.77 1541.28,-142.84 1549.74,-142.64"/>
<polygon fill="black" stroke="black" points="1549.93,-146.13 1559.79,-142.24 1549.66,-139.14 1549.93,-146.13"/>
</g>
<!-- 17 -->
<g id="node18" class="node">
<title>17</title>
<path fill="#00bfff" stroke="black" d="M1668,-90C1668,-90 1711,-90 1711,-90 1717,-90 1723,-96 1723,-102 1723,-102 1723,-170 1723,-170 1723,-176 1717,-182 1711,-182 1711,-182 1668,-182 1668,-182 1662,-182 1656,-176 1656,-170 1656,-170 1656,-102 1656,-102 1656,-96 1662,-90 1668,-90"/>
<text text-anchor="middle" x="1689.5" y="-166.8" font-family="Times New Roman,serif" font-size="14.00">idx: 17</text>
<polyline fill="none" stroke="black" points="1656,-159 1723,-159"/>
<text text-anchor="middle" x="1689.5" y="-143.8" font-family="Times New Roman,serif" font-size="14.00">data: 200</text>
<polyline fill="none" stroke="black" points="1656,-136 1723,-136"/>
<text text-anchor="middle" x="1689.5" y="-120.8" font-family="Times New Roman,serif" font-size="14.00">next: 18</text>
<polyline fill="none" stroke="black" points="1656,-113 1723,-113"/>
<text text-anchor="middle" x="1689.5" y="-97.8" font-family="Times New Roman,serif" font-size="14.00">prev: &#45;1</text>
</g>
<!-- 16&#45;&gt;17 -->
<g id="edge18" class="edge">
<title>16&#45;&gt;17</title>
<path fill="none" stroke="#696969" d="M1620.25,-129.75C1631.38,-129.15 1644.14,-129.09 1655.59,-129.58"/>
<polygon fill="#696969" stroke="#696969" points="1655.86,-129.59 1655.86,-129.59 1655.86,-129.59 1655.86,-129.59"/>
</g>
<!-- 16&#45;&gt;17 -->
<g id="edge40" class="edge">
<title>16&#45;&gt;17</title>
<path fill="none" stroke="black" d="M1620.25,-142.25C1628.23,-142.68 1637.04,-142.83 1645.6,-142.71"/>
<polygon fill="black" stroke="black" points="1645.96,-146.2 1655.86,-142.41 1645.76,-139.2 1645.96,-146.2"/>
</g>
<!-- 18 -->
<g id="node19" class="node">
<title>18</title>
<path fill="#00bfff" stroke="black" d="M1771,-90C1771,-90 1807,-90 1807,-90 1813,-90 1819,-96 1819,-102 1819,-102 1819,-170 1819,-170 1819,-176 1813,-182 1807,-182 1807,-182 1771,-182 1771,-182 1765,-182 1759,-176 1759,-170 1759,-170 1759,-102 1759,-102 1759,-96 1765,-90 1771,-90"/>
<text text-anchor="middle" x="1789" y="-166.8" font-family="Times New Roman,serif" font-size="14.00">idx: 18</text>
<polyline fill="none" stroke="black" points="1759,-159 1819,-159"/>
<text text-anchor="middle" x="1789" y="-143.8" font-family="Times New Roman,serif" font-size="14.00">data: 4</text>
<polyline fill="none" stroke="black" points="1759,-136 1819,-136"/>
<text text-anchor="middle" x="1789" y="-120.8" font-family="Times New Roman,serif" font-size="14.00">next: 19</text>
<polyline fill="none" stroke="black" points="1759,-113 1819,-113"/>
<text text-anchor="middle" x="1789" y="-97.8" font-family="Times New Roman,serif" font-size="14.00">prev: &#45;1</text>
</g>
<!-- 17&#45;&gt;18 -->
<g id="edge19" class="edge">
<title>17&#45;&gt;18</title>
<path fill="none" stroke="#696969" d="M1723.24,-129.58C1734.65,-129.09 1747.39,-129.14 1758.53,-129.74"/>
<polygon fill="#696969" stroke="#696969" points="1758.79,-129.76 1758.79,-129.76 1758.79,-129.76 1758.79,-129.76"/>
</g>
<!-- 17&#45;&gt;18 -->
<g id="edge41" class="edge">
<title>17&#45;&gt;18</title>
<path fill="none" stroke="black" d="M1723.24,-142.42C1731.42,-142.77 1740.28,-142.84 1748.74,-142.64"/>
<polygon fill="black" stroke="black" points="1748.93,-146.13 1758.79,-142.24 1748.66,-139.14 1748.93,-146.13"/>
</g>
<!-- 19 -->
<g id="node20" class="node">
<title>19</title>
<path fill="#00bfff" stroke="black" d="M1867,-90C1867,-90 1902,-90 1902,-90 1908,-90 1914,-96 1914,-102 1914,-102 1914,-170 1914,-170 1914,-176 1908,-182 1902,-182 1902,-182 1867,-182 1867,-182 1861,-182 1855,-176 1855,-170 1855,-170 1855,-102 1855,-102 1855,-96 1861,-90 1867,-90"/>
<text text-anchor="middle" x="1884.5" y="-166.8" font-family="Times New Roman,serif" font-size="14.00">idx: 19</text>
<polyline fill="none" stroke="black" points="1855,-159 1914,-159"/>
<text text-anchor="middle" x="1884.5" y="-143.8" font-family="Times New Roman,serif" font-size="14.00">data: 5</text>
<polyline fill="none" stroke="black" points="1855,-136 1914,-136"/>
<text text-anchor="middle" x="1884.5" y="-120.8" font-family="Times New Roman,serif" font-size="14.00">next: 0</text>
<polyline fill="none" stroke="black" points="1855,-113 1914,-113"/>
<text text-anchor="middle" x="1884.5" y="-97.8" font-family="Times New Roman,serif" font-size="14.00">prev: &#45;1</text>
</g>
<!-- 18&#45;&gt;19 -->
<g id="edge20" class="edge">
<title>18&#45;&gt;19</title>
<path fill="none" stroke="#696969" d="M1819.07,-129.7C1830.35,-129.1 1843.23,-129.1 1854.5,-129.7"/>
<polygon fill="#696969" stroke="#696969" points="1854.77,-129.72 1854.77,-129.72 1854.77,-129.72 1854.77,-129.72"/>
</g>
<!-- 18&#45;&gt;19 -->
<g id="edge42" class="edge">
<title>18&#45;&gt;19</title>
<path fill="none" stroke="black" d="M1819.07,-142.3C1827.15,-142.73 1836.06,-142.85 1844.6,-142.66"/>
<polygon fill="black" stroke="black" points="1844.91,-146.16 1854.77,-142.28 1844.64,-139.16 1844.91,-146.16"/>
</g>
<!-- 19&#45;&gt;0 -->
<g id="edge43" class="edge">
<title>19&#45;&gt;0</title>
<path fill="none" stroke="black" d="M1854.83,-165.99C1819.58,-199.46 1756.31,-249 1690.5,-249 232.5,-249 232.5,-249 232.5,-249 170.24,-249 109.73,-206.33 72.33,-173.43"/>
<polygon fill="black" stroke="black" points="74.48,-170.66 64.71,-166.58 69.8,-175.87 74.48,-170.66"/>
</g>
<!-- head -->
<g id="node21" class="node">
<title>head</title>
<path fill="#ccff99" stroke="black" d="M1962,-118C1962,-118 1994,-118 1994,-118 2000,-118 2006,-124 2006,-130 2006,-130 2006,-142 2006,-142 2006,-148 2000,-154 1994,-154 1994,-154 1962,-154 1962,-154 1956,-154 1950,-148 1950,-142 1950,-142 1950,-130 1950,-130 1950,-124 1956,-118 1962,-118"/>
<text text-anchor="middle" x="1978" y="-132.3" font-family="Times New Roman,serif" font-size="14.00">head: 1</text>
</g>
<!-- 19&#45;&gt;head -->
<g id="edge21" class="edge">
<title>19&#45;&gt;head</title>
<path fill="none" stroke="#696969" d="M1914.45,-136C1925.67,-136 1938.46,-136 1949.53,-136"/>
<polygon fill="#696969" stroke="#696969" points="1949.79,-136 1949.79,-136 1949.79,-136 1949.79,-136"/>
</g>
<!-- head&#45;&gt;1 -->
<g id="edge44" class="edge">
<title>head&#45;&gt;1</title>
<path fill="none" stroke="black" d="M1961.5,-154.06C1949.76,-166.5 1932.53,-182.3 1914,-191 1863.47,-214.72 1845.82,-211 1790,-211 323.5,-211 323.5,-211 323.5,-211 270.53,-211 254.31,-212.72 206,-191 196.3,-186.64 186.81,-180.57 178.12,-174.06"/>
<polygon fill="black" stroke="black" points="180.08,-171.15 170.06,-167.71 175.75,-176.65 180.08,-171.15"/>
</g>
<!-- tail -->
<g id="node22" class="node">
<title>tail</title>
<path fill="#ccff99" stroke="black" d="M2054,-118C2054,-118 2084,-118 2084,-118 2090,-118 2096,-124 2096,-130 2096,-130 2096,-142 2096,-142 2096,-148 2090,-154 2084,-154 2084,-154 2054,-154 2054,-154 2048,-154 2042,-148 2042,-142 2042,-142 2042,-130 2042,-130 2042,-124 2048,-118 2054,-118"/>
<text text-anchor="middle" x="2069" y="-132.3" font-family="Times New Roman,serif" font-size="14.00">tail: 10</text>
</g>
<!-- head&#45;&gt;tail -->
<g id="edge22" class="edge">
<title>head&#45;&gt;tail</title>
<path fill="none" stroke="#696969" d="M2006.19,-136C2017.45,-136 2030.46,-136 2041.63,-136"/>
<polygon fill="#696969" stroke="#696969" points="2041.89,-136 2041.89,-136 2041.89,-136 2041.89,-136"/>
</g>
<!-- tail&#45;&gt;10 -->
<g id="edge45" class="edge">
<title>tail&#45;&gt;10</title>
<path fill="none" stroke="black" d="M2057.43,-118C2046.57,-100.99 2028.14,-75.91 2006,-61 1959.42,-29.63 1941.66,-23 1885.5,-23 1194.5,-23 1194.5,-23 1194.5,-23 1133.95,-23 1075.15,-63.67 1037.79,-96.21"/>
<polygon fill="black" stroke="black" points="1035.29,-93.75 1030.15,-103.01 1039.95,-98.98 1035.29,-93.75"/>
</g>
<!-- free -->
<g id="node23" class="node">
<title>free</title>
<path fill="#00bfff" stroke="black" d="M2144,-118C2144,-118 2178,-118 2178,-118 2184,-118 2190,-124 2190,-130 2190,-130 2190,-142 2190,-142 2190,-148 2184,-154 2178,-154 2178,-154 2144,-154 2144,-154 2138,-154 2132,-148 2132,-142 2132,-142 2132,-130 2132,-130 2132,-124 2138,-118 2144,-118"/>
<text text-anchor="middle" x="2161" y="-132.3" font-family="Times New Roman,serif" font-size="14.00">free: 11</text>
</g>
<!-- tail&#45;&gt;free -->
<g id="edge23" class="edge">
<title>tail&#45;&gt;free</title>
<path fill="none" stroke="#696969" d="M2096.03,-136C2107.16,-136 2120.18,-136 2131.56,-136"/>
<polygon fill="#696969" stroke="#696969" points="2131.82,-136 2131.82,-136 2131.82,-136 2131.82,-136"/>
</g>
<!-- free&#45;&gt;11 -->
<g id="edge46" class="edge">
<title>free&#45;&gt;11</title>
<path fill="none" stroke="black" d="M2131.8,-153.02C2106.91,-165.66 2070.28,-178.29 2042,-163 2016.3,-149.11 2029.38,-125.53 2006,-108 1927.39,-49.07 1888.25,-61 1790,-61 1294,-61 1294,-61 1294,-61 1234.73,-61 1215.95,-55.45 1162,-80 1152.04,-84.53 1142.43,-91.08 1133.81,-98.11"/>
<polygon fill="black" stroke="black" points="1131.49,-95.49 1126.18,-104.66 1136.05,-100.8 1131.49,-95.49"/>
</g>
<!-- All -->
<g id="node24" class="node">
<title>All</title>
<path fill="#8b00ff" stroke="black" d="M12,-219C12,-219 55,-219 55,-219 61,-219 67,-225 67,-231 67,-231 67,-243 67,-243 67,-249 61,-255 55,-255 55,-255 12,-255 12,-255 6,-255 0,-249 0,-243 0,-243 0,-231 0,-231 0,-225 6,-219 12,-219"/>
<text text-anchor="middle" x="33.5" y="-233.3" font-family="Times New Roman,serif" font-size="14.00">size = 20</text>
</g>
</g>
</svg>
