<?xml version="1.0" encoding="UTF-8" standalone="no"?>
<!DOCTYPE svg PUBLIC "-//W3C//DTD SVG 1.1//EN"
 "http://www.w3.org/Graphics/SVG/1.1/DTD/svg11.dtd">
<!-- Generated by graphviz version 6.0.2 (20221011.1828)
 -->
<!-- Title: List Pages: 1 -->
<svg width="2177pt" height="264pt"
 viewBox="0.00 0.00 2177.00 263.50" xmlns="http://www.w3.org/2000/svg" xmlns:xlink="http://www.w3.org/1999/xlink">
<g id="graph0" class="graph" transform="scale(1 1) rotate(0) translate(4 259.5)">
<title>List</title>
<polygon fill="#696969" stroke="none" points="-4,4 -4,-259.5 2173,-259.5 2173,4 -4,4"/>
<text text-anchor="middle" x="1084.5" y="-7.8" font-family="Times New Roman,serif" font-size="14.00">list_dump from function main, List/main.cpp:30</text>
<!-- 0 -->
<g id="node1" class="node">
<title>0</title>
<path fill="#ff0000" stroke="black" d="M14.5,-90C14.5,-90 52.5,-90 52.5,-90 58.5,-90 64.5,-96 64.5,-102 64.5,-102 64.5,-170 64.5,-170 64.5,-176 58.5,-182 52.5,-182 52.5,-182 14.5,-182 14.5,-182 8.5,-182 2.5,-176 2.5,-170 2.5,-170 2.5,-102 2.5,-102 2.5,-96 8.5,-90 14.5,-90"/>
<text text-anchor="middle" x="33.5" y="-166.8" font-family="Times New Roman,serif" font-size="14.00">idx: 0</text>
<polyline fill="none" stroke="black" points="2.5,-159 64.5,-159"/>
<text text-anchor="middle" x="33.5" y="-143.8" font-family="Times New Roman,serif" font-size="14.00">data: 0</text>
<polyline fill="none" stroke="black" points="2.5,-136 64.5,-136"/>
<text text-anchor="middle" x="33.5" y="-120.8" font-family="Times New Roman,serif" font-size="14.00">next: 1</text>
<polyline fill="none" stroke="black" points="2.5,-113 64.5,-113"/>
<text text-anchor="middle" x="33.5" y="-97.8" font-family="Times New Roman,serif" font-size="14.00">prev: 10</text>
</g>
<!-- 0&#45;&gt;0 -->
<g id="edge1" class="edge">
<title>0&#45;&gt;0</title>
<path fill="none" stroke="#696969" d="M14.61,-182.09C16.24,-192.7 22.54,-200.5 33.5,-200.5 44.29,-200.5 50.56,-192.95 52.31,-182.59"/>
<polygon fill="#696969" stroke="#696969" points="52.39,-182.09 52.39,-182.09 52.39,-182.09 52.39,-182.09"/>
</g>
<!-- 1 -->
<g id="node2" class="node">
<title>1</title>
<path fill="#ccff99" stroke="black" d="M115,-90C115,-90 158,-90 158,-90 164,-90 170,-96 170,-102 170,-102 170,-170 170,-170 170,-176 164,-182 158,-182 158,-182 115,-182 115,-182 109,-182 103,-176 103,-170 103,-170 103,-102 103,-102 103,-96 109,-90 115,-90"/>
<text text-anchor="middle" x="136.5" y="-166.8" font-family="Times New Roman,serif" font-size="14.00">idx: 1</text>
<polyline fill="none" stroke="black" points="103,-159 170,-159"/>
<text text-anchor="middle" x="136.5" y="-143.8" font-family="Times New Roman,serif" font-size="14.00">data: 400</text>
<polyline fill="none" stroke="black" points="103,-136 170,-136"/>
<text text-anchor="middle" x="136.5" y="-120.8" font-family="Times New Roman,serif" font-size="14.00">next: 2</text>
<polyline fill="none" stroke="black" points="103,-113 170,-113"/>
<text text-anchor="middle" x="136.5" y="-97.8" font-family="Times New Roman,serif" font-size="14.00">prev: 0</text>
</g>
<!-- 0&#45;&gt;1 -->
<g id="edge2" class="edge">
<title>0&#45;&gt;1</title>
<path fill="none" stroke="#696969" d="M64.53,-129.77C76.53,-129.13 90.39,-129.08 102.65,-129.63"/>
<polygon fill="#696969" stroke="#696969" points="102.94,-129.64 102.94,-129.64 102.94,-129.64 102.94,-129.64"/>
</g>
<!-- 0&#45;&gt;1 -->
<g id="edge24" class="edge">
<title>0&#45;&gt;1</title>
<path fill="none" stroke="black" d="M64.53,-142.23C73.41,-142.71 83.31,-142.86 92.83,-142.68"/>
<polygon fill="black" stroke="black" points="93.06,-146.17 102.94,-142.36 92.84,-139.18 93.06,-146.17"/>
</g>
<!-- 2 -->
<g id="node3" class="node">
<title>2</title>
<path fill="#ccff99" stroke="black" d="M218,-90C218,-90 249,-90 249,-90 255,-90 261,-96 261,-102 261,-102 261,-170 261,-170 261,-176 255,-182 249,-182 249,-182 218,-182 218,-182 212,-182 206,-176 206,-170 206,-170 206,-102 206,-102 206,-96 212,-90 218,-90"/>
<text text-anchor="middle" x="233.5" y="-166.8" font-family="Times New Roman,serif" font-size="14.00">idx: 2</text>
<polyline fill="none" stroke="black" points="206,-159 261,-159"/>
<text text-anchor="middle" x="233.5" y="-143.8" font-family="Times New Roman,serif" font-size="14.00">data: 1</text>
<polyline fill="none" stroke="black" points="206,-136 261,-136"/>
<text text-anchor="middle" x="233.5" y="-120.8" font-family="Times New Roman,serif" font-size="14.00">next: 3</text>
<polyline fill="none" stroke="black" points="206,-113 261,-113"/>
<text text-anchor="middle" x="233.5" y="-97.8" font-family="Times New Roman,serif" font-size="14.00">prev: 1</text>
</g>
<!-- 1&#45;&gt;2 -->
<g id="edge3" class="edge">
<title>1&#45;&gt;2</title>
<path fill="none" stroke="#696969" d="M170.19,-129.55C181.7,-129.07 194.49,-129.17 205.47,-129.84"/>
<polygon fill="#696969" stroke="#696969" points="205.73,-129.86 205.73,-129.86 205.73,-129.86 205.73,-129.86"/>
</g>
<!-- 1&#45;&gt;2 -->
<g id="edge25" class="edge">
<title>1&#45;&gt;2</title>
<path fill="none" stroke="black" d="M170.19,-142.45C178.35,-142.79 187.14,-142.84 195.49,-142.6"/>
<polygon fill="black" stroke="black" points="195.9,-146.09 205.73,-142.14 195.58,-139.09 195.9,-146.09"/>
</g>
<!-- 3 -->
<g id="node4" class="node">
<title>3</title>
<path fill="#ccff99" stroke="black" d="M309,-90C309,-90 340,-90 340,-90 346,-90 352,-96 352,-102 352,-102 352,-170 352,-170 352,-176 346,-182 340,-182 340,-182 309,-182 309,-182 303,-182 297,-176 297,-170 297,-170 297,-102 297,-102 297,-96 303,-90 309,-90"/>
<text text-anchor="middle" x="324.5" y="-166.8" font-family="Times New Roman,serif" font-size="14.00">idx: 3</text>
<polyline fill="none" stroke="black" points="297,-159 352,-159"/>
<text text-anchor="middle" x="324.5" y="-143.8" font-family="Times New Roman,serif" font-size="14.00">data: 2</text>
<polyline fill="none" stroke="black" points="297,-136 352,-136"/>
<text text-anchor="middle" x="324.5" y="-120.8" font-family="Times New Roman,serif" font-size="14.00">next: 4</text>
<polyline fill="none" stroke="black" points="297,-113 352,-113"/>
<text text-anchor="middle" x="324.5" y="-97.8" font-family="Times New Roman,serif" font-size="14.00">prev: 2</text>
</g>
<!-- 2&#45;&gt;3 -->
<g id="edge4" class="edge">
<title>2&#45;&gt;3</title>
<path fill="none" stroke="#696969" d="M261.2,-129.75C272.38,-129.09 285.35,-129.08 296.55,-129.74"/>
<polygon fill="#696969" stroke="#696969" points="296.82,-129.76 296.82,-129.76 296.82,-129.76 296.82,-129.76"/>
</g>
<!-- 2&#45;&gt;3 -->
<g id="edge26" class="edge">
<title>2&#45;&gt;3</title>
<path fill="none" stroke="black" d="M261.2,-142.25C269.21,-142.72 278.14,-142.86 286.68,-142.66"/>
<polygon fill="black" stroke="black" points="286.97,-146.15 296.82,-142.24 286.68,-139.16 286.97,-146.15"/>
</g>
<!-- 4 -->
<g id="node5" class="node">
<title>4</title>
<path fill="#ccff99" stroke="black" d="M400,-90C400,-90 443,-90 443,-90 449,-90 455,-96 455,-102 455,-102 455,-170 455,-170 455,-176 449,-182 443,-182 443,-182 400,-182 400,-182 394,-182 388,-176 388,-170 388,-170 388,-102 388,-102 388,-96 394,-90 400,-90"/>
<text text-anchor="middle" x="421.5" y="-166.8" font-family="Times New Roman,serif" font-size="14.00">idx: 4</text>
<polyline fill="none" stroke="black" points="388,-159 455,-159"/>
<text text-anchor="middle" x="421.5" y="-143.8" font-family="Times New Roman,serif" font-size="14.00">data: 300</text>
<polyline fill="none" stroke="black" points="388,-136 455,-136"/>
<text text-anchor="middle" x="421.5" y="-120.8" font-family="Times New Roman,serif" font-size="14.00">next: 5</text>
<polyline fill="none" stroke="black" points="388,-113 455,-113"/>
<text text-anchor="middle" x="421.5" y="-97.8" font-family="Times New Roman,serif" font-size="14.00">prev: 3</text>
</g>
<!-- 3&#45;&gt;4 -->
<g id="edge5" class="edge">
<title>3&#45;&gt;4</title>
<path fill="none" stroke="#696969" d="M352.22,-129.86C363.21,-129.17 376.07,-129.07 387.63,-129.54"/>
<polygon fill="#696969" stroke="#696969" points="387.91,-129.55 387.91,-129.55 387.91,-129.55 387.91,-129.55"/>
</g>
<!-- 3&#45;&gt;4 -->
<g id="edge27" class="edge">
<title>3&#45;&gt;4</title>
<path fill="none" stroke="black" d="M352.22,-142.14C360.18,-142.64 369.12,-142.83 377.84,-142.72"/>
<polygon fill="black" stroke="black" points="378.01,-146.22 387.91,-142.45 377.82,-139.22 378.01,-146.22"/>
</g>
<!-- 5 -->
<g id="node6" class="node">
<title>5</title>
<path fill="#ccff99" stroke="black" d="M503,-90C503,-90 534,-90 534,-90 540,-90 546,-96 546,-102 546,-102 546,-170 546,-170 546,-176 540,-182 534,-182 534,-182 503,-182 503,-182 497,-182 491,-176 491,-170 491,-170 491,-102 491,-102 491,-96 497,-90 503,-90"/>
<text text-anchor="middle" x="518.5" y="-166.8" font-family="Times New Roman,serif" font-size="14.00">idx: 5</text>
<polyline fill="none" stroke="black" points="491,-159 546,-159"/>
<text text-anchor="middle" x="518.5" y="-143.8" font-family="Times New Roman,serif" font-size="14.00">data: 3</text>
<polyline fill="none" stroke="black" points="491,-136 546,-136"/>
<text text-anchor="middle" x="518.5" y="-120.8" font-family="Times New Roman,serif" font-size="14.00">next: 6</text>
<polyline fill="none" stroke="black" points="491,-113 546,-113"/>
<text text-anchor="middle" x="518.5" y="-97.8" font-family="Times New Roman,serif" font-size="14.00">prev: 4</text>
</g>
<!-- 4&#45;&gt;5 -->
<g id="edge6" class="edge">
<title>4&#45;&gt;5</title>
<path fill="none" stroke="#696969" d="M455.19,-129.55C466.7,-129.07 479.49,-129.17 490.47,-129.84"/>
<polygon fill="#696969" stroke="#696969" points="490.73,-129.86 490.73,-129.86 490.73,-129.86 490.73,-129.86"/>
</g>
<!-- 4&#45;&gt;5 -->
<g id="edge28" class="edge">
<title>4&#45;&gt;5</title>
<path fill="none" stroke="black" d="M455.19,-142.45C463.35,-142.79 472.14,-142.84 480.49,-142.6"/>
<polygon fill="black" stroke="black" points="480.9,-146.09 490.73,-142.14 480.58,-139.09 480.9,-146.09"/>
</g>
<!-- 6 -->
<g id="node7" class="node">
<title>6</title>
<path fill="#ccff99" stroke="black" d="M594,-90C594,-90 637,-90 637,-90 643,-90 649,-96 649,-102 649,-102 649,-170 649,-170 649,-176 643,-182 637,-182 637,-182 594,-182 594,-182 588,-182 582,-176 582,-170 582,-170 582,-102 582,-102 582,-96 588,-90 594,-90"/>
<text text-anchor="middle" x="615.5" y="-166.8" font-family="Times New Roman,serif" font-size="14.00">idx: 6</text>
<polyline fill="none" stroke="black" points="582,-159 649,-159"/>
<text text-anchor="middle" x="615.5" y="-143.8" font-family="Times New Roman,serif" font-size="14.00">data: 200</text>
<polyline fill="none" stroke="black" points="582,-136 649,-136"/>
<text text-anchor="middle" x="615.5" y="-120.8" font-family="Times New Roman,serif" font-size="14.00">next: 7</text>
<polyline fill="none" stroke="black" points="582,-113 649,-113"/>
<text text-anchor="middle" x="615.5" y="-97.8" font-family="Times New Roman,serif" font-size="14.00">prev: 5</text>
</g>
<!-- 5&#45;&gt;6 -->
<g id="edge7" class="edge">
<title>5&#45;&gt;6</title>
<path fill="none" stroke="#696969" d="M546.22,-129.86C557.21,-129.17 570.07,-129.07 581.63,-129.54"/>
<polygon fill="#696969" stroke="#696969" points="581.91,-129.55 581.91,-129.55 581.91,-129.55 581.91,-129.55"/>
</g>
<!-- 5&#45;&gt;6 -->
<g id="edge29" class="edge">
<title>5&#45;&gt;6</title>
<path fill="none" stroke="black" d="M546.22,-142.14C554.18,-142.64 563.12,-142.83 571.84,-142.72"/>
<polygon fill="black" stroke="black" points="572.01,-146.22 581.91,-142.45 571.82,-139.22 572.01,-146.22"/>
</g>
<!-- 7 -->
<g id="node8" class="node">
<title>7</title>
<path fill="#ccff99" stroke="black" d="M697,-90C697,-90 728,-90 728,-90 734,-90 740,-96 740,-102 740,-102 740,-170 740,-170 740,-176 734,-182 728,-182 728,-182 697,-182 697,-182 691,-182 685,-176 685,-170 685,-170 685,-102 685,-102 685,-96 691,-90 697,-90"/>
<text text-anchor="middle" x="712.5" y="-166.8" font-family="Times New Roman,serif" font-size="14.00">idx: 7</text>
<polyline fill="none" stroke="black" points="685,-159 740,-159"/>
<text text-anchor="middle" x="712.5" y="-143.8" font-family="Times New Roman,serif" font-size="14.00">data: 4</text>
<polyline fill="none" stroke="black" points="685,-136 740,-136"/>
<text text-anchor="middle" x="712.5" y="-120.8" font-family="Times New Roman,serif" font-size="14.00">next: 8</text>
<polyline fill="none" stroke="black" points="685,-113 740,-113"/>
<text text-anchor="middle" x="712.5" y="-97.8" font-family="Times New Roman,serif" font-size="14.00">prev: 6</text>
</g>
<!-- 6&#45;&gt;7 -->
<g id="edge8" class="edge">
<title>6&#45;&gt;7</title>
<path fill="none" stroke="#696969" d="M649.19,-129.55C660.7,-129.07 673.49,-129.17 684.47,-129.84"/>
<polygon fill="#696969" stroke="#696969" points="684.73,-129.86 684.73,-129.86 684.73,-129.86 684.73,-129.86"/>
</g>
<!-- 6&#45;&gt;7 -->
<g id="edge30" class="edge">
<title>6&#45;&gt;7</title>
<path fill="none" stroke="black" d="M649.19,-142.45C657.35,-142.79 666.14,-142.84 674.49,-142.6"/>
<polygon fill="black" stroke="black" points="674.9,-146.09 684.73,-142.14 674.58,-139.09 674.9,-146.09"/>
</g>
<!-- 8 -->
<g id="node9" class="node">
<title>8</title>
<path fill="#ccff99" stroke="black" d="M788,-90C788,-90 819,-90 819,-90 825,-90 831,-96 831,-102 831,-102 831,-170 831,-170 831,-176 825,-182 819,-182 819,-182 788,-182 788,-182 782,-182 776,-176 776,-170 776,-170 776,-102 776,-102 776,-96 782,-90 788,-90"/>
<text text-anchor="middle" x="803.5" y="-166.8" font-family="Times New Roman,serif" font-size="14.00">idx: 8</text>
<polyline fill="none" stroke="black" points="776,-159 831,-159"/>
<text text-anchor="middle" x="803.5" y="-143.8" font-family="Times New Roman,serif" font-size="14.00">data: 5</text>
<polyline fill="none" stroke="black" points="776,-136 831,-136"/>
<text text-anchor="middle" x="803.5" y="-120.8" font-family="Times New Roman,serif" font-size="14.00">next: 9</text>
<polyline fill="none" stroke="black" points="776,-113 831,-113"/>
<text text-anchor="middle" x="803.5" y="-97.8" font-family="Times New Roman,serif" font-size="14.00">prev: 7</text>
</g>
<!-- 7&#45;&gt;8 -->
<g id="edge9" class="edge">
<title>7&#45;&gt;8</title>
<path fill="none" stroke="#696969" d="M740.2,-129.75C751.38,-129.09 764.35,-129.08 775.55,-129.74"/>
<polygon fill="#696969" stroke="#696969" points="775.82,-129.76 775.82,-129.76 775.82,-129.76 775.82,-129.76"/>
</g>
<!-- 7&#45;&gt;8 -->
<g id="edge31" class="edge">
<title>7&#45;&gt;8</title>
<path fill="none" stroke="black" d="M740.2,-142.25C748.21,-142.72 757.14,-142.86 765.68,-142.66"/>
<polygon fill="black" stroke="black" points="765.97,-146.15 775.82,-142.24 765.68,-139.16 765.97,-146.15"/>
</g>
<!-- 9 -->
<g id="node10" class="node">
<title>9</title>
<path fill="#ccff99" stroke="black" d="M879,-90C879,-90 915,-90 915,-90 921,-90 927,-96 927,-102 927,-102 927,-170 927,-170 927,-176 921,-182 915,-182 915,-182 879,-182 879,-182 873,-182 867,-176 867,-170 867,-170 867,-102 867,-102 867,-96 873,-90 879,-90"/>
<text text-anchor="middle" x="897" y="-166.8" font-family="Times New Roman,serif" font-size="14.00">idx: 9</text>
<polyline fill="none" stroke="black" points="867,-159 927,-159"/>
<text text-anchor="middle" x="897" y="-143.8" font-family="Times New Roman,serif" font-size="14.00">data: 6</text>
<polyline fill="none" stroke="black" points="867,-136 927,-136"/>
<text text-anchor="middle" x="897" y="-120.8" font-family="Times New Roman,serif" font-size="14.00">next: 10</text>
<polyline fill="none" stroke="black" points="867,-113 927,-113"/>
<text text-anchor="middle" x="897" y="-97.8" font-family="Times New Roman,serif" font-size="14.00">prev: 8</text>
</g>
<!-- 8&#45;&gt;9 -->
<g id="edge10" class="edge">
<title>8&#45;&gt;9</title>
<path fill="none" stroke="#696969" d="M831.46,-129.78C842.44,-129.12 855.17,-129.08 866.41,-129.64"/>
<polygon fill="#696969" stroke="#696969" points="866.68,-129.65 866.68,-129.65 866.68,-129.65 866.68,-129.65"/>
</g>
<!-- 8&#45;&gt;9 -->
<g id="edge32" class="edge">
<title>8&#45;&gt;9</title>
<path fill="none" stroke="black" d="M831.46,-142.22C839.33,-142.69 848.1,-142.85 856.57,-142.69"/>
<polygon fill="black" stroke="black" points="856.8,-146.19 866.68,-142.35 856.57,-139.19 856.8,-146.19"/>
</g>
<!-- 10 -->
<g id="node11" class="node">
<title>10</title>
<path fill="#ccff99" stroke="black" d="M975,-90C975,-90 1018,-90 1018,-90 1024,-90 1030,-96 1030,-102 1030,-102 1030,-170 1030,-170 1030,-176 1024,-182 1018,-182 1018,-182 975,-182 975,-182 969,-182 963,-176 963,-170 963,-170 963,-102 963,-102 963,-96 969,-90 975,-90"/>
<text text-anchor="middle" x="996.5" y="-166.8" font-family="Times New Roman,serif" font-size="14.00">idx: 10</text>
<polyline fill="none" stroke="black" points="963,-159 1030,-159"/>
<text text-anchor="middle" x="996.5" y="-143.8" font-family="Times New Roman,serif" font-size="14.00">data: 100</text>
<polyline fill="none" stroke="black" points="963,-136 1030,-136"/>
<text text-anchor="middle" x="996.5" y="-120.8" font-family="Times New Roman,serif" font-size="14.00">next: 0</text>
<polyline fill="none" stroke="black" points="963,-113 1030,-113"/>
<text text-anchor="middle" x="996.5" y="-97.8" font-family="Times New Roman,serif" font-size="14.00">prev: 9</text>
</g>
<!-- 9&#45;&gt;10 -->
<g id="edge11" class="edge">
<title>9&#45;&gt;10</title>
<path fill="none" stroke="#696969" d="M927.25,-129.75C938.38,-129.15 951.14,-129.09 962.59,-129.58"/>
<polygon fill="#696969" stroke="#696969" points="962.86,-129.59 962.86,-129.59 962.86,-129.59 962.86,-129.59"/>
</g>
<!-- 9&#45;&gt;10 -->
<g id="edge33" class="edge">
<title>9&#45;&gt;10</title>
<path fill="none" stroke="black" d="M927.25,-142.25C935.23,-142.68 944.04,-142.83 952.6,-142.71"/>
<polygon fill="black" stroke="black" points="952.96,-146.2 962.86,-142.41 952.76,-139.2 952.96,-146.2"/>
</g>
<!-- 10&#45;&gt;0 -->
<g id="edge34" class="edge">
<title>10&#45;&gt;0</title>
<path fill="none" stroke="black" d="M962.72,-103.29C952.11,-94.42 939.77,-85.69 927,-80 876.68,-57.55 859.6,-61 804.5,-61 232.5,-61 232.5,-61 232.5,-61 174.33,-61 156.22,-56.52 103,-80 92.35,-84.7 82,-91.53 72.71,-98.81"/>
<polygon fill="black" stroke="black" points="70.33,-96.23 64.83,-105.28 74.78,-101.63 70.33,-96.23"/>
</g>
<!-- 11 -->
<g id="node12" class="node">
<title>11</title>
<path fill="#00bfff" stroke="black" d="M1078,-90C1078,-90 1114,-90 1114,-90 1120,-90 1126,-96 1126,-102 1126,-102 1126,-170 1126,-170 1126,-176 1120,-182 1114,-182 1114,-182 1078,-182 1078,-182 1072,-182 1066,-176 1066,-170 1066,-170 1066,-102 1066,-102 1066,-96 1072,-90 1078,-90"/>
<text text-anchor="middle" x="1096" y="-166.8" font-family="Times New Roman,serif" font-size="14.00">idx: 11</text>
<polyline fill="none" stroke="black" points="1066,-159 1126,-159"/>
<text text-anchor="middle" x="1096" y="-143.8" font-family="Times New Roman,serif" font-size="14.00">data: 0</text>
<polyline fill="none" stroke="black" points="1066,-136 1126,-136"/>
<text text-anchor="middle" x="1096" y="-120.8" font-family="Times New Roman,serif" font-size="14.00">next: 12</text>
<polyline fill="none" stroke="black" points="1066,-113 1126,-113"/>
<text text-anchor="middle" x="1096" y="-97.8" font-family="Times New Roman,serif" font-size="14.00">prev: &#45;1</text>
</g>
<!-- 10&#45;&gt;11 -->
<g id="edge12" class="edge">
<title>10&#45;&gt;11</title>
<path fill="none" stroke="#696969" d="M1030.24,-136C1041.65,-136 1054.39,-136 1065.53,-136"/>
<polygon fill="#696969" stroke="#696969" points="1065.79,-136 1065.79,-136 1065.79,-136 1065.79,-136"/>
</g>
<!-- 12 -->
<g id="node13" class="node">
<title>12</title>
<path fill="#00bfff" stroke="black" d="M1174,-90C1174,-90 1210,-90 1210,-90 1216,-90 1222,-96 1222,-102 1222,-102 1222,-170 1222,-170 1222,-176 1216,-182 1210,-182 1210,-182 1174,-182 1174,-182 1168,-182 1162,-176 1162,-170 1162,-170 1162,-102 1162,-102 1162,-96 1168,-90 1174,-90"/>
<text text-anchor="middle" x="1192" y="-166.8" font-family="Times New Roman,serif" font-size="14.00">idx: 12</text>
<polyline fill="none" stroke="black" points="1162,-159 1222,-159"/>
<text text-anchor="middle" x="1192" y="-143.8" font-family="Times New Roman,serif" font-size="14.00">data: 0</text>
<polyline fill="none" stroke="black" points="1162,-136 1222,-136"/>
<text text-anchor="middle" x="1192" y="-120.8" font-family="Times New Roman,serif" font-size="14.00">next: 13</text>
<polyline fill="none" stroke="black" points="1162,-113 1222,-113"/>
<text text-anchor="middle" x="1192" y="-97.8" font-family="Times New Roman,serif" font-size="14.00">prev: &#45;1</text>
</g>
<!-- 11&#45;&gt;12 -->
<g id="edge13" class="edge">
<title>11&#45;&gt;12</title>
<path fill="none" stroke="#696969" d="M1126.23,-129.7C1137.46,-129.1 1150.27,-129.1 1161.53,-129.69"/>
<polygon fill="#696969" stroke="#696969" points="1161.79,-129.7 1161.79,-129.7 1161.79,-129.7 1161.79,-129.7"/>
</g>
<!-- 11&#45;&gt;12 -->
<g id="edge35" class="edge">
<title>11&#45;&gt;12</title>
<path fill="none" stroke="black" d="M1126.23,-142.3C1134.27,-142.73 1143.13,-142.85 1151.65,-142.67"/>
<polygon fill="black" stroke="black" points="1151.93,-146.16 1161.79,-142.3 1151.67,-139.17 1151.93,-146.16"/>
</g>
<!-- 13 -->
<g id="node14" class="node">
<title>13</title>
<path fill="#00bfff" stroke="black" d="M1270,-90C1270,-90 1306,-90 1306,-90 1312,-90 1318,-96 1318,-102 1318,-102 1318,-170 1318,-170 1318,-176 1312,-182 1306,-182 1306,-182 1270,-182 1270,-182 1264,-182 1258,-176 1258,-170 1258,-170 1258,-102 1258,-102 1258,-96 1264,-90 1270,-90"/>
<text text-anchor="middle" x="1288" y="-166.8" font-family="Times New Roman,serif" font-size="14.00">idx: 13</text>
<polyline fill="none" stroke="black" points="1258,-159 1318,-159"/>
<text text-anchor="middle" x="1288" y="-143.8" font-family="Times New Roman,serif" font-size="14.00">data: 0</text>
<polyline fill="none" stroke="black" points="1258,-136 1318,-136"/>
<text text-anchor="middle" x="1288" y="-120.8" font-family="Times New Roman,serif" font-size="14.00">next: 14</text>
<polyline fill="none" stroke="black" points="1258,-113 1318,-113"/>
<text text-anchor="middle" x="1288" y="-97.8" font-family="Times New Roman,serif" font-size="14.00">prev: &#45;1</text>
</g>
<!-- 12&#45;&gt;13 -->
<g id="edge14" class="edge">
<title>12&#45;&gt;13</title>
<path fill="none" stroke="#696969" d="M1222.23,-129.7C1233.46,-129.1 1246.27,-129.1 1257.53,-129.69"/>
<polygon fill="#696969" stroke="#696969" points="1257.79,-129.7 1257.79,-129.7 1257.79,-129.7 1257.79,-129.7"/>
</g>
<!-- 12&#45;&gt;13 -->
<g id="edge36" class="edge">
<title>12&#45;&gt;13</title>
<path fill="none" stroke="black" d="M1222.23,-142.3C1230.27,-142.73 1239.13,-142.85 1247.65,-142.67"/>
<polygon fill="black" stroke="black" points="1247.93,-146.16 1257.79,-142.3 1247.67,-139.17 1247.93,-146.16"/>
</g>
<!-- 14 -->
<g id="node15" class="node">
<title>14</title>
<path fill="#00bfff" stroke="black" d="M1366,-90C1366,-90 1402,-90 1402,-90 1408,-90 1414,-96 1414,-102 1414,-102 1414,-170 1414,-170 1414,-176 1408,-182 1402,-182 1402,-182 1366,-182 1366,-182 1360,-182 1354,-176 1354,-170 1354,-170 1354,-102 1354,-102 1354,-96 1360,-90 1366,-90"/>
<text text-anchor="middle" x="1384" y="-166.8" font-family="Times New Roman,serif" font-size="14.00">idx: 14</text>
<polyline fill="none" stroke="black" points="1354,-159 1414,-159"/>
<text text-anchor="middle" x="1384" y="-143.8" font-family="Times New Roman,serif" font-size="14.00">data: 0</text>
<polyline fill="none" stroke="black" points="1354,-136 1414,-136"/>
<text text-anchor="middle" x="1384" y="-120.8" font-family="Times New Roman,serif" font-size="14.00">next: 15</text>
<polyline fill="none" stroke="black" points="1354,-113 1414,-113"/>
<text text-anchor="middle" x="1384" y="-97.8" font-family="Times New Roman,serif" font-size="14.00">prev: &#45;1</text>
</g>
<!-- 13&#45;&gt;14 -->
<g id="edge15" class="edge">
<title>13&#45;&gt;14</title>
<path fill="none" stroke="#696969" d="M1318.23,-129.7C1329.46,-129.1 1342.27,-129.1 1353.53,-129.69"/>
<polygon fill="#696969" stroke="#696969" points="1353.79,-129.7 1353.79,-129.7 1353.79,-129.7 1353.79,-129.7"/>
</g>
<!-- 13&#45;&gt;14 -->
<g id="edge37" class="edge">
<title>13&#45;&gt;14</title>
<path fill="none" stroke="black" d="M1318.23,-142.3C1326.27,-142.73 1335.13,-142.85 1343.65,-142.67"/>
<polygon fill="black" stroke="black" points="1343.93,-146.16 1353.79,-142.3 1343.67,-139.17 1343.93,-146.16"/>
</g>
<!-- 15 -->
<g id="node16" class="node">
<title>15</title>
<path fill="#00bfff" stroke="black" d="M1462,-90C1462,-90 1498,-90 1498,-90 1504,-90 1510,-96 1510,-102 1510,-102 1510,-170 1510,-170 1510,-176 1504,-182 1498,-182 1498,-182 1462,-182 1462,-182 1456,-182 1450,-176 1450,-170 1450,-170 1450,-102 1450,-102 1450,-96 1456,-90 1462,-90"/>
<text text-anchor="middle" x="1480" y="-166.8" font-family="Times New Roman,serif" font-size="14.00">idx: 15</text>
<polyline fill="none" stroke="black" points="1450,-159 1510,-159"/>
<text text-anchor="middle" x="1480" y="-143.8" font-family="Times New Roman,serif" font-size="14.00">data: 0</text>
<polyline fill="none" stroke="black" points="1450,-136 1510,-136"/>
<text text-anchor="middle" x="1480" y="-120.8" font-family="Times New Roman,serif" font-size="14.00">next: 16</text>
<polyline fill="none" stroke="black" points="1450,-113 1510,-113"/>
<text text-anchor="middle" x="1480" y="-97.8" font-family="Times New Roman,serif" font-size="14.00">prev: &#45;1</text>
</g>
<!-- 14&#45;&gt;15 -->
<g id="edge16" class="edge">
<title>14&#45;&gt;15</title>
<path fill="none" stroke="#696969" d="M1414.23,-129.7C1425.46,-129.1 1438.27,-129.1 1449.53,-129.69"/>
<polygon fill="#696969" stroke="#696969" points="1449.79,-129.7 1449.79,-129.7 1449.79,-129.7 1449.79,-129.7"/>
</g>
<!-- 14&#45;&gt;15 -->
<g id="edge38" class="edge">
<title>14&#45;&gt;15</title>
<path fill="none" stroke="black" d="M1414.23,-142.3C1422.27,-142.73 1431.13,-142.85 1439.65,-142.67"/>
<polygon fill="black" stroke="black" points="1439.93,-146.16 1449.79,-142.3 1439.67,-139.17 1439.93,-146.16"/>
</g>
<!-- 16 -->
<g id="node17" class="node">
<title>16</title>
<path fill="#00bfff" stroke="black" d="M1558,-90C1558,-90 1594,-90 1594,-90 1600,-90 1606,-96 1606,-102 1606,-102 1606,-170 1606,-170 1606,-176 1600,-182 1594,-182 1594,-182 1558,-182 1558,-182 1552,-182 1546,-176 1546,-170 1546,-170 1546,-102 1546,-102 1546,-96 1552,-90 1558,-90"/>
<text text-anchor="middle" x="1576" y="-166.8" font-family="Times New Roman,serif" font-size="14.00">idx: 16</text>
<polyline fill="none" stroke="black" points="1546,-159 1606,-159"/>
<text text-anchor="middle" x="1576" y="-143.8" font-family="Times New Roman,serif" font-size="14.00">data: 0</text>
<polyline fill="none" stroke="black" points="1546,-136 1606,-136"/>
<text text-anchor="middle" x="1576" y="-120.8" font-family="Times New Roman,serif" font-size="14.00">next: 17</text>
<polyline fill="none" stroke="black" points="1546,-113 1606,-113"/>
<text text-anchor="middle" x="1576" y="-97.8" font-family="Times New Roman,serif" font-size="14.00">prev: &#45;1</text>
</g>
<!-- 15&#45;&gt;16 -->
<g id="edge17" class="edge">
<title>15&#45;&gt;16</title>
<path fill="none" stroke="#696969" d="M1510.23,-129.7C1521.46,-129.1 1534.27,-129.1 1545.53,-129.69"/>
<polygon fill="#696969" stroke="#696969" points="1545.79,-129.7 1545.79,-129.7 1545.79,-129.7 1545.79,-129.7"/>
</g>
<!-- 15&#45;&gt;16 -->
<g id="edge39" class="edge">
<title>15&#45;&gt;16</title>
<path fill="none" stroke="black" d="M1510.23,-142.3C1518.27,-142.73 1527.13,-142.85 1535.65,-142.67"/>
<polygon fill="black" stroke="black" points="1535.93,-146.16 1545.79,-142.3 1535.67,-139.17 1535.93,-146.16"/>
</g>
<!-- 17 -->
<g id="node18" class="node">
<title>17</title>
<path fill="#00bfff" stroke="black" d="M1654,-90C1654,-90 1690,-90 1690,-90 1696,-90 1702,-96 1702,-102 1702,-102 1702,-170 1702,-170 1702,-176 1696,-182 1690,-182 1690,-182 1654,-182 1654,-182 1648,-182 1642,-176 1642,-170 1642,-170 1642,-102 1642,-102 1642,-96 1648,-90 1654,-90"/>
<text text-anchor="middle" x="1672" y="-166.8" font-family="Times New Roman,serif" font-size="14.00">idx: 17</text>
<polyline fill="none" stroke="black" points="1642,-159 1702,-159"/>
<text text-anchor="middle" x="1672" y="-143.8" font-family="Times New Roman,serif" font-size="14.00">data: 0</text>
<polyline fill="none" stroke="black" points="1642,-136 1702,-136"/>
<text text-anchor="middle" x="1672" y="-120.8" font-family="Times New Roman,serif" font-size="14.00">next: 18</text>
<polyline fill="none" stroke="black" points="1642,-113 1702,-113"/>
<text text-anchor="middle" x="1672" y="-97.8" font-family="Times New Roman,serif" font-size="14.00">prev: &#45;1</text>
</g>
<!-- 16&#45;&gt;17 -->
<g id="edge18" class="edge">
<title>16&#45;&gt;17</title>
<path fill="none" stroke="#696969" d="M1606.23,-129.7C1617.46,-129.1 1630.27,-129.1 1641.53,-129.69"/>
<polygon fill="#696969" stroke="#696969" points="1641.79,-129.7 1641.79,-129.7 1641.79,-129.7 1641.79,-129.7"/>
</g>
<!-- 16&#45;&gt;17 -->
<g id="edge40" class="edge">
<title>16&#45;&gt;17</title>
<path fill="none" stroke="black" d="M1606.23,-142.3C1614.27,-142.73 1623.13,-142.85 1631.65,-142.67"/>
<polygon fill="black" stroke="black" points="1631.93,-146.16 1641.79,-142.3 1631.67,-139.17 1631.93,-146.16"/>
</g>
<!-- 18 -->
<g id="node19" class="node">
<title>18</title>
<path fill="#00bfff" stroke="black" d="M1750,-90C1750,-90 1786,-90 1786,-90 1792,-90 1798,-96 1798,-102 1798,-102 1798,-170 1798,-170 1798,-176 1792,-182 1786,-182 1786,-182 1750,-182 1750,-182 1744,-182 1738,-176 1738,-170 1738,-170 1738,-102 1738,-102 1738,-96 1744,-90 1750,-90"/>
<text text-anchor="middle" x="1768" y="-166.8" font-family="Times New Roman,serif" font-size="14.00">idx: 18</text>
<polyline fill="none" stroke="black" points="1738,-159 1798,-159"/>
<text text-anchor="middle" x="1768" y="-143.8" font-family="Times New Roman,serif" font-size="14.00">data: 0</text>
<polyline fill="none" stroke="black" points="1738,-136 1798,-136"/>
<text text-anchor="middle" x="1768" y="-120.8" font-family="Times New Roman,serif" font-size="14.00">next: 19</text>
<polyline fill="none" stroke="black" points="1738,-113 1798,-113"/>
<text text-anchor="middle" x="1768" y="-97.8" font-family="Times New Roman,serif" font-size="14.00">prev: &#45;1</text>
</g>
<!-- 17&#45;&gt;18 -->
<g id="edge19" class="edge">
<title>17&#45;&gt;18</title>
<path fill="none" stroke="#696969" d="M1702.23,-129.7C1713.46,-129.1 1726.27,-129.1 1737.53,-129.69"/>
<polygon fill="#696969" stroke="#696969" points="1737.79,-129.7 1737.79,-129.7 1737.79,-129.7 1737.79,-129.7"/>
</g>
<!-- 17&#45;&gt;18 -->
<g id="edge41" class="edge">
<title>17&#45;&gt;18</title>
<path fill="none" stroke="black" d="M1702.23,-142.3C1710.27,-142.73 1719.13,-142.85 1727.65,-142.67"/>
<polygon fill="black" stroke="black" points="1727.93,-146.16 1737.79,-142.3 1727.67,-139.17 1727.93,-146.16"/>
</g>
<!-- 19 -->
<g id="node20" class="node">
<title>19</title>
<path fill="#00bfff" stroke="black" d="M1846,-90C1846,-90 1881,-90 1881,-90 1887,-90 1893,-96 1893,-102 1893,-102 1893,-170 1893,-170 1893,-176 1887,-182 1881,-182 1881,-182 1846,-182 1846,-182 1840,-182 1834,-176 1834,-170 1834,-170 1834,-102 1834,-102 1834,-96 1840,-90 1846,-90"/>
<text text-anchor="middle" x="1863.5" y="-166.8" font-family="Times New Roman,serif" font-size="14.00">idx: 19</text>
<polyline fill="none" stroke="black" points="1834,-159 1893,-159"/>
<text text-anchor="middle" x="1863.5" y="-143.8" font-family="Times New Roman,serif" font-size="14.00">data: 0</text>
<polyline fill="none" stroke="black" points="1834,-136 1893,-136"/>
<text text-anchor="middle" x="1863.5" y="-120.8" font-family="Times New Roman,serif" font-size="14.00">next: 0</text>
<polyline fill="none" stroke="black" points="1834,-113 1893,-113"/>
<text text-anchor="middle" x="1863.5" y="-97.8" font-family="Times New Roman,serif" font-size="14.00">prev: &#45;1</text>
</g>
<!-- 18&#45;&gt;19 -->
<g id="edge20" class="edge">
<title>18&#45;&gt;19</title>
<path fill="none" stroke="#696969" d="M1798.07,-129.7C1809.35,-129.1 1822.23,-129.1 1833.5,-129.7"/>
<polygon fill="#696969" stroke="#696969" points="1833.77,-129.72 1833.77,-129.72 1833.77,-129.72 1833.77,-129.72"/>
</g>
<!-- 18&#45;&gt;19 -->
<g id="edge42" class="edge">
<title>18&#45;&gt;19</title>
<path fill="none" stroke="black" d="M1798.07,-142.3C1806.15,-142.73 1815.06,-142.85 1823.6,-142.66"/>
<polygon fill="black" stroke="black" points="1823.91,-146.16 1833.77,-142.28 1823.64,-139.16 1823.91,-146.16"/>
</g>
<!-- 19&#45;&gt;0 -->
<g id="edge43" class="edge">
<title>19&#45;&gt;0</title>
<path fill="none" stroke="black" d="M1833.84,-166.58C1799.22,-200.04 1737.54,-249 1673,-249 232.5,-249 232.5,-249 232.5,-249 170.24,-249 109.73,-206.33 72.33,-173.43"/>
<polygon fill="black" stroke="black" points="74.48,-170.66 64.71,-166.58 69.8,-175.87 74.48,-170.66"/>
</g>
<!-- head -->
<g id="node21" class="node">
<title>head</title>
<path fill="#ccff99" stroke="black" d="M1941,-118C1941,-118 1973,-118 1973,-118 1979,-118 1985,-124 1985,-130 1985,-130 1985,-142 1985,-142 1985,-148 1979,-154 1973,-154 1973,-154 1941,-154 1941,-154 1935,-154 1929,-148 1929,-142 1929,-142 1929,-130 1929,-130 1929,-124 1935,-118 1941,-118"/>
<text text-anchor="middle" x="1957" y="-132.3" font-family="Times New Roman,serif" font-size="14.00">head: 1</text>
</g>
<!-- 19&#45;&gt;head -->
<g id="edge21" class="edge">
<title>19&#45;&gt;head</title>
<path fill="none" stroke="#696969" d="M1893.45,-136C1904.67,-136 1917.46,-136 1928.53,-136"/>
<polygon fill="#696969" stroke="#696969" points="1928.79,-136 1928.79,-136 1928.79,-136 1928.79,-136"/>
</g>
<!-- head&#45;&gt;1 -->
<g id="edge44" class="edge">
<title>head&#45;&gt;1</title>
<path fill="none" stroke="black" d="M1940.5,-154.06C1928.76,-166.5 1911.53,-182.3 1893,-191 1842.47,-214.72 1824.82,-211 1769,-211 323.5,-211 323.5,-211 323.5,-211 270.53,-211 254.31,-212.72 206,-191 196.3,-186.64 186.81,-180.57 178.12,-174.06"/>
<polygon fill="black" stroke="black" points="180.08,-171.15 170.06,-167.71 175.75,-176.65 180.08,-171.15"/>
</g>
<!-- tail -->
<g id="node22" class="node">
<title>tail</title>
<path fill="#ccff99" stroke="black" d="M2033,-118C2033,-118 2063,-118 2063,-118 2069,-118 2075,-124 2075,-130 2075,-130 2075,-142 2075,-142 2075,-148 2069,-154 2063,-154 2063,-154 2033,-154 2033,-154 2027,-154 2021,-148 2021,-142 2021,-142 2021,-130 2021,-130 2021,-124 2027,-118 2033,-118"/>
<text text-anchor="middle" x="2048" y="-132.3" font-family="Times New Roman,serif" font-size="14.00">tail: 10</text>
</g>
<!-- head&#45;&gt;tail -->
<g id="edge22" class="edge">
<title>head&#45;&gt;tail</title>
<path fill="none" stroke="#696969" d="M1985.19,-136C1996.45,-136 2009.46,-136 2020.63,-136"/>
<polygon fill="#696969" stroke="#696969" points="2020.89,-136 2020.89,-136 2020.89,-136 2020.89,-136"/>
</g>
<!-- tail&#45;&gt;10 -->
<g id="edge45" class="edge">
<title>tail&#45;&gt;10</title>
<path fill="none" stroke="black" d="M2036.43,-118C2025.57,-100.99 2007.14,-75.91 1985,-61 1938.42,-29.63 1920.66,-23 1864.5,-23 1191,-23 1191,-23 1191,-23 1131.62,-23 1074.26,-63.17 1037.62,-95.61"/>
<polygon fill="black" stroke="black" points="1035.18,-93.1 1030.12,-102.4 1039.88,-98.29 1035.18,-93.1"/>
</g>
<!-- free -->
<g id="node23" class="node">
<title>free</title>
<path fill="#00bfff" stroke="black" d="M2123,-118C2123,-118 2157,-118 2157,-118 2163,-118 2169,-124 2169,-130 2169,-130 2169,-142 2169,-142 2169,-148 2163,-154 2157,-154 2157,-154 2123,-154 2123,-154 2117,-154 2111,-148 2111,-142 2111,-142 2111,-130 2111,-130 2111,-124 2117,-118 2123,-118"/>
<text text-anchor="middle" x="2140" y="-132.3" font-family="Times New Roman,serif" font-size="14.00">free: 11</text>
</g>
<!-- tail&#45;&gt;free -->
<g id="edge23" class="edge">
<title>tail&#45;&gt;free</title>
<path fill="none" stroke="#696969" d="M2075.03,-136C2086.16,-136 2099.18,-136 2110.56,-136"/>
<polygon fill="#696969" stroke="#696969" points="2110.82,-136 2110.82,-136 2110.82,-136 2110.82,-136"/>
</g>
<!-- free&#45;&gt;11 -->
<g id="edge46" class="edge">
<title>free&#45;&gt;11</title>
<path fill="none" stroke="black" d="M2110.8,-153.02C2085.91,-165.66 2049.28,-178.29 2021,-163 1995.3,-149.11 2008.38,-125.53 1985,-108 1906.39,-49.07 1867.25,-61 1769,-61 1287,-61 1287,-61 1287,-61 1230.81,-61 1213.05,-56.52 1162,-80 1152.05,-84.57 1142.46,-91.14 1133.84,-98.17"/>
<polygon fill="black" stroke="black" points="1131.52,-95.55 1126.21,-104.72 1136.08,-100.86 1131.52,-95.55"/>
</g>
<!-- All -->
<g id="node24" class="node">
<title>All</title>
<path fill="#8b00ff" stroke="black" d="M12,-219C12,-219 55,-219 55,-219 61,-219 67,-225 67,-231 67,-231 67,-243 67,-243 67,-249 61,-255 55,-255 55,-255 12,-255 12,-255 6,-255 0,-249 0,-243 0,-243 0,-231 0,-231 0,-225 6,-219 12,-219"/>
<text text-anchor="middle" x="33.5" y="-233.3" font-family="Times New Roman,serif" font-size="14.00">size = 20</text>
</g>
</g>
</svg>
